<svg width="93" height="211" viewBox="0 0 93 211" fill="none" xmlns="http://www.w3.org/2000/svg">
<path opacity="0.16" d="M86.1 103.8C85.5 103.3 84.9 102.9 84.3 102.5C83 101.6 81.7 101 80.2 100.5C78.2 99.9 76.2 99.6 74.1 99.8C73.1 99.9 72 100.1 71.1 100.6C70.7 100.8 70.3 101 69.9 101.2C69.5 101.4 69 101.4 68.6 101.5C67.2 102 66 102.7 65.1 103.9C64 105.2 63.5 106.7 63.5 108.4C63.5 109.4 63.7 110.3 64 111.2C64.7 113.4 66 115.4 67.5 117.1C68.3 118.1 69.3 118.9 70.3 119.7C70.4 119.7 70.5 119.8 70.5 119.8C70.8 120 71 120.3 71.3 120.4C71.4 120.5 71.5 120.7 71.7 120.7C72.4 121.1 73 121.6 73.7 121.9C74.3 122.2 75 122.7 75.7 122.9C75.8 123 75.9 123.1 76.1 123.1C76.2 123.2 76.4 123.3 76.6 123.4C77.2 123.7 77.9 123.9 78.5 124.2C79.3 124.5 80.1 124.8 80.9 124.9C81.4 125 81.8 125.1 82.3 125.1C83.1 125.2 84 125.2 84.8 125C85.9 124.8 87 124.4 88 123.8C88.3 123.6 88.7 123.4 88.9 123.1C89 123.1 89.1 123 89.2 123C89.9 122.3 90.7 121.6 91.2 120.8C92 119.6 92.5 118.3 92.7 116.9C92.9 115.9 92.9 114.8 92.8 113.8C92.7 113 92.6 112.3 92.2 111.6C91.9 110.6 91.4 109.7 90.9 108.8C90.7 108.5 90.6 108.2 90.3 108C90.2 107.7 90 107.5 89.8 107.3C89.8 107.1 89.6 107 89.5 106.9C88.3 105.9 87.3 104.8 86.1 103.8Z" fill="#F7601D"/>
<path opacity="0.16" d="M9.4 109.1C11.2 109.9 13 110.6 14.8 111.2C16.8 111.9 18.8 112.5 20.8 113.1C22.3 113.5 23.9 113.9 25.4 114.3C27.8 114.8 30.1 115.3 32.5 115.6C33.2 115.7 33.9 115.8 34.6 115.8C34.7 115.8 34.8 115.9 34.8 115.9C35.8 116 36.9 116 37.9 116.1C38 116.1 38.2 116.1 38.4 116.1C38.7 116.2 39 116.2 39.3 116.1C40 116.1 40.6 116.1 41.3 116.1C41.6 116.1 42 116.1 42.3 116C42.4 116 42.4 116 42.5 116C42.7 116.1 42.8 116 43 115.9C43.1 115.9 43.1 115.9 43.2 115.9C43.3 115.9 43.3 115.9 43.4 115.9C43.3 115.9 43.3 115.9 43.2 115.9C43.3 115.9 43.3 115.9 43.4 115.9C43.5 115.9 43.5 115.9 43.6 115.9C43.7 115.9 43.8 115.9 43.9 115.9C44.9 115.8 46 115.7 47 115.5C49.1 115.1 51.2 114.5 53.2 113.4C53.7 113.1 54.2 112.9 54.6 112.5H54.7C55.1 112.2 55.5 112 55.8 111.6C56 111.4 56.1 111.3 56.3 111.1C56.6 110.9 56.8 110.7 57 110.5C57.4 109.9 58 109.4 58.4 108.8C58.7 108.3 59.1 107.8 59.3 107.2L59.4 107.1C59.5 107 59.5 106.9 59.5 106.8L59.6 106.7C59.8 106.5 59.9 106.2 60 105.9C60.5 104.6 60.9 103.3 61.1 101.9C61.2 101.4 61.3 100.9 61.2 100.3C61.2 100.2 61.3 100.1 61.3 100C61.3 99.3 61.4 98.6 61.4 97.9C61.4 96.9 61.4 96 61.3 95C61.3 94.6 61.2 94.2 61.2 93.8C61.2 93.7 61.2 93.7 61.2 93.6V93.5C61.2 93.3 61.2 93.1 61.2 92.9C61 90.9 60.6 89 60.2 87C59.7 84.8 59.1 82.6 58.5 80.4C58 78.5 57.3 76.6 56.7 74.7C56.7 74.6 56.6 74.5 56.5 74.3C56.4 73.7 56.1 73.1 55.9 72.6C55.9 72.4 55.8 72.3 55.8 72.1C55.6 71.5 55.4 71 55.2 70.4C54.8 69.3 54.3 68.2 53.8 67.2C53.3 66.1 52.7 65.1 52 64.1C51.3 63.1 50.7 62.2 49.8 61.3C49.6 61 49.3 60.8 49.1 60.6C48.7 60.2 48.3 59.8 47.8 59.4C47.2 58.9 46.6 58.5 46 58.1C45.8 58 45.6 57.8 45.4 57.8C45.2 57.6 44.9 57.5 44.6 57.4C44.5 57.4 44.5 57.3 44.4 57.3C43.3 56.8 42.1 56.4 40.8 56.3C40.3 56.2 39.8 56.1 39.3 56.2C39.2 56.2 39.2 56.2 39.1 56.2C38.7 56.1 38.3 56.2 37.9 56.3C37.6 56.3 37.3 56.2 37.1 56.4C36.6 56.4 36 56.5 35.5 56.7C34.8 56.9 34.2 57 33.6 57.4C32.8 57.6 32.1 58 31.5 58.4C31.3 58.4 31.2 58.6 31 58.7C30.9 58.7 30.8 58.8 30.7 58.8C30.2 59.2 29.7 59.5 29.2 59.9C28.4 60.6 27.5 61.2 26.8 62C25.7 63.1 24.5 64.3 23.4 65.5C21.7 67.3 19.9 69.1 18.1 70.9C17.9 71.1 17.6 71.4 17.5 71.7C17.4 71.8 17.4 71.8 17.3 71.9C17.1 72.1 16.8 72.4 16.6 72.6C16.4 72.8 16.2 73 16 73.2C15.8 73.4 15.5 73.7 15.3 73.9C13.4 75.8 11.5 77.8 9.6 79.8C9.1 80.3 8.6 80.8 8.1 81.3C8 81.4 7.9 81.5 7.9 81.7C7.8 81.8 7.7 81.9 7.6 82.1C7.2 82.5 6.8 82.9 6.5 83.4C6.1 83.8 5.8 84.3 5.4 84.7C4.8 85.5 4.3 86.2 3.8 87C3.6 87.4 3.3 87.7 3.1 88.2L3 88.3C2.9 88.4 2.9 88.5 2.9 88.6C2.8 88.7 2.7 88.8 2.7 89C2.4 89.3 2.3 89.7 2.1 90.1C1.9 90.5 1.7 90.9 1.6 91.3C1.5 91.4 1.5 91.5 1.5 91.6C1.5 91.6 1.5 91.7 1.4 91.7C1.2 92.2 1 92.8 0.900003 93.3C0.600003 94.6 0.5 95.9 0.6 97.3C0.9 99.9 2 102.2 3.8 104.2C4.2 104.7 4.6 105.1 5 105.6C5.5 106.3 6 106.9 6.6 107.4C7.4 108.1 8.3 108.6 9.4 109.1ZM38.3 110.4C38.3 110.3 38.3 110.3 38.3 110.3V110.4ZM54.6 100.4C54.6 100.4 54.6 100.3 54.6 100.4C54.6 100.3 54.6 100.3 54.6 100.4C54.6 100.4 54.6 100.3 54.6 100.4ZM55.1 100C55.1 100 55.1 99.9 55.2 99.9L55.1 100ZM15.7 77.7C15.6 77.7 15.6 77.7 15.6 77.7C15.6 77.7 15.6 77.7 15.7 77.7ZM13 80.4C13 80.5 12.9 80.5 12.9 80.5C13 80.5 13 80.5 13 80.4Z" fill="#F7601D"/>
<path opacity="0.16" d="M61.4 124.7C60 123.7 58.6 123 57 122.6C56.1 122.4 55.2 122.3 54.4 122.4C54.3 122.4 54.1 122.4 54 122.4C53.2 122.4 52.4 122.7 51.7 123C50.6 123.1 49.6 123.5 48.7 124.1C47.3 124.9 46.4 126.1 45.8 127.6C45.5 128.3 45.4 129 45.4 129.7C45.4 129.8 45.4 129.8 45.4 129.9C45.4 130 45.4 130 45.4 130.1C45.4 130.3 45.3 130.6 45.4 130.8C45.3 131 45.4 131.2 45.4 131.4C45.5 133.5 46 135.6 46.6 137.7C47.2 139.6 48 141.4 49 143C49.6 144 50.3 145 51.1 145.9C51.9 146.8 52.6 147.8 53.5 148.6C53.9 148.9 54.3 149.2 54.6 149.6C55 150 55.5 150.3 55.9 150.6C56.1 150.7 56.2 150.9 56.5 151C56.9 151.4 57.4 151.6 57.9 151.8L58 151.9C58.1 152 58.2 152.1 58.4 152.1C59.5 152.8 60.8 153.1 62.1 153.3C62.5 153.4 63 153.5 63.4 153.4C63.8 153.5 64.2 153.4 64.6 153.3C64.7 153.3 64.8 153.3 64.9 153.2C65 153.2 65 153.2 65.1 153.2C66.6 153 68 152.3 69.1 151.4C70.3 150.4 71.2 149.2 71.8 147.8C72.1 147.1 72.3 146.4 72.3 145.7C72.4 145.5 72.4 145.4 72.4 145.2C72.5 145 72.5 144.8 72.4 144.6C72.4 144.4 72.4 144.2 72.4 144C72.4 142.7 72.2 141.3 71.9 140C71.9 139.9 71.8 139.8 71.7 139.6C71.7 139.5 71.7 139.5 71.7 139.4C71.7 139.4 71.7 139.3 71.6 139.3C71.6 139.2 71.6 139.2 71.6 139.1C71.6 139.1 71.6 139 71.5 139C71.5 138.9 71.5 138.9 71.5 138.8C71.5 138.8 71.5 138.7 71.4 138.7C71.4 138.6 71.4 138.5 71.3 138.4C70.7 136.4 69.8 134.6 68.8 132.8C68.6 132.5 68.5 132.1 68.2 131.9C68.1 131.8 68.1 131.8 68 131.7C68 131.5 67.9 131.4 67.8 131.4C67.7 131.1 67.5 130.9 67.3 130.7C67.3 130.6 67.2 130.5 67.1 130.4C66.8 130 66.5 129.6 66.1 129.2C65.6 128.5 65 127.9 64.3 127.3C63.5 126.4 62.5 125.5 61.4 124.7ZM65 153.3C64.9 153.3 64.9 153.3 64.8 153.3C64.9 153.3 65 153.3 65 153.3ZM64.3 147.1C64.3 147.2 64.3 147.2 64.3 147.3C64.2 147.3 64.2 147.3 64.1 147.4L64.2 147.3C64.3 147.1 64.3 147.1 64.3 147.1Z" fill="#F7601D"/>
<path opacity="0.16" d="M64.1 77.2C63.8 77.7 63.6 78.2 63.4 78.8C63.2 79.6 63.1 80.5 63.2 81.3C63.3 82.4 63.5 83.4 64.2 84.2C64.5 84.7 64.8 85.2 65.2 85.6C65.6 86.1 65.9 86.6 66.4 87C66.5 87.1 66.6 87.2 66.7 87.3C66.8 87.4 66.8 87.4 66.9 87.5C66.9 87.7 67.1 87.9 67.3 88C67.8 88.4 68.3 88.8 68.7 89.3C68.8 89.4 68.9 89.5 69 89.5C69.3 89.9 69.7 90.1 70.1 90.4C70.9 91 71.7 91.5 72.6 91.8C73 92 73.4 92.1 73.7 92.3C75.4 93 77.2 93.4 79.1 93.3C79.9 93.2 80.7 93.1 81.5 92.9C81.7 92.8 82 92.8 82.2 92.7C82.3 92.7 82.4 92.7 82.5 92.6C83.1 92.5 83.7 92.2 84.2 91.9C84.3 91.9 84.4 91.9 84.4 91.8C85.7 91.1 86.8 90 87.6 88.8C88.9 86.8 89.3 84.6 89.1 82.3C89 80.9 88.6 79.6 87.9 78.3C87.6 77.7 87.3 77 86.7 76.5C86.7 76.5 86.7 76.4 86.6 76.4C86.6 76.4 86.6 76.4 86.6 76.3C86.5 76 86.2 75.8 86 75.6C85.9 75.5 85.9 75.5 85.8 75.4C85.8 75.3 85.7 75.2 85.7 75.1C84.8 74.1 83.7 73.2 82.5 72.4C82.3 72.3 82.2 72.1 81.9 72.1C81.8 72 81.6 71.8 81.4 71.8L81.3 71.7C80.5 71.2 79.6 70.8 78.7 70.5C78.3 70.4 77.9 70.2 77.5 70.2C77.4 70.1 77.3 70.1 77.2 70.1C77.1 70.1 77.1 70.1 77 70.1C77.1 70.1 77.1 70.1 77.2 70.1C77.1 70.1 77.1 70.1 77 70.1C76.9 70 76.7 70 76.5 70C76.4 70 76.4 70 76.3 70H76.2C76.1 70 76.1 70 76 70C75.9 70 75.9 70 75.8 70C75.6 69.9 75.4 69.9 75.2 69.9C75.1 69.8 75 69.8 74.9 69.8C74.8 69.8 74.8 69.8 74.7 69.8C74.6 69.8 74.6 69.8 74.5 69.8C74.4 69.8 74.4 69.8 74.3 69.8C74.2 69.8 74.2 69.8 74.1 69.8C74.2 69.8 74.2 69.8 74.3 69.8C74.2 69.8 74.2 69.8 74.1 69.8C73.2 69.7 72.4 69.8 71.5 70C71.4 70 71.3 70 71.2 70.1C71.1 70.1 71.1 70.1 71 70.1C70.9 70.1 70.8 70.1 70.7 70.2C70.6 70.2 70.6 70.2 70.5 70.2H70.6H70.5C70.5 70.2 70.4 70.2 70.4 70.3C70.3 70.3 70.3 70.3 70.2 70.3C69.6 70.5 69 70.6 68.5 71C67.7 71.3 67 71.9 66.4 72.4C66 72.7 65.7 73.2 65.4 73.6C64.8 74.4 64.3 75.3 64.1 76.3C64.4 76.7 64.3 77 64.1 77.2ZM76 70.1C76.1 70.1 76.1 70.1 76.2 70.1C76.2 70.1 76.1 70.1 76 70.1ZM84.2 79.6C84.3 79.6 84.3 79.6 84.2 79.6C84.3 79.6 84.3 79.6 84.2 79.6C84.3 79.6 84.3 79.6 84.2 79.6ZM82.2 87.3C82.2 87.2 82.2 87.2 82.3 87.2C82.2 87.2 82.2 87.3 82.2 87.3ZM71.3 70.2C71.4 70.2 71.4 70.2 71.5 70.2C71.4 70.2 71.4 70.2 71.3 70.2Z" fill="#F7601D"/>
<path opacity="0.16" d="M26.1 148.5C26.3 148.6 26.4 148.8 26.7 148.8C27.3 149.2 27.9 149.5 28.6 149.6C28.9 149.7 29.2 149.8 29.5 149.8C29.8 149.9 30.1 150 30.3 149.9C31.4 150 32.5 149.8 33.6 149.4C34.5 149 35.3 148.5 36.1 147.8C36.2 147.7 36.3 147.6 36.4 147.5C36.7 147 37.1 146.7 37.4 146.2C37.9 145.5 38.3 144.7 38.6 143.9C39.1 142.2 39.3 140.4 39.4 138.6C39.4 137.1 39.2 135.6 38.9 134.2C38.8 133.8 38.8 133.3 38.5 133C38.5 132.9 38.5 132.8 38.4 132.7C38.2 132.2 38 131.6 37.8 131.1C37.4 130.2 36.9 129.3 36.4 128.5C36.1 128 35.8 127.6 35.6 127C35.2 126.1 34.6 125.3 33.8 124.7C33.5 124.5 33.3 124.2 32.9 124.1C32.3 123.6 31.6 123.3 30.9 123.2C30.7 123.1 30.5 123.1 30.3 123C29.6 122.9 28.8 122.9 28.1 123.1C27.6 123.2 27.1 123.3 26.6 123.5C26.4 123.5 26.3 123.6 26.1 123.7C25.2 124.2 24.3 124.8 23.7 125.7C23.6 125.8 23.4 126 23.3 126.1C23 126.4 22.7 126.7 22.6 127.2V127.3C22.5 127.4 22.5 127.4 22.4 127.5C21.3 129.3 20.5 131.3 20.2 133.4C20.1 134.2 20 135 20 135.8C20 137.4 20.3 138.9 20.6 140.4C20.7 140.8 20.8 141.2 21 141.6C21 141.7 21 141.8 21.1 141.9C21.1 142.1 21.2 142.2 21.3 142.3C21.4 142.7 21.5 143 21.8 143.3C21.8 143.5 21.9 143.6 22 143.7C22 143.9 22.1 144 22.2 144.1C22.2 144.1 22.2 144.2 22.3 144.2C22.3 144.4 22.4 144.5 22.5 144.6C22.6 144.7 22.6 144.7 22.7 144.8V144.9C23 145.4 23.4 145.9 23.8 146.3C23.8 146.4 23.9 146.5 23.9 146.6C24.3 147.1 25.1 147.9 26.1 148.5ZM25.3 125.2L25.2 125.3C25.2 125.3 25.3 125.2 25.3 125.2ZM22.3 127.1C22.4 127.1 22.4 127.1 22.3 127.1C22.4 127.1 22.4 127.1 22.3 127.1ZM25.1 144.5C25.1 144.6 25.1 144.5 25.1 144.5V144.5Z" fill="#F7601D"/>
<path opacity="0.1" d="M51.1 6.50001C51 6.90001 51 7.20001 50.9 7.60001C50.8 8.30001 50.9 9.10001 51 9.80001C51.2 10.8 51.5 11.7 52.1 12.5C52.4 12.9 52.7 13.3 53.1 13.6C53.3 13.7 53.5 13.9 53.6 14C53.8 14.1 53.9 14.3 54 14.5C54.5 15 55.1 15.3 55.8 15.4C56.6 15.5 57.3 15.4 58.1 15.1C58.5 14.9 58.9 14.6 59.2 14.2C60 13.4 60.5 12.4 60.9 11.4C61.1 10.8 61.3 10.2 61.4 9.60001V9.50001C61.4 9.30001 61.5 9.20001 61.5 9.00001C61.5 8.90001 61.6 8.80001 61.6 8.80001C61.6 8.40001 61.7 8.00001 61.7 7.70001C61.7 7.30001 61.7 7.00001 61.7 6.60001C61.7 6.50001 61.7 6.50001 61.7 6.40001C61.7 6.30001 61.7 6.20001 61.7 6.10001C61.7 5.80001 61.6 5.50001 61.6 5.10001C61.6 4.70001 61.5 4.30001 61.4 3.90001C61.3 3.70001 61.3 3.50001 61.2 3.20001C61 2.80001 60.9 2.50001 60.6 2.20001C60.3 1.80001 59.8 1.40001 59.4 1.10001C59.2 1.00001 59.1 0.90001 58.9 0.90001L58.8 0.800011C58.3 0.700011 57.9 0.50001 57.4 0.40001C56.7 0.30001 56.1 0.400007 55.4 0.600007C54.9 0.800007 54.5 1.00001 54.1 1.30001C53.8 1.50001 53.5 1.70001 53.3 2.10001C52.9 2.40001 52.7 2.90001 52.4 3.30001C52.3 3.40001 52.2 3.60001 52.2 3.70001C52.1 3.80001 52.1 4.00001 52 4.10001C51.9 4.10001 51.9 4.20001 51.9 4.30001C51.5 5.10001 51.2 5.80001 51.1 6.50001Z" fill="#F7601D"/>
<path opacity="0.1" d="M70.8 38C70.7 37.1 70.6 36.1 70.5 35.2C70.3 34.2 70.2 33.2 69.9 32.2C69.7 31.4 69.6 30.7 69.3 30C69 28.9 68.6 27.8 68.2 26.7C68.1 26.4 68 26.1 67.8 25.8V25.7C67.6 25.2 67.4 24.8 67.2 24.3C67.2 24.2 67.1 24.2 67.1 24.1C67.1 24 67 23.8 66.9 23.7C66.8 23.4 66.6 23.1 66.5 22.8C66.4 22.7 66.4 22.5 66.3 22.4V22.3C66.3 22.2 66.2 22.2 66.2 22.1V22V21.9V22C66.2 22 66.2 22 66.2 21.9V21.8C66.2 21.8 66.2 21.7 66.1 21.7C65.8 21.3 65.5 20.9 65.2 20.5C64.5 19.7 63.8 18.9 62.9 18.4C62.7 18.3 62.5 18.1 62.2 18C62 17.9 61.8 17.8 61.6 17.7C61.5 17.7 61.4 17.6 61.3 17.6C61.2 17.5 61 17.5 60.9 17.5C60.5 17.5 60.2 17.3 59.9 17.3C59.6 17.3 59.3 17.2 59 17.3C59 17.3 59 17.3 58.9 17.3C58.8 17.3 58.8 17.3 58.8 17.3C58.8 17.3 58.8 17.3 58.7 17.3C58.6 17.3 58.4 17.3 58.3 17.3C57.6 17.4 57 17.5 56.3 17.8C56.1 17.9 55.8 17.9 55.6 18.1C55.5 18.1 55.5 18.1 55.4 18.1C55.1 18.2 54.8 18.4 54.5 18.6C54.1 18.8 53.7 19.1 53.3 19.3C53.1 19.4 53 19.5 52.8 19.6C52.8 19.6 52.8 19.6 52.7 19.6C52.6 19.6 52.5 19.7 52.5 19.7C51.7 20.2 51 20.8 50.2 21.5C49.4 22.2 48.5 23 47.8 23.7C47.1 24.4 46.5 25.1 45.8 25.8C45.8 25.8 45.7 25.9 45.7 26C45.5 26.2 45.3 26.4 45.1 26.7C45 26.8 45 26.8 44.9 26.9C44.7 27.1 44.5 27.3 44.3 27.6C43.9 28 43.6 28.5 43.3 28.9C43 29.4 42.7 29.9 42.4 30.4C42.1 30.9 41.9 31.4 41.7 32C41.6 32.2 41.6 32.3 41.5 32.5C41.4 32.8 41.3 33 41.3 33.3C41.2 33.7 41.2 34 41.2 34.4C41.2 34.5 41.2 34.6 41.2 34.7C41.2 34.9 41.2 35 41.2 35.1V35.2C41.2 35.8 41.4 36.4 41.6 36.9C41.7 37.1 41.7 37.4 41.9 37.6V37.7C42 37.9 42.1 38.1 42.2 38.2C42.2 38.3 42.3 38.4 42.4 38.5C42.5 38.7 42.7 38.9 42.9 39.1C43.1 39.3 43.4 39.6 43.6 39.8C43.9 40.1 44.2 40.3 44.5 40.5C44.5 40.6 44.6 40.6 44.7 40.6L44.8 40.7C45.1 40.8 45.3 41 45.6 41.1C46.1 41.3 46.5 41.5 47 41.6C47.7 41.8 48.5 42 49.2 42.2C50.4 42.5 51.5 42.9 52.7 43.2C52.9 43.2 53 43.3 53.2 43.3H53.3C53.5 43.3 53.6 43.4 53.8 43.4C53.9 43.4 54 43.5 54.2 43.5C54.4 43.5 54.5 43.6 54.7 43.6C56 44 57.2 44.3 58.5 44.7C58.8 44.8 59.1 44.9 59.5 45C59.6 45 59.6 45 59.7 45C59.8 45 59.9 45 59.9 45.1C60.2 45.2 60.4 45.2 60.7 45.3C61 45.4 61.2 45.4 61.5 45.5C62 45.6 62.4 45.6 62.9 45.7C63.1 45.7 63.3 45.8 63.6 45.7C63.6 45.7 63.6 45.7 63.7 45.7C63.8 45.7 63.8 45.7 63.8 45.7C63.9 45.7 63.9 45.7 64 45.7C64.2 45.7 64.4 45.7 64.6 45.7C64.8 45.7 65 45.7 65.2 45.6C65.3 45.6 65.3 45.6 65.4 45.6C65.7 45.6 65.9 45.5 66.2 45.4C66.8 45.2 67.4 45 68 44.6C69.1 43.9 69.8 42.9 70.2 41.7C70.3 41.4 70.4 41.1 70.5 40.9C70.7 40.5 70.8 40.2 70.9 39.8C70.9 39.1 70.9 38.5 70.8 38ZM57.8 43C57.8 43 57.9 43 57.8 43V43ZM68.2 41.1C68.2 41 68.2 41 68.2 41.1C68.2 41 68.2 41 68.2 41.1C68.2 41 68.2 41 68.2 41.1Z" fill="#F7601D"/>
<path opacity="0.1" d="M65.6 12.3C65.5 13.1 65.5 13.9 65.7 14.7C65.8 15.1 66 15.5 66.2 15.9C66.2 16 66.2 16 66.3 16.1C66.5 16.4 66.8 16.7 67.1 16.9C67.4 17.3 67.8 17.7 68.3 17.9C69 18.3 69.7 18.4 70.5 18.3C70.8 18.3 71.2 18.2 71.5 18C71.5 18 71.5 18 71.6 18H71.7C71.8 18 71.9 17.9 72 17.8C72.1 17.8 72.2 17.7 72.3 17.6C73.2 17.1 74 16.4 74.7 15.7C75.4 15 75.9 14.3 76.4 13.4C76.7 12.9 77 12.4 77.2 11.9C77.4 11.4 77.7 10.8 77.8 10.2C77.9 10 77.9 9.7 78 9.5C78.1 9.2 78.1 9 78.1 8.7C78.1 8.6 78.2 8.5 78.1 8.4C78.2 8.1 78.2 7.9 78.1 7.6C78.1 7.6 78.1 7.6 78.1 7.5C78.1 7.4 78.1 7.4 78.1 7.3C78.1 6.7 78 6.1 77.8 5.5C77.7 5.3 77.7 5.1 77.5 4.9C77.4 4.7 77.3 4.6 77.2 4.4C77.2 4.3 77.2 4.3 77.1 4.3V4.2C76.7 3.6 76.1 3.2 75.4 2.9C74.7 2.6 74 2.5 73.2 2.6C72.8 2.6 72.5 2.7 72.2 2.9C72.1 2.9 72 2.9 72 3C71.9 3 71.8 3.1 71.8 3.1C71.7 3.1 71.6 3.2 71.5 3.2C70.9 3.5 70.4 3.9 69.9 4.3L69.8 4.4C69.8 4.4 69.8 4.4 69.7 4.5C69.7 4.5 69.7 4.5 69.6 4.6C69.6 4.6 69.6 4.6 69.5 4.7L69.4 4.8C68.7 5.5 68.1 6.3 67.6 7.2C67.5 7.4 67.4 7.5 67.3 7.7C67.3 7.7 67.3 7.8 67.2 7.8C67.1 7.8 67.1 7.9 67.1 8C67 8.1 66.9 8.3 66.9 8.4C66.8 8.4 66.8 8.5 66.8 8.5C66.7 8.7 66.6 9 66.5 9.2C66.3 9.6 66.2 10 66.1 10.4C65.9 11 65.7 11.6 65.6 12.3ZM74.5 5.9C74.5 5.9 74.5 5.8 74.5 5.9C74.6 5.9 74.6 5.9 74.6 5.9C74.6 5.9 74.6 5.9 74.5 5.9ZM68.8 17.5C68.8 17.5 68.7 17.5 68.8 17.5C68.7 17.5 68.8 17.5 68.8 17.5Z" fill="#F7601D"/>
<path opacity="0.1" d="M44.8 21.9C45.1 21.9 45.3 21.9 45.6 21.8C46 21.7 46.4 21.5 46.7 21.3C47.1 21 47.5 20.7 47.7 20.2C47.8 19.9 48 19.7 48.1 19.4C48.2 19.1 48.4 18.9 48.4 18.6C48.4 18.5 48.4 18.5 48.5 18.4V18.3C48.6 18.2 48.6 18.1 48.6 18C48.6 17.7 48.7 17.4 48.8 17.1C48.8 17 48.8 17 48.8 16.9C48.9 16.7 48.9 16.5 48.9 16.2C49 15.7 49 15.3 49 14.8C49 14.6 49 14.4 48.9 14.2C48.8 13.3 48.6 12.4 48.1 11.7C47.9 11.4 47.7 11 47.4 10.7C47.3 10.6 47.3 10.5 47.2 10.5C47.2 10.4 47.1 10.4 47.1 10.4C46.9 10.2 46.7 10 46.4 9.90001L46.3 9.80001C45.7 9.40001 45 9.2 44.3 9.1C43.2 9 42.1 9.30001 41.2 9.90001C40.6 10.3 40.2 10.8 39.8 11.3C39.6 11.6 39.4 11.9 39.3 12.2C39.3 12.2 39.3 12.2 39.3 12.3C39.2 12.4 39.2 12.6 39.1 12.7V12.8L39 12.9C38.8 13.5 38.6 14.2 38.6 14.9C38.6 15 38.5 15.1 38.6 15.2C38.6 15.3 38.5 15.4 38.6 15.5C38.6 15.5 38.6 15.5 38.6 15.6C38.6 16.1 38.6 16.5 38.7 17C38.7 17.2 38.8 17.4 38.9 17.6V17.7V17.8V17.7V17.8C38.9 17.9 38.9 18 39 18V18.1C39 18.1 39 18.1 39 18.2C39 18.2 39 18.2 39 18.3V18.4C39 18.5 39 18.6 39.1 18.7V18.8V18.9V19V19.1C39.1 19.1 39.1 19.1 39.1 19.2V19.1V19.2C39.3 19.6 39.5 20 39.8 20.3C39.8 20.4 39.8 20.4 39.9 20.4V20.5C39.9 20.6 40 20.6 40 20.6V20.7C40 20.7 40 20.7 40.1 20.8C40.3 21 40.5 21.2 40.8 21.3C41.1 21.6 41.5 21.7 41.9 21.9C42.1 22 42.4 22 42.6 22.1C43.1 22.2 43.6 22.2 44 22C44.4 21.9 44.6 21.9 44.8 21.9ZM39 18.5C39 18.4 39 18.4 39 18.5C39 18.4 39 18.4 39 18.5ZM40.1 20.5C40.1 20.4 40.1 20.4 40.1 20.5C40.1 20.4 40.1 20.4 40.1 20.5C40.1 20.4 40.1 20.4 40.1 20.5ZM40.7 19C40.7 19 40.8 19 40.7 19C40.8 19 40.7 19 40.7 19Z" fill="#F7601D"/>
<path opacity="0.1" d="M83.8 21.9C83.8 21.8 83.9 21.7 83.8 21.6C83.8 21.3 83.8 20.9 83.7 20.6C83.7 20.4 83.7 20.3 83.6 20.2C83.6 20.1 83.5 19.9 83.4 19.8C83.2 19.3 82.8 18.9 82.4 18.5C82 18.2 81.6 18 81.2 17.8C81.1 17.8 81.1 17.7 81 17.7C80.7 17.7 80.5 17.6 80.2 17.6C79.8 17.5 79.4 17.5 78.9 17.6C78.1 17.8 77.2 18.1 76.5 18.5C75.9 18.8 75.3 19.3 74.7 19.7C74.5 19.8 74.4 20 74.3 20.1L74.2 20.2C74 20.4 73.8 20.6 73.7 20.8C73.4 21.2 73.1 21.6 72.9 22C72.8 22.2 72.6 22.5 72.5 22.7C72.2 23.1 72 23.5 71.9 24C71.9 24.2 71.8 24.3 71.9 24.5C71.8 24.9 71.9 25.2 72 25.6C72 25.7 72 25.8 72.1 25.9C72.2 26.2 72.4 26.5 72.6 26.8C72.8 27 72.9 27.2 73.1 27.3C73.1 27.4 73.2 27.4 73.3 27.5C73.7 27.8 74.2 28 74.7 28.1C74.8 28.1 74.9 28.2 75 28.2C75.2 28.2 75.4 28.3 75.6 28.3H75.7C76.7 28.3 77.7 28.2 78.7 27.9C79.1 27.8 79.4 27.6 79.8 27.4C80.5 27 81.1 26.6 81.6 26.1C81.7 26 81.9 25.8 82 25.7C82.1 25.7 82.1 25.6 82.1 25.6C82.2 25.6 82.2 25.5 82.2 25.4C82.3 25.3 82.4 25.1 82.5 25C82.6 25 82.6 24.9 82.6 24.8C82.7 24.8 82.7 24.7 82.7 24.6C82.8 24.6 82.8 24.5 82.8 24.4V24.3C82.9 24 83.1 23.8 83.1 23.5L83.2 23.4C83.7 22.9 83.8 22.4 83.8 21.9ZM73.6 24.5C73.6 24.5 73.6 24.4 73.6 24.5C73.6 24.4 73.6 24.4 73.6 24.5C73.6 24.5 73.6 24.4 73.6 24.5ZM75.6 28.3C75.6 28.3 75.5 28.3 75.6 28.3C75.5 28.3 75.6 28.3 75.6 28.3Z" fill="#F7601D"/>
<path opacity="0.11" d="M66.6 180.9C66.3 180.8 65.9 180.7 65.6 180.6C64.9 180.4 64.2 180.3 63.4 180.3C62.4 180.3 61.4 180.5 60.5 180.9C60 181.1 59.6 181.4 59.2 181.7C59 181.8 58.9 182 58.7 182.2C58.5 182.4 58.3 182.4 58.1 182.6C57.5 183 57.1 183.6 56.9 184.2C56.6 185 56.6 185.7 56.8 186.5C56.9 187 57.2 187.3 57.5 187.7C58.2 188.6 59 189.3 60 189.9C60.5 190.2 61.1 190.5 61.7 190.7H61.8C62 190.8 62.1 190.9 62.3 190.9C62.4 190.9 62.5 191 62.5 191C62.9 191.1 63.2 191.2 63.6 191.3C63.9 191.4 64.3 191.5 64.7 191.4C64.8 191.4 64.8 191.5 64.9 191.4C65 191.4 65.1 191.4 65.1 191.4C65.4 191.4 65.8 191.4 66.1 191.5C66.5 191.5 66.9 191.5 67.3 191.5C67.5 191.5 67.8 191.4 68 191.4C68.4 191.3 68.8 191.2 69.1 191C69.6 190.7 70 190.4 70.4 190C70.5 189.9 70.7 189.7 70.7 189.5C70.8 189.5 70.8 189.4 70.8 189.4C71 189 71.3 188.6 71.4 188.1C71.6 187.4 71.6 186.8 71.5 186.1C71.4 185.6 71.3 185.1 71.1 184.7C70.9 184.4 70.8 184 70.5 183.8C70.2 183.4 69.8 183 69.5 182.7C69.4 182.6 69.3 182.5 69.1 182.4C69 182.3 68.9 182.2 68.7 182.1C68.7 182 68.6 182 68.5 181.9C67.9 181.5 67.3 181.2 66.6 180.9Z" fill="#F7601D"/>
<path opacity="0.11" d="M32.1 194.9C33 195 34 195 34.9 195.1C35.9 195.1 36.9 195.1 38 195.1C38.8 195.1 39.5 195 40.3 194.9C41.5 194.8 42.6 194.6 43.8 194.4C44.1 194.3 44.5 194.3 44.8 194.2H44.9C45.4 194.1 45.9 194 46.4 193.8C46.5 193.8 46.5 193.7 46.6 193.7C46.7 193.7 46.9 193.6 47 193.6C47.3 193.5 47.6 193.4 47.9 193.3C48 193.2 48.2 193.2 48.3 193.1H48.4C48.5 193.1 48.6 193.1 48.6 193H48.7H48.8H48.7H48.8H48.9C49 193 49 193 49.1 193C49.6 192.8 50 192.6 50.5 192.3C51.4 191.8 52.3 191.2 53 190.4C53.2 190.2 53.4 190 53.5 189.8C53.5 189.8 53.5 189.8 53.6 189.8C53.7 189.6 53.9 189.4 54 189.2C54.1 189.1 54.1 189 54.2 188.9C54.3 188.8 54.4 188.7 54.4 188.5C54.5 188.2 54.7 187.9 54.8 187.5C54.9 187.2 55 186.9 55 186.6V186.5C55 186.4 55.1 186.2 55.1 186.1C55.1 185.4 55.1 184.8 55 184.1C55 183.9 54.9 183.6 54.8 183.4C54.8 183.3 54.8 183.3 54.8 183.2C54.7 182.9 54.6 182.5 54.5 182.2C54.4 181.8 54.2 181.3 54 180.9C53.9 180.7 53.8 180.6 53.8 180.4C53.8 180.4 53.8 180.4 53.8 180.3C53.8 180.2 53.7 180.1 53.7 180C53.3 179.1 52.9 178.3 52.4 177.5C51.8 176.5 51.2 175.6 50.6 174.7C50.1 173.9 49.5 173.1 48.9 172.4L48.8 172.3C48.7 172 48.4 171.8 48.2 171.6C48.2 171.5 48.1 171.5 48.1 171.4C47.9 171.2 47.7 170.9 47.6 170.7C47.2 170.3 46.9 169.8 46.5 169.4C46.1 169 45.7 168.6 45.2 168.3C44.7 168 44.3 167.6 43.8 167.3C43.7 167.2 43.5 167.1 43.4 167.1C43.1 167 42.9 166.8 42.6 166.7C42.3 166.6 41.9 166.5 41.6 166.4C41.5 166.4 41.4 166.3 41.3 166.4C41.2 166.3 41 166.3 40.9 166.3H40.8C40.2 166.2 39.6 166.3 39 166.4C38.8 166.4 38.5 166.5 38.3 166.6H38.2C38 166.6 37.8 166.7 37.7 166.8C37.6 166.8 37.4 166.9 37.3 167C37 167.1 36.8 167.2 36.6 167.4C36.3 167.6 36 167.8 35.8 168C35.5 168.2 35.2 168.5 35 168.8C34.9 168.8 34.9 168.9 34.8 169C34.7 169 34.7 169.1 34.7 169.1C34.5 169.3 34.3 169.6 34.2 169.8C33.9 170.2 33.6 170.7 33.4 171.1C33.1 171.8 32.7 172.5 32.4 173.2C31.9 174.3 31.3 175.4 30.8 176.5C30.7 176.6 30.7 176.8 30.6 176.9C30.6 176.9 30.6 177 30.5 177C30.4 177.2 30.3 177.3 30.3 177.5C30.2 177.6 30.2 177.7 30.1 177.8C30 177.9 30 178.1 29.9 178.2C29.3 179.4 28.7 180.6 28.2 181.8C28.1 182.1 27.9 182.4 27.8 182.7C27.8 182.8 27.7 182.8 27.8 182.9C27.8 183 27.7 183 27.7 183.1C27.6 183.3 27.5 183.6 27.4 183.9C27.3 184.2 27.2 184.4 27.1 184.7C27 185.1 26.8 185.6 26.7 186C26.6 186.2 26.6 186.4 26.6 186.6C26.6 186.6 26.6 186.6 26.6 186.7V186.8C26.6 186.9 26.5 186.9 26.6 187C26.5 187.2 26.5 187.4 26.5 187.6C26.4 187.8 26.4 188 26.5 188.2C26.5 188.2 26.5 188.3 26.5 188.4C26.5 188.7 26.5 188.9 26.5 189.2C26.6 189.8 26.7 190.5 27 191.1C27.5 192.3 28.4 193.1 29.5 193.8C29.8 193.9 30 194.1 30.3 194.3C30.6 194.5 31 194.7 31.3 194.9C31 194.8 31.5 194.9 32.1 194.9ZM45.6 191.2C45.6 191.1 45.6 191.1 45.6 191.2C45.6 191.1 45.6 191.1 45.6 191.2C45.6 191.1 45.6 191.1 45.6 191.2ZM51.5 184.1C51.6 184.1 51.6 184 51.5 184.1C51.6 184.1 51.5 184.1 51.5 184.1ZM51.7 183.8C51.8 183.8 51.7 183.8 51.7 183.8V183.8ZM36.4 175.7C36.4 175.8 36.4 175.8 36.4 175.7C36.4 175.8 36.4 175.8 36.4 175.7C36.4 175.8 36.4 175.8 36.4 175.7ZM30.3 179.5C30.2 179.6 30.2 179.6 30.3 179.5C30.2 179.5 30.2 179.5 30.3 179.5ZM29.4 181.2C29.4 181.2 29.4 181.3 29.4 181.2C29.4 181.3 29.4 181.2 29.4 181.2Z" fill="#F7601D"/>
<path opacity="0.11" d="M58.3 194.2C57.5 194 56.8 193.8 55.9 193.9C55.5 193.9 55.1 194 54.7 194.2C54.6 194.2 54.6 194.2 54.5 194.3C54.1 194.4 53.8 194.7 53.5 194.9C53 195.1 52.6 195.4 52.3 195.9C51.8 196.5 51.5 197.2 51.5 197.9C51.5 198.2 51.5 198.6 51.7 198.9V199V199.1C51.7 199.2 51.7 199.3 51.8 199.4C51.8 199.5 51.9 199.6 51.9 199.7C52.3 200.7 52.8 201.6 53.4 202.4C54 203.2 54.6 203.9 55.3 204.5C55.7 204.9 56.2 205.2 56.7 205.5C57.2 205.8 57.7 206.1 58.2 206.4C58.4 206.5 58.6 206.6 58.9 206.7C59.2 206.8 59.4 206.9 59.7 207C59.8 207 59.9 207.1 60 207.1C60.2 207.2 60.5 207.3 60.8 207.3C60.8 207.3 60.8 207.3 60.9 207.3C61 207.3 61 207.4 61.1 207.3C61.7 207.4 62.3 207.4 63 207.3C63.2 207.3 63.4 207.2 63.6 207.1C63.8 207.1 64 207 64.1 206.9C64.2 206.9 64.2 206.9 64.2 206.8H64.3C65 206.5 65.5 206 65.9 205.3C66.3 204.7 66.5 204 66.6 203.2C66.6 202.8 66.6 202.5 66.5 202.1C66.5 202 66.5 201.9 66.5 201.9C66.5 201.8 66.5 201.7 66.4 201.6C66.4 201.5 66.4 201.4 66.3 201.3C66.1 200.7 65.8 200.1 65.5 199.6C65.5 199.5 65.4 199.5 65.4 199.5V199.4V199.3V199.2C65.4 199.2 65.4 199.1 65.3 199.1C64.7 198.3 64 197.6 63.3 196.9C63.2 196.8 63 196.6 62.9 196.6C62.9 196.6 62.8 196.6 62.8 196.5C62.8 196.4 62.7 196.4 62.6 196.4C62.5 196.3 62.4 196.2 62.2 196.1C62.2 196 62.1 196 62.1 196C61.9 195.9 61.7 195.7 61.5 195.6C61.2 195.4 60.8 195.2 60.4 195C59.6 194.7 59 194.4 58.3 194.2ZM64.4 206.8C64.3 206.9 64.3 206.9 64.4 206.8C64.3 206.9 64.3 206.9 64.4 206.8C64.3 206.8 64.3 206.9 64.4 206.8ZM63.1 204.1C63.1 204.2 63.1 204.2 63.1 204.2C63.1 204.2 63.1 204.1 63.1 204.1Z" fill="#F7601D"/>
<path opacity="0.11" d="M52.4 172C52.3 172.3 52.3 172.5 52.3 172.8C52.3 173.2 52.4 173.6 52.6 174C52.8 174.5 53.1 174.9 53.5 175.2C53.7 175.4 53.9 175.6 54.2 175.7C54.5 175.9 54.7 176.1 55 176.2C55.1 176.2 55.1 176.3 55.2 176.3C55.2 176.3 55.3 176.3 55.3 176.4C55.3 176.5 55.5 176.5 55.5 176.6C55.8 176.7 56.1 176.8 56.4 177C56.5 177 56.5 177.1 56.6 177C56.8 177.1 57 177.2 57.2 177.3C57.6 177.4 58.1 177.6 58.6 177.6C58.8 177.6 59 177.6 59.2 177.6C60.1 177.6 61 177.6 61.8 177.2C62.2 177.1 62.5 176.9 62.9 176.7C63 176.6 63.1 176.6 63.2 176.5C63.3 176.5 63.3 176.5 63.3 176.4C63.6 176.2 63.8 176.1 64 175.8C64 175.8 64.1 175.8 64.1 175.7C64.6 175.2 64.9 174.5 65.1 173.8C65.4 172.7 65.3 171.6 64.8 170.6C64.5 170 64.1 169.4 63.7 168.9C63.5 168.7 63.2 168.4 62.9 168.3C62.8 168.2 62.7 168.1 62.5 168.1C62.5 168.1 62.4 168.1 62.4 168C62.4 167.9 62.3 167.9 62.3 167.9C61.7 167.6 61.1 167.3 60.4 167.1C60.3 167.1 60.2 167 60.1 167C60 167 59.9 166.9 59.8 166.9C59.8 166.9 59.8 166.9 59.7 166.9C59.2 166.8 58.8 166.8 58.3 166.7C58.1 166.7 57.9 166.7 57.7 166.7H57.6H57.5H57.6H57.5C57.4 166.7 57.3 166.7 57.3 166.7H57.2H57.1H57C56.9 166.7 56.8 166.7 56.7 166.8H56.6H56.5H56.4H56.3H56.2H56.3H56.2C55.8 166.9 55.4 167 55 167.3C54.9 167.3 54.9 167.3 54.9 167.4H54.8C54.7 167.4 54.7 167.4 54.7 167.5H54.6H54.5C54.3 167.7 54 167.8 53.8 168.1C53.5 168.3 53.3 168.7 53 169.1C52.9 169.3 52.8 169.6 52.7 169.8C52.5 170.3 52.5 170.7 52.5 171.2C52.5 171.7 52.5 171.9 52.4 172ZM56.8 166.9C56.9 166.9 56.9 166.9 56.8 166.9C56.9 166.9 56.9 166.9 56.8 166.9ZM62 170.1C62 170.1 62.1 170.1 62 170.1C62.1 170.1 62.1 170.1 62 170.1C62 170.1 62.1 170.1 62 170.1ZM62.2 173.9C62.3 173.9 62.2 173.9 62.2 173.9V173.9ZM54.7 167.7C54.8 167.7 54.8 167.7 54.7 167.7V167.7Z" fill="#F7601D"/>
<path opacity="0.11" d="M45.7 210.5C45.8 210.5 45.9 210.6 46 210.6C46.3 210.7 46.6 210.7 47 210.7C47.2 210.7 47.3 210.7 47.4 210.6C47.5 210.6 47.7 210.6 47.8 210.5C48.3 210.4 48.8 210.1 49.2 209.8C49.6 209.5 49.8 209.1 50.1 208.7C50.1 208.6 50.2 208.6 50.2 208.5C50.3 208.2 50.4 208 50.5 207.8C50.6 207.4 50.7 207 50.7 206.6C50.7 205.7 50.5 204.9 50.2 204.1C50 203.4 49.7 202.8 49.3 202.2C49.2 202 49.1 201.8 48.9 201.7C48.9 201.7 48.9 201.6 48.8 201.6C48.6 201.4 48.5 201.2 48.3 201C48 200.6 47.6 200.3 47.2 200C47 199.8 46.8 199.7 46.6 199.5C46.3 199.1 45.9 198.9 45.4 198.7C45.2 198.6 45.1 198.6 44.9 198.6C44.5 198.5 44.2 198.4 43.8 198.5C43.7 198.5 43.6 198.5 43.5 198.5C43.1 198.5 42.8 198.7 42.5 198.9C42.3 199 42 199.1 41.9 199.3C41.8 199.3 41.8 199.4 41.7 199.4C41.3 199.8 41 200.2 40.9 200.7C40.9 200.8 40.8 200.9 40.8 201C40.7 201.2 40.6 201.4 40.6 201.6V201.7C40.4 202.7 40.3 203.7 40.5 204.7C40.6 205.1 40.6 205.5 40.8 205.8C41 206.5 41.4 207.2 41.8 207.8C41.9 208 42 208.1 42.2 208.3C42.2 208.4 42.2 208.4 42.3 208.4C42.3 208.5 42.4 208.5 42.4 208.6C42.5 208.8 42.6 208.9 42.8 209C42.8 209.1 42.9 209.1 42.9 209.1C42.9 209.2 43 209.2 43 209.2C43 209.3 43.1 209.3 43.2 209.3C43.2 209.3 43.3 209.3 43.3 209.4C43.3 209.4 43.3 209.4 43.3 209.5C43.5 209.7 43.7 209.8 44 210C44 210.1 44.1 210.1 44.1 210.1C44.7 210.1 45.2 210.4 45.7 210.5ZM41.9 199.9C41.9 199.9 41.8 200 41.9 199.9C41.8 200 41.8 199.9 41.9 199.9ZM40.8 201.3C40.8 201.2 40.8 201.2 40.8 201.3C40.8 201.2 40.8 201.2 40.8 201.3Z" fill="#F7601D"/>
</svg>
