<?xml version="1.0" encoding="utf-8"?>
<svg viewBox="214.416 95.807 15.981 16.996" xmlns="http://www.w3.org/2000/svg">
  <path fill-rule="evenodd" clip-rule="evenodd" d="M 229.592 107.578 L 228.621 110.925 L 226.715 110.394 L 229.592 107.578 Z" fill="#E4761B" stroke="#E4761B" stroke-width="0.00675677"/>
  <path fill-rule="evenodd" clip-rule="evenodd" d="M 226.715 110.392 L 228.553 107.826 L 229.592 107.578 L 226.715 110.392 Z" fill="#E4761B" stroke="#E4761B" stroke-width="0.00675677"/>
  <path fill-rule="evenodd" clip-rule="evenodd" d="M 228.16 105.052 L 229.08 104.402 L 229.589 107.576 L 228.16 105.052 Z M 228.16 105.052 L 229.589 107.576 L 228.55 107.824 L 228.16 105.052 Z" fill="#F6851B"/>
  <path d="M 228.16 105.052 L 228.14 105.024 L 228.157 105.053 L 228.16 105.052 Z M 229.08 104.402 L 229.072 104.403 L 229.078 104.399 L 229.08 104.402 Z M 229.589 107.576 L 229.592 107.574 L 229.593 107.575 L 229.589 107.576 Z M 228.16 105.052 L 228.157 105.053 L 228.156 105.052 L 228.16 105.052 Z M 229.589 107.576 L 229.586 107.564 L 229.592 107.574 L 229.589 107.576 Z M 228.55 107.824 L 228.586 107.819 L 228.551 107.827 L 228.55 107.824 Z M 228.162 105.054 L 229.082 104.405 L 229.078 104.399 L 228.158 105.049 L 228.162 105.054 Z M 229.076 104.403 L 229.586 107.577 L 229.593 107.575 L 229.083 104.402 L 229.076 104.403 Z M 229.592 107.574 L 228.163 105.05 L 228.157 105.053 L 229.586 107.578 L 229.592 107.574 Z M 228.157 105.053 L 229.586 107.578 L 229.592 107.574 L 228.163 105.05 L 228.157 105.053 Z M 229.588 107.573 L 228.549 107.82 L 228.551 107.827 L 229.59 107.579 L 229.588 107.573 Z M 228.553 107.823 L 228.163 105.051 L 228.156 105.052 L 228.547 107.824 L 228.553 107.823 Z" fill="#F6851B"/>
  <path fill-rule="evenodd" clip-rule="evenodd" d="M 229.418 103.371 L 226.989 103.144 L 229.502 102.645 L 229.418 103.371 Z M 226.989 103.144 L 229.633 102.04 L 229.502 102.645 L 226.989 103.144 Z" fill="#763D16"/>
  <path d="M 229.418 103.371 L 229.403 103.529 L 229.421 103.372 L 229.418 103.371 Z M 226.989 103.144 L 226.99 103.147 L 226.989 103.147 L 226.989 103.144 Z M 229.502 102.645 L 229.491 102.644 L 229.501 102.642 L 229.502 102.645 Z M 226.989 103.144 L 226.991 103.147 L 226.99 103.147 L 226.989 103.144 Z M 229.633 102.04 L 229.627 102.039 L 229.632 102.037 L 229.633 102.04 Z M 229.502 102.645 L 229.503 102.653 L 229.505 102.646 L 229.502 102.645 Z M 229.418 103.368 L 226.99 103.141 L 226.989 103.147 L 229.418 103.375 L 229.418 103.368 Z M 226.99 103.147 L 229.502 102.648 L 229.501 102.642 L 226.989 103.141 L 226.99 103.147 Z M 229.498 102.644 L 229.415 103.371 L 229.421 103.372 L 229.505 102.645 L 229.498 102.644 Z M 226.991 103.147 L 229.634 102.043 L 229.632 102.037 L 226.988 103.141 L 226.991 103.147 Z M 229.63 102.039 L 229.498 102.644 L 229.505 102.646 L 229.636 102.041 L 229.63 102.039 Z M 229.501 102.642 L 226.989 103.141 L 226.99 103.147 L 229.502 102.648 L 229.501 102.642 Z" fill="#763D16"/>
  <path fill-rule="evenodd" clip-rule="evenodd" d="M 229.418 103.371 L 229.502 102.645 L 229.856 102.945 L 229.418 103.371 Z M 229.948 102.296 L 229.502 102.645 L 229.633 102.04 L 229.948 102.296 Z M 229.418 103.371 L 229.08 104.402 L 226.989 103.144 L 229.418 103.371 Z" fill="#763D16"/>
  <path d="M 229.418 103.371 L 229.422 103.372 L 229.42 103.374 L 229.418 103.371 Z M 229.502 102.645 L 229.498 102.649 L 229.498 102.644 L 229.502 102.645 Z M 229.856 102.945 L 229.831 102.92 L 229.858 102.943 L 229.856 102.945 Z M 229.948 102.296 L 229.938 102.284 L 229.95 102.293 L 229.948 102.296 Z M 229.502 102.645 L 229.506 102.646 L 229.504 102.647 L 229.502 102.645 Z M 229.633 102.04 L 229.628 102.046 L 229.63 102.039 L 229.633 102.04 Z M 229.418 103.371 L 229.404 103.367 L 229.418 103.368 L 229.418 103.371 Z M 229.08 104.402 L 229.087 104.389 L 229.083 104.403 L 229.08 104.402 Z M 226.989 103.144 L 226.989 103.148 L 226.987 103.147 L 226.989 103.144 Z M 229.421 103.372 L 229.505 102.645 L 229.498 102.644 L 229.415 103.371 L 229.421 103.372 Z M 229.499 102.647 L 229.854 102.948 L 229.858 102.943 L 229.504 102.642 L 229.499 102.647 Z M 229.854 102.943 L 229.416 103.369 L 229.42 103.374 L 229.858 102.948 L 229.854 102.943 Z M 229.945 102.293 L 229.5 102.642 L 229.504 102.647 L 229.95 102.298 L 229.945 102.293 Z M 229.505 102.646 L 229.636 102.041 L 229.63 102.039 L 229.498 102.644 L 229.505 102.646 Z M 229.631 102.043 L 229.945 102.298 L 229.95 102.293 L 229.635 102.037 L 229.631 102.043 Z M 229.415 103.37 L 229.076 104.401 L 229.083 104.403 L 229.421 103.372 L 229.415 103.37 Z M 229.081 104.399 L 226.991 103.141 L 226.987 103.147 L 229.078 104.405 L 229.081 104.399 Z M 226.989 103.147 L 229.418 103.375 L 229.418 103.368 L 226.989 103.141 L 226.989 103.147 Z" fill="#763D16"/>
  <path fill-rule="evenodd" clip-rule="evenodd" d="M 224.663 109.58 L 225.325 109.794 L 226.715 110.392 L 224.663 109.58 Z" fill="#E2761B" stroke="#E2761B" stroke-width="0.00675677"/>
  <path fill-rule="evenodd" clip-rule="evenodd" d="M 229.08 104.402 L 226.336 103.481 L 226.989 103.144 L 229.08 104.402 Z M 229.08 104.402 L 229.418 103.371 L 229.709 103.599 L 229.08 104.402 Z" fill="#763D16"/>
  <path d="M 229.08 104.402 L 229.081 104.399 L 229.081 104.399 L 229.08 104.402 Z M 226.336 103.481 L 226.338 103.485 L 226.335 103.484 L 226.336 103.481 Z M 226.989 103.144 L 226.992 103.139 L 226.988 103.141 L 226.989 103.144 Z M 229.08 104.402 L 229.083 104.403 L 229.082 104.404 L 229.08 104.402 Z M 229.418 103.371 L 229.412 103.379 L 229.415 103.37 L 229.418 103.371 Z M 229.709 103.599 L 225.239 100.099 L 229.711 103.596 L 229.709 103.599 Z M 229.081 104.399 L 226.337 103.478 L 226.335 103.484 L 229.079 104.405 L 229.081 104.399 Z M 226.338 103.484 L 226.991 103.147 L 226.988 103.141 L 226.335 103.478 L 226.338 103.484 Z M 226.987 103.147 L 229.078 104.405 L 229.081 104.399 L 226.991 103.141 L 226.987 103.147 Z M 229.083 104.403 L 229.421 103.372 L 229.415 103.37 L 229.076 104.401 L 229.083 104.403 Z M 229.416 103.374 L 229.707 103.601 L 229.711 103.596 L 229.42 103.369 L 229.416 103.374 Z M 229.706 103.597 L 229.077 104.4 L 229.082 104.404 L 229.711 103.601 L 229.706 103.597 Z" fill="#763D16"/>
  <path fill-rule="evenodd" clip-rule="evenodd" d="M 227.638 99.981 L 226.987 103.141 L 226.336 103.478 L 227.638 99.981 Z" fill="#763D16" stroke="#763D16" stroke-width="0.00675677"/>
  <path fill-rule="evenodd" clip-rule="evenodd" d="M 229.63 102.04 L 226.992 103.144 L 227.644 99.981 L 229.63 102.04 Z" fill="#763D16" stroke="#763D16" stroke-width="0.00675677"/>
  <path fill-rule="evenodd" clip-rule="evenodd" d="M 227.638 99.985 L 230.397 99.662 L 229.628 102.037 L 227.638 99.985 Z" fill="#763D16" stroke="#763D16" stroke-width="0.00675677"/>
  <path fill-rule="evenodd" clip-rule="evenodd" d="M 229.083 104.4 L 228.162 105.049 L 226.336 103.478 L 229.083 104.4 Z" fill="#F6851B" stroke="#F6851B" stroke-width="0.00675677"/>
  <path fill-rule="evenodd" clip-rule="evenodd" d="M 230.277 97.378 L 230.397 99.656 L 227.638 99.981 L 230.277 97.378 Z" fill="#763D16" stroke="#763D16" stroke-width="0.00675677"/>
  <path fill-rule="evenodd" clip-rule="evenodd" d="M 230.278 97.378 L 224.767 101.472 L 224.695 98.695 L 230.278 97.378 Z" fill="#E2761B" stroke="#E2761B" stroke-width="0.00675677"/>
  <path fill-rule="evenodd" clip-rule="evenodd" d="M 220.593 98.362 L 224.697 98.696 L 224.768 101.472 L 220.593 98.362 Z" fill="#F6851B" stroke="#F6851B" stroke-width="0.00675677"/>
  <path fill-rule="evenodd" clip-rule="evenodd" d="M 226.334 103.478 L 224.768 101.466 L 227.638 99.981 L 226.334 103.478 Z" fill="#763D16" stroke="#763D16" stroke-width="0.00675677"/>
  <path fill-rule="evenodd" clip-rule="evenodd" d="M 226.34 103.478 L 228.163 105.048 L 225.603 105.336 L 226.34 103.478 Z" fill="#E4761B" stroke="#E4761B" stroke-width="0.00675677"/>
  <path fill-rule="evenodd" clip-rule="evenodd" d="M 225.6 105.336 L 224.768 101.472 L 226.336 103.481 L 225.6 105.336 Z" fill="#E4761B" stroke="#E4761B" stroke-width="0.00675677"/>
  <path fill-rule="evenodd" clip-rule="evenodd" d="M 227.64 99.984 L 224.768 101.472 L 230.278 97.378 L 227.64 99.984 Z" fill="#763D16" stroke="#763D16" stroke-width="0.00675677"/>
  <path fill-rule="evenodd" clip-rule="evenodd" d="M 220.632 110.331 L 221.928 111.71 L 220.165 110.072 L 220.632 110.331 Z" fill="#C0AD9E" stroke="#C0AD9E" stroke-width="0.00675677"/>
  <path fill-rule="evenodd" clip-rule="evenodd" d="M 226.715 110.392 L 227.332 108.002 L 228.554 107.823 L 226.715 110.392 Z" fill="#CD6116" stroke="#CD6116" stroke-width="0.00675677"/>
  <path fill-rule="evenodd" clip-rule="evenodd" d="M 215.355 103.672 L 217.602 101.252 L 215.645 103.383 L 215.355 103.672 Z" fill="#E2761B" stroke="#E2761B" stroke-width="0.00675677"/>
  <path fill-rule="evenodd" clip-rule="evenodd" d="M 224.767 101.468 L 222.573 101.395 L 220.594 98.363 L 224.767 101.468 Z M 228.55 107.824 L 227.328 108.002 L 228.16 105.052 L 228.55 107.824 Z" fill="#F6851B"/>
  <path d="M 224.767 101.468 L 224.767 101.464 L 224.769 101.465 L 224.767 101.468 Z M 222.573 101.395 L 222.568 101.398 L 222.573 101.398 L 222.573 101.395 Z M 220.594 98.363 L 220.592 98.366 L 220.592 98.365 L 220.594 98.363 Z M 228.55 107.824 L 228.644 108.465 L 228.553 107.823 L 228.55 107.824 Z M 227.328 108.002 L 227.336 108.004 L 227.328 108.005 L 227.328 108.002 Z M 228.16 105.052 L 228.156 105.052 L 228.157 105.051 L 228.16 105.052 Z M 224.767 101.464 L 222.574 101.391 L 222.573 101.398 L 224.767 101.471 L 224.767 101.464 Z M 222.576 101.393 L 220.597 98.361 L 220.592 98.365 L 222.571 101.397 L 222.576 101.393 Z M 220.592 98.366 L 224.765 101.471 L 224.769 101.465 L 220.596 98.36 L 220.592 98.366 Z M 228.55 107.82 L 227.327 107.999 L 227.328 108.005 L 228.55 107.827 L 228.55 107.82 Z M 227.331 108.003 L 228.163 105.052 L 228.157 105.051 L 227.324 108.001 L 227.331 108.003 Z M 228.156 105.052 L 228.547 107.824 L 228.553 107.823 L 228.163 105.051 L 228.156 105.052 Z" fill="#F6851B"/>
  <path fill-rule="evenodd" clip-rule="evenodd" d="M 228.163 105.049 L 227.331 108.001 L 227.264 106.56 L 228.163 105.049 Z" fill="#E4751F" stroke="#E4751F" stroke-width="0.00675677"/>
  <path fill-rule="evenodd" clip-rule="evenodd" d="M 225.603 105.338 L 228.163 105.049 L 227.263 106.559 L 225.603 105.338 Z" fill="#CD6116" stroke="#CD6116" stroke-width="0.00675677"/>
  <path fill-rule="evenodd" clip-rule="evenodd" d="M 222.571 101.396 L 224.769 101.469 L 225.603 105.336 L 222.571 101.396 Z" fill="#F6851B" stroke="#F6851B" stroke-width="0.00675677"/>
  <path fill-rule="evenodd" clip-rule="evenodd" d="M 220.591 111.176 L 215.446 112.799 L 214.419 108.802 L 220.591 111.176 Z M 222.573 101.395 L 216.653 95.81 L 220.594 98.363 L 222.573 101.395 Z" fill="#E4761B"/>
  <path d="M 220.591 111.176 L 220.589 111.172 L 220.592 111.173 L 220.591 111.176 Z M 215.446 112.799 L 215.507 112.784 L 215.447 112.803 L 215.446 112.799 Z M 214.419 108.802 L 214.417 108.807 L 214.416 108.803 L 214.419 108.802 Z M 222.573 101.395 L 222.576 101.392 L 222.576 101.393 L 222.573 101.395 Z M 216.653 95.81 L 216.651 95.813 L 216.65 95.813 L 216.653 95.81 Z M 220.594 98.363 L 220.598 98.361 L 220.596 98.36 L 220.594 98.363 Z M 220.589 111.173 L 215.445 112.796 L 215.447 112.803 L 220.592 111.179 L 220.589 111.173 Z M 215.449 112.799 L 214.422 108.801 L 214.416 108.803 L 215.443 112.8 L 215.449 112.799 Z M 214.418 108.805 L 220.589 111.179 L 220.592 111.173 L 214.42 108.799 L 214.418 108.805 Z M 222.576 101.392 L 216.655 95.808 L 216.65 95.813 L 222.571 101.397 L 222.576 101.392 Z M 216.651 95.813 L 220.593 98.366 L 220.596 98.36 L 216.654 95.807 L 216.651 95.813 Z M 220.592 98.365 L 222.571 101.397 L 222.576 101.393 L 220.597 98.361 L 220.592 98.365 Z" fill="#E4761B"/>
  <path fill-rule="evenodd" clip-rule="evenodd" d="M 216.114 104.668 L 218.058 103.109 L 219.687 103.496 L 216.114 104.668 Z" fill="#763D16" stroke="#763D16" stroke-width="0.00675677"/>
  <path fill-rule="evenodd" clip-rule="evenodd" d="M 219.687 103.501 L 218.06 103.115 L 218.931 99.442 L 219.687 103.501 Z" fill="#763D16" stroke="#763D16" stroke-width="0.00675677"/>
  <path fill-rule="evenodd" clip-rule="evenodd" d="M 215.646 103.378 L 218.06 103.109 L 216.119 104.668 L 215.646 103.378 Z" fill="#763D16" stroke="#763D16" stroke-width="0.00675677"/>
  <path fill-rule="evenodd" clip-rule="evenodd" d="M 227.264 106.559 L 226.26 106.043 L 225.603 105.336 L 227.264 106.559 Z" fill="#CD6116" stroke="#CD6116" stroke-width="0.00675677"/>
  <path fill-rule="evenodd" clip-rule="evenodd" d="M 215.645 103.375 L 215.474 102.463 L 218.06 103.11 L 215.645 103.375 Z" fill="#763D16" stroke="#763D16" stroke-width="0.00675677"/>
  <path fill-rule="evenodd" clip-rule="evenodd" d="M 226.053 107.21 L 226.26 106.048 L 227.264 106.564 L 226.053 107.21 Z" fill="#233447" stroke="#233447" stroke-width="0.00675677"/>
  <path fill-rule="evenodd" clip-rule="evenodd" d="M 227.329 108.001 L 226.053 107.205 L 227.261 106.559 L 227.329 108.001 Z" fill="#F6851B" stroke="#F6851B" stroke-width="0.00675677"/>
  <path fill-rule="evenodd" clip-rule="evenodd" d="M 218.93 99.443 L 222.573 101.395 L 219.687 103.497 L 218.93 99.443 Z M 218.93 99.443 L 218.058 103.112 L 215.259 101.683 L 218.93 99.443 Z M 218.058 103.112 L 215.47 102.458 L 215.259 101.683 L 218.058 103.112 Z" fill="#763D16"/>
  <path d="M 218.93 99.443 L 218.928 99.447 L 218.927 99.443 L 218.93 99.443 Z M 222.573 101.395 L 222.569 101.389 L 222.575 101.392 L 222.573 101.395 Z M 219.687 103.497 L 219.694 103.496 L 219.689 103.5 L 219.687 103.497 Z M 218.93 99.443 L 218.926 99.442 L 218.928 99.44 L 218.93 99.443 Z M 218.058 103.112 L 218.065 103.099 L 218.061 103.112 L 218.058 103.112 Z M 215.259 101.683 L 215.262 101.688 L 215.257 101.686 L 215.259 101.683 Z M 218.058 103.112 L 218.059 103.108 L 218.06 103.109 L 218.058 103.112 Z M 215.47 102.458 L 215.463 102.46 L 215.469 102.461 L 215.47 102.458 Z M 215.259 101.683 L 215.257 101.687 L 215.256 101.684 L 215.259 101.683 Z M 218.929 99.446 L 222.572 101.398 L 222.575 101.392 L 218.932 99.44 L 218.929 99.446 Z M 222.571 101.392 L 219.685 103.494 L 219.689 103.5 L 222.575 101.398 L 222.571 101.392 Z M 219.69 103.497 L 218.934 99.442 L 218.927 99.443 L 219.683 103.498 L 219.69 103.497 Z M 218.927 99.442 L 218.055 103.111 L 218.061 103.112 L 218.933 99.443 L 218.927 99.442 Z M 218.06 103.109 L 215.261 101.68 L 215.257 101.686 L 218.057 103.115 L 218.06 103.109 Z M 215.261 101.686 L 218.932 99.446 L 218.928 99.44 L 215.257 101.68 L 215.261 101.686 Z M 218.059 103.108 L 215.471 102.455 L 215.469 102.461 L 218.057 103.115 L 218.059 103.108 Z M 215.473 102.457 L 215.262 101.682 L 215.256 101.684 L 215.467 102.459 L 215.473 102.457 Z M 215.257 101.686 L 218.057 103.115 L 218.06 103.109 L 215.261 101.68 L 215.257 101.686 Z" fill="#763D16"/>
  <path fill-rule="evenodd" clip-rule="evenodd" d="M 223.859 105.401 L 219.87 105.315 L 219.687 103.497 L 223.859 105.401 Z M 219.687 103.497 L 222.573 101.395 L 223.859 105.401 L 219.687 103.497 Z" fill="#E4761B"/>
  <path d="M 223.859 105.401 L 223.86 105.397 L 223.861 105.398 L 223.859 105.401 Z M 219.87 105.315 L 219.842 105.318 L 219.87 105.319 L 219.87 105.315 Z M 219.687 103.497 L 219.684 103.503 L 219.683 103.497 L 219.687 103.497 Z M 219.687 103.497 L 219.691 103.503 L 219.685 103.5 L 219.687 103.497 Z M 222.573 101.395 L 222.563 101.398 L 222.571 101.392 L 222.573 101.395 Z M 223.859 105.401 L 223.862 105.396 L 223.863 105.4 L 223.859 105.401 Z M 223.86 105.397 L 219.87 105.312 L 219.87 105.319 L 223.859 105.404 L 223.86 105.397 Z M 219.873 105.315 L 219.69 103.497 L 219.683 103.497 L 219.866 105.316 L 219.873 105.315 Z M 219.685 103.5 L 223.858 105.404 L 223.861 105.398 L 219.688 103.494 L 219.685 103.5 Z M 219.689 103.5 L 222.575 101.398 L 222.571 101.392 L 219.685 103.494 L 219.689 103.5 Z M 222.57 101.396 L 223.856 105.402 L 223.863 105.4 L 222.577 101.394 L 222.57 101.396 Z M 223.861 105.398 L 219.688 103.494 L 219.685 103.5 L 223.858 105.404 L 223.861 105.398 Z" fill="#E4761B"/>
  <path fill-rule="evenodd" clip-rule="evenodd" d="M 225.599 105.34 L 223.859 105.401 L 222.573 101.395 L 225.599 105.34 Z M 216.115 104.666 L 219.687 103.497 L 219.87 105.315 L 216.115 104.666 Z" fill="#F6851B"/>
  <path d="M 225.599 105.34 L 225.599 105.334 L 225.602 105.338 L 225.599 105.34 Z M 223.859 105.401 L 223.848 105.404 L 223.86 105.404 L 223.859 105.401 Z M 222.573 101.395 L 222.571 101.397 L 222.57 101.396 L 222.573 101.395 Z M 216.115 104.666 L 216.116 104.67 L 216.114 104.669 L 216.115 104.666 Z M 219.687 103.497 L 219.671 103.499 L 219.686 103.494 L 219.687 103.497 Z M 219.87 105.315 L 219.872 105.303 L 219.873 105.315 L 219.87 105.315 Z M 225.599 105.336 L 223.859 105.397 L 223.86 105.404 L 225.6 105.343 L 225.599 105.336 Z M 223.863 105.4 L 222.577 101.394 L 222.57 101.396 L 223.856 105.402 L 223.863 105.4 Z M 222.571 101.397 L 225.597 105.342 L 225.602 105.338 L 222.576 101.393 L 222.571 101.397 Z M 216.116 104.669 L 219.688 103.5 L 219.686 103.494 L 216.114 104.663 L 216.116 104.669 Z M 219.683 103.497 L 219.866 105.316 L 219.873 105.315 L 219.69 103.497 L 219.683 103.497 Z M 219.87 105.312 L 216.116 104.663 L 216.114 104.669 L 219.869 105.319 L 219.87 105.312 Z" fill="#F6851B"/>
  <path fill-rule="evenodd" clip-rule="evenodd" d="M 226.257 106.045 L 226.051 107.21 L 225.603 105.336 L 226.257 106.045 Z" fill="#CD6116" stroke="#CD6116" stroke-width="0.00675677"/>
  <path fill-rule="evenodd" clip-rule="evenodd" d="M 216.649 95.807 L 222.571 101.396 L 218.927 99.442 L 216.649 95.807 Z" fill="#763D16" stroke="#763D16" stroke-width="0.00675677"/>
  <path fill-rule="evenodd" clip-rule="evenodd" d="M 214.421 108.799 L 219.416 108.588 L 220.595 111.178 L 214.421 108.799 Z" fill="#E4761B" stroke="#E4761B" stroke-width="0.00675677"/>
  <path fill-rule="evenodd" clip-rule="evenodd" d="M 220.587 111.178 L 219.408 108.586 L 221.863 108.464 L 220.587 111.178 Z" fill="#CD6116" stroke="#CD6116" stroke-width="0.00675677"/>
  <path fill-rule="evenodd" clip-rule="evenodd" d="M 224.349 106.643 L 223.86 105.401 L 225.6 105.34 L 224.349 106.643 Z M 225.6 105.34 L 225.926 106.549 L 224.349 106.643 L 225.6 105.34 Z M 219.412 108.591 L 214.419 108.802 L 219.87 105.315 L 219.412 108.591 Z M 219.87 105.315 L 214.419 108.802 L 216.115 104.666 L 219.87 105.315 Z M 226.049 107.207 L 227.328 108.002 L 228.032 109.695 L 226.049 107.207 Z" fill="#F6851B"/>
  <path d="M 224.349 106.643 L 224.357 106.64 L 224.352 106.645 L 224.349 106.643 Z M 223.86 105.401 L 223.86 105.411 L 223.856 105.402 L 223.86 105.401 Z M 225.6 105.34 L 225.596 105.336 L 225.599 105.336 L 225.6 105.34 Z M 225.6 105.34 L 225.593 105.341 L 225.597 105.337 L 225.6 105.34 Z M 225.926 106.549 L 225.925 106.533 L 225.929 106.548 L 225.926 106.549 Z M 224.349 106.643 L 224.353 106.646 L 224.349 106.646 L 224.349 106.643 Z M 219.412 108.591 L 219.413 108.609 L 219.415 108.591 L 219.412 108.591 Z M 214.419 108.802 L 214.421 108.805 L 214.419 108.805 L 214.419 108.802 Z M 219.87 105.315 L 219.865 105.315 L 219.868 105.313 L 219.87 105.315 Z M 219.87 105.315 L 219.867 105.312 L 219.87 105.312 L 219.87 105.315 Z M 214.419 108.802 L 214.423 108.803 L 214.421 108.805 L 214.419 108.802 Z M 216.115 104.666 L 216.118 104.651 L 216.112 104.665 L 216.115 104.666 Z M 226.049 107.207 L 226.048 107.21 L 226.047 107.209 L 226.049 107.207 Z M 227.328 108.002 L 227.331 108.001 L 227.329 107.999 L 227.328 108.002 Z M 228.032 109.695 L 228.035 109.692 L 228.036 109.693 L 228.032 109.695 Z M 224.352 106.641 L 223.863 105.399 L 223.856 105.402 L 224.346 106.644 L 224.352 106.641 Z M 223.86 105.404 L 225.6 105.343 L 225.599 105.336 L 223.859 105.397 L 223.86 105.404 Z M 225.597 105.337 L 224.347 106.64 L 224.352 106.645 L 225.602 105.342 L 225.597 105.337 Z M 225.596 105.341 L 225.923 106.55 L 225.929 106.548 L 225.603 105.339 L 225.596 105.341 Z M 225.926 106.546 L 224.349 106.639 L 224.349 106.646 L 225.926 106.553 L 225.926 106.546 Z M 224.352 106.645 L 225.602 105.342 L 225.597 105.337 L 224.347 106.64 L 224.352 106.645 Z M 219.412 108.587 L 214.419 108.798 L 214.419 108.805 L 219.412 108.594 L 219.412 108.587 Z M 214.421 108.805 L 219.872 105.318 L 219.868 105.313 L 214.417 108.799 L 214.421 108.805 Z M 219.866 105.315 L 219.409 108.59 L 219.415 108.591 L 219.873 105.316 L 219.866 105.315 Z M 219.868 105.313 L 214.417 108.799 L 214.421 108.805 L 219.872 105.318 L 219.868 105.313 Z M 214.422 108.803 L 216.118 104.667 L 216.112 104.665 L 214.416 108.8 L 214.422 108.803 Z M 216.114 104.669 L 219.869 105.319 L 219.87 105.312 L 216.116 104.663 L 216.114 104.669 Z M 226.048 107.21 L 227.326 108.005 L 227.329 107.999 L 226.051 107.204 L 226.048 107.21 Z M 227.325 108.003 L 228.029 109.696 L 228.036 109.693 L 227.331 108.001 L 227.325 108.003 Z M 228.035 109.692 L 226.052 107.205 L 226.047 107.209 L 228.03 109.697 L 228.035 109.692 Z" fill="#F6851B"/>
  <path fill-rule="evenodd" clip-rule="evenodd" d="M 221.936 111.714 L 220.595 111.178 L 225.258 111.977 L 221.936 111.714 Z" fill="#C0AD9E" stroke="#C0AD9E" stroke-width="0.00675677"/>
  <path fill-rule="evenodd" clip-rule="evenodd" d="M 216.114 104.668 L 215.355 103.665 L 215.643 103.375 L 216.114 104.668 Z" fill="#763D16" stroke="#763D16" stroke-width="0.00675677"/>
  <path fill-rule="evenodd" clip-rule="evenodd" d="M 225.787 111.385 L 225.258 111.977 L 220.595 111.178 L 225.787 111.385 Z" fill="#D7C1B3" stroke="#D7C1B3" stroke-width="0.00675677"/>
  <path fill-rule="evenodd" clip-rule="evenodd" d="M 226.039 109.929 L 220.595 111.178 L 221.868 108.464 L 226.039 109.929 Z" fill="#E4761B" stroke="#E4761B" stroke-width="0.00675677"/>
  <path fill-rule="evenodd" clip-rule="evenodd" d="M 220.595 111.175 L 226.039 109.926 L 225.788 111.382 L 220.595 111.175 Z" fill="#D7C1B3" stroke="#D7C1B3" stroke-width="0.00675677"/>
  <path fill-rule="evenodd" clip-rule="evenodd" d="M 215.641 103.379 L 215.112 102.832 L 215.47 102.458 L 215.641 103.379 Z M 215.259 101.683 L 215.08 98.562 L 218.93 99.443 L 215.259 101.683 Z" fill="#763D16"/>
  <path d="M 215.641 103.379 L 215.644 103.377 L 215.645 103.379 L 215.641 103.379 Z M 215.112 102.832 L 215.047 102.769 L 215.109 102.834 L 215.112 102.832 Z M 215.47 102.458 L 215.464 102.459 L 215.468 102.456 L 215.47 102.458 Z M 215.259 101.683 L 215.266 101.683 L 215.261 101.686 L 215.259 101.683 Z M 215.08 98.562 L 215.077 98.574 L 215.076 98.562 L 215.08 98.562 Z M 218.93 99.443 L 218.928 99.439 L 218.931 99.439 L 218.93 99.443 Z M 215.644 103.377 L 215.114 102.829 L 215.109 102.834 L 215.639 103.382 L 215.644 103.377 Z M 215.114 102.834 L 215.472 102.46 L 215.468 102.456 L 215.109 102.829 L 215.114 102.834 Z M 215.467 102.459 L 215.638 103.38 L 215.645 103.379 L 215.473 102.458 L 215.467 102.459 Z M 215.262 101.683 L 215.083 98.562 L 215.076 98.562 L 215.256 101.683 L 215.262 101.683 Z M 215.079 98.565 L 218.929 99.446 L 218.931 99.439 L 215.081 98.559 L 215.079 98.565 Z M 218.928 99.44 L 215.257 101.68 L 215.261 101.686 L 218.932 99.446 L 218.928 99.44 Z" fill="#763D16"/>
  <path fill-rule="evenodd" clip-rule="evenodd" d="M 222.969 106.203 L 223.863 105.398 L 223.735 107.366 L 222.969 106.203 Z" fill="#CD6116" stroke="#CD6116" stroke-width="0.00675677"/>
  <path fill-rule="evenodd" clip-rule="evenodd" d="M 223.863 105.398 L 222.971 106.201 L 221.673 106.887 L 223.863 105.398 Z" fill="#CD6116" stroke="#CD6116" stroke-width="0.00675677"/>
  <path fill-rule="evenodd" clip-rule="evenodd" d="M 228.028 109.695 L 227.786 109.513 L 226.053 107.21 L 228.028 109.695 Z" fill="#F6851B" stroke="#F6851B" stroke-width="0.00675677"/>
  <path fill-rule="evenodd" clip-rule="evenodd" d="M 221.673 106.887 L 219.873 105.317 L 223.863 105.402 L 221.673 106.887 Z" fill="#CD6116" stroke="#CD6116" stroke-width="0.00675677"/>
  <path fill-rule="evenodd" clip-rule="evenodd" d="M 223.728 107.366 L 223.857 105.398 L 224.352 106.642 L 223.728 107.366 Z" fill="#E4751F" stroke="#E4751F" stroke-width="0.00675677"/>
  <path fill-rule="evenodd" clip-rule="evenodd" d="M 214.936 101.993 L 215.261 101.682 L 215.474 102.463 L 214.936 101.993 Z" fill="#763D16" stroke="#763D16" stroke-width="0.00675677"/>
  <path fill-rule="evenodd" clip-rule="evenodd" d="M 223.728 107.366 L 221.673 106.891 L 222.966 106.205 L 223.728 107.366 Z" fill="#233447" stroke="#233447" stroke-width="0.00675677"/>
  <path fill-rule="evenodd" clip-rule="evenodd" d="M 218.934 99.442 L 215.083 98.56 L 216.656 95.807 L 218.934 99.442 Z" fill="#763D16" stroke="#763D16" stroke-width="0.00675677"/>
  <path fill-rule="evenodd" clip-rule="evenodd" d="M 225.257 111.974 L 225.476 112.585 L 221.928 111.71 L 225.257 111.974 Z" fill="#C0AD9E" stroke="#C0AD9E" stroke-width="0.00675677"/>
  <path fill-rule="evenodd" clip-rule="evenodd" d="M 221.867 108.464 L 221.673 106.887 L 223.728 107.361 L 221.867 108.464 Z" fill="#F6851B" stroke="#F6851B" stroke-width="0.00675677"/>
  <path fill-rule="evenodd" clip-rule="evenodd" d="M 219.873 105.317 L 221.668 106.889 L 221.863 108.464 L 219.873 105.317 Z" fill="#E4751F" stroke="#E4751F" stroke-width="0.00675677"/>
  <path fill-rule="evenodd" clip-rule="evenodd" d="M 219.87 105.315 L 221.865 108.469 L 219.412 108.591 L 219.87 105.315 Z M 224.349 106.643 L 225.926 106.549 L 227.789 109.512 L 224.349 106.643 Z" fill="#F6851B"/>
  <path d="M 219.87 105.315 L 219.866 105.318 L 219.866 105.315 L 219.87 105.315 Z M 221.865 108.469 L 221.864 108.462 L 221.867 108.467 L 221.865 108.469 Z M 219.412 108.591 L 219.43 108.593 L 219.412 108.594 L 219.412 108.591 Z M 224.349 106.643 L 224.349 106.647 L 224.347 106.645 L 224.349 106.643 Z M 225.926 106.549 L 225.932 106.545 L 225.926 106.546 L 225.926 106.549 Z M 227.789 109.512 L 227.792 109.509 L 227.792 109.51 L 227.789 109.512 Z M 219.867 105.317 L 221.862 108.471 L 221.867 108.467 L 219.873 105.314 L 219.867 105.317 Z M 221.864 108.465 L 219.412 108.587 L 219.412 108.594 L 221.865 108.472 L 221.864 108.465 Z M 219.415 108.591 L 219.873 105.316 L 219.866 105.315 L 219.408 108.59 L 219.415 108.591 Z M 224.349 106.646 L 225.926 106.553 L 225.926 106.546 L 224.349 106.639 L 224.349 106.646 Z M 225.923 106.551 L 227.787 109.514 L 227.792 109.51 L 225.929 106.547 L 225.923 106.551 Z M 227.792 109.509 L 224.351 106.64 L 224.347 106.645 L 227.787 109.515 L 227.792 109.509 Z" fill="#F6851B"/>
  <path fill-rule="evenodd" clip-rule="evenodd" d="M 224.347 106.641 L 226.31 109.681 L 223.728 107.364 L 224.347 106.641 Z" fill="#E4751F" stroke="#E4751F" stroke-width="0.00675677"/>
  <path fill-rule="evenodd" clip-rule="evenodd" d="M 223.728 107.366 L 226.31 109.679 L 226.039 109.926 L 223.728 107.366 Z" fill="#F6851B" stroke="#F6851B" stroke-width="0.00675677"/>
  <path fill-rule="evenodd" clip-rule="evenodd" d="M 227.79 109.512 L 226.308 109.682 L 224.349 106.643 L 227.79 109.512 Z M 226.038 109.93 L 221.865 108.469 L 223.732 107.365 L 226.038 109.93 Z" fill="#F6851B"/>
  <path d="M 227.79 109.512 L 227.789 109.507 L 227.792 109.509 L 227.79 109.512 Z M 226.308 109.682 L 226.302 109.687 L 226.309 109.686 L 226.308 109.682 Z M 224.349 106.643 L 224.347 106.645 L 224.346 106.644 L 224.349 106.643 Z M 226.038 109.93 L 226.039 109.926 L 226.04 109.928 L 226.038 109.93 Z M 221.865 108.469 L 221.867 108.473 L 221.864 108.472 L 221.865 108.469 Z M 223.732 107.365 L 223.745 107.353 L 223.73 107.362 L 223.732 107.365 Z M 227.789 109.509 L 226.308 109.679 L 226.309 109.686 L 227.79 109.515 L 227.789 109.509 Z M 226.311 109.681 L 224.352 106.641 L 224.346 106.644 L 226.306 109.684 L 226.311 109.681 Z M 224.347 106.645 L 227.787 109.515 L 227.792 109.509 L 224.351 106.64 L 224.347 106.645 Z M 226.039 109.927 L 221.866 108.466 L 221.864 108.472 L 226.036 109.933 L 226.039 109.927 Z M 221.866 108.472 L 223.734 107.368 L 223.73 107.362 L 221.863 108.466 L 221.866 108.472 Z M 223.73 107.367 L 226.035 109.932 L 226.04 109.928 L 223.735 107.363 L 223.73 107.367 Z" fill="#F6851B"/>
  <path fill-rule="evenodd" clip-rule="evenodd" d="M 225.476 112.584 L 225.257 111.975 L 225.787 111.383 L 225.476 112.584 Z M 228.18 110.941 L 227.543 112.243 L 225.476 112.584 L 228.18 110.941 Z" fill="#C0AD9E"/>
  <path d="M 225.476 112.584 L 225.48 112.583 L 225.479 112.585 L 225.476 112.584 Z M 225.257 111.975 L 225.252 111.971 L 225.254 111.977 L 225.257 111.975 Z M 225.787 111.383 L 225.783 111.382 L 225.784 111.381 L 225.787 111.383 Z M 228.18 110.941 L 228.176 110.939 L 228.178 110.938 L 228.18 110.941 Z M 227.543 112.243 L 227.544 112.249 L 227.546 112.245 L 227.543 112.243 Z M 225.476 112.584 L 225.478 112.587 L 225.477 112.588 L 225.476 112.584 Z M 225.479 112.583 L 225.26 111.974 L 225.254 111.977 L 225.473 112.585 L 225.479 112.583 Z M 225.26 111.978 L 225.789 111.385 L 225.784 111.381 L 225.255 111.973 L 225.26 111.978 Z M 225.783 111.382 L 225.473 112.583 L 225.479 112.585 L 225.79 111.384 L 225.783 111.382 Z M 228.177 110.939 L 227.54 112.242 L 227.546 112.245 L 228.183 110.942 L 228.177 110.939 Z M 227.542 112.24 L 225.476 112.581 L 225.477 112.588 L 227.543 112.247 L 227.542 112.24 Z M 225.478 112.587 L 228.181 110.943 L 228.178 110.938 L 225.474 112.581 L 225.478 112.587 Z" fill="#C0AD9E"/>
  <path fill-rule="evenodd" clip-rule="evenodd" d="M 225.476 112.584 L 226.177 111.225 L 228.18 110.941 L 225.476 112.584 Z M 225.787 111.383 L 226.177 111.225 L 225.476 112.584 L 225.787 111.383 Z" fill="#C0AD9E"/>
  <path d="M 225.476 112.584 L 225.48 112.586 L 225.478 112.587 L 225.476 112.584 Z M 226.177 111.225 L 226.176 111.219 L 226.174 111.223 L 226.177 111.225 Z M 228.18 110.941 L 228.178 110.937 L 228.179 110.937 L 228.18 110.941 Z M 225.787 111.383 L 225.785 111.378 L 225.783 111.382 L 225.787 111.383 Z M 226.177 111.225 L 226.173 111.223 L 226.176 111.221 L 226.177 111.225 Z M 225.476 112.584 L 225.479 112.585 L 225.479 112.586 L 225.476 112.584 Z M 225.479 112.586 L 226.18 111.226 L 226.174 111.223 L 225.473 112.583 L 225.479 112.586 Z M 226.177 111.228 L 228.18 110.944 L 228.179 110.937 L 226.176 111.221 L 226.177 111.228 Z M 228.178 110.938 L 225.474 112.581 L 225.478 112.587 L 228.181 110.943 L 228.178 110.938 Z M 225.788 111.386 L 226.178 111.228 L 226.176 111.221 L 225.785 111.38 L 225.788 111.386 Z M 226.174 111.223 L 225.473 112.583 L 225.479 112.586 L 226.18 111.226 L 226.174 111.223 Z M 225.479 112.585 L 225.79 111.384 L 225.783 111.382 L 225.473 112.583 L 225.479 112.585 Z" fill="#C0AD9E"/>
  <path fill-rule="evenodd" clip-rule="evenodd" d="M 227.793 109.51 L 228.282 109.813 L 226.794 109.994 L 227.793 109.51 Z" fill="#161616" stroke="#161616" stroke-width="0.00675677"/>
  <path fill-rule="evenodd" clip-rule="evenodd" d="M 226.619 110.238 L 228.431 110.015 L 228.18 110.941 L 226.619 110.238 Z M 226.79 109.999 L 226.308 109.682 L 227.79 109.512 L 226.79 109.999 Z" fill="#161616"/>
  <path d="M 226.619 110.238 L 226.619 110.242 L 226.618 110.241 L 226.619 110.238 Z M 228.431 110.015 L 228.422 110.013 L 228.43 110.012 L 228.431 110.015 Z M 228.18 110.941 L 228.189 110.921 L 228.183 110.941 L 228.18 110.941 Z M 226.79 109.999 L 226.786 110.004 L 226.792 110.002 L 226.79 109.999 Z M 226.308 109.682 L 226.309 109.687 L 226.306 109.685 L 226.308 109.682 Z M 227.79 109.512 L 227.788 109.509 L 227.789 109.509 L 227.79 109.512 Z M 226.619 110.242 L 228.431 110.019 L 228.43 110.012 L 226.618 110.235 L 226.619 110.242 Z M 228.427 110.014 L 228.176 110.94 L 228.183 110.941 L 228.434 110.016 L 228.427 110.014 Z M 228.181 110.937 L 226.62 110.235 L 226.618 110.241 L 228.178 110.944 L 228.181 110.937 Z M 226.792 109.996 L 226.31 109.68 L 226.306 109.685 L 226.788 110.002 L 226.792 109.996 Z M 226.309 109.686 L 227.79 109.515 L 227.789 109.509 L 226.308 109.679 L 226.309 109.686 Z M 227.788 109.509 L 226.789 109.996 L 226.792 110.002 L 227.791 109.515 L 227.788 109.509 Z" fill="#161616"/>
  <path fill-rule="evenodd" clip-rule="evenodd" d="M 228.279 109.816 L 228.431 110.015 L 226.619 110.238 L 228.279 109.816 Z M 226.038 109.93 L 226.308 109.682 L 226.79 109.999 L 226.038 109.93 Z M 226.177 111.225 L 225.787 111.383 L 226.038 109.93 L 226.177 111.225 Z M 228.18 110.941 L 226.177 111.225 L 226.619 110.238 L 228.18 110.941 Z" fill="#161616"/>
  <path d="M 228.279 109.816 L 228.286 109.811 L 228.278 109.813 L 228.279 109.816 Z M 228.431 110.015 L 228.43 110.009 L 228.433 110.013 L 228.431 110.015 Z M 226.619 110.238 L 226.62 110.242 L 226.619 110.242 L 226.619 110.238 Z M 226.038 109.93 L 226.041 109.934 L 226.037 109.933 L 226.038 109.93 Z M 226.308 109.682 L 226.316 109.671 L 226.306 109.68 L 226.308 109.682 Z M 226.79 109.999 L 226.79 109.995 L 226.792 109.996 L 226.79 109.999 Z M 226.177 111.225 L 226.182 111.236 L 226.18 111.224 L 226.177 111.225 Z M 225.787 111.383 L 225.793 111.384 L 225.788 111.386 L 225.787 111.383 Z M 226.038 109.93 L 226.034 109.93 L 226.034 109.929 L 226.038 109.93 Z M 228.18 110.941 L 228.179 110.937 L 228.181 110.937 L 228.18 110.941 Z M 226.177 111.225 L 226.183 111.227 L 226.177 111.228 L 226.177 111.225 Z M 226.619 110.238 L 225.638 112.42 L 226.616 110.237 L 226.619 110.238 Z M 228.277 109.818 L 228.428 110.017 L 228.433 110.013 L 228.282 109.814 L 228.277 109.818 Z M 228.43 110.012 L 226.618 110.235 L 226.619 110.242 L 228.431 110.019 L 228.43 110.012 Z M 226.62 110.242 L 228.28 109.82 L 228.278 109.813 L 226.618 110.235 L 226.62 110.242 Z M 226.04 109.932 L 226.311 109.685 L 226.306 109.68 L 226.035 109.927 L 226.04 109.932 Z M 226.306 109.685 L 226.788 110.002 L 226.792 109.996 L 226.31 109.68 L 226.306 109.685 Z M 226.79 109.996 L 226.038 109.927 L 226.037 109.933 L 226.79 110.002 L 226.79 109.996 Z M 226.176 111.221 L 225.785 111.38 L 225.788 111.386 L 226.178 111.228 L 226.176 111.221 Z M 225.79 111.383 L 226.041 109.931 L 226.034 109.929 L 225.783 111.382 L 225.79 111.383 Z M 226.034 109.93 L 226.174 111.225 L 226.18 111.224 L 226.041 109.93 L 226.034 109.93 Z M 228.179 110.937 L 226.176 111.221 L 226.177 111.228 L 228.18 110.944 L 228.179 110.937 Z M 226.18 111.226 L 226.622 110.24 L 226.616 110.237 L 226.174 111.223 L 226.18 111.226 Z M 226.618 110.241 L 228.178 110.944 L 228.181 110.937 L 226.62 110.235 L 226.618 110.241 Z" fill="#161616"/>
  <path fill-rule="evenodd" clip-rule="evenodd" d="M 226.038 109.93 L 226.619 110.238 L 226.177 111.225 L 226.038 109.93 Z M 226.619 110.238 L 226.79 109.999 L 228.279 109.816 L 226.619 110.238 Z" fill="#161616"/>
  <path d="M 226.038 109.93 L 226.035 109.935 L 226.034 109.93 L 226.038 109.93 Z M 226.619 110.238 L 226.665 110.259 L 226.62 110.235 L 226.619 110.238 Z M 226.177 111.225 L 226.181 111.224 L 226.18 111.226 L 226.177 111.225 Z M 226.619 110.238 L 226.623 110.241 L 226.62 110.242 L 226.619 110.238 Z M 226.79 109.999 L 226.79 109.994 L 226.787 109.997 L 226.79 109.999 Z M 228.279 109.816 L 228.278 109.813 L 228.279 109.813 L 228.279 109.816 Z M 226.036 109.933 L 226.617 110.241 L 226.62 110.235 L 226.039 109.927 L 226.036 109.933 Z M 226.616 110.237 L 226.174 111.223 L 226.18 111.226 L 226.622 110.24 L 226.616 110.237 Z M 226.18 111.224 L 226.041 109.93 L 226.034 109.93 L 226.174 111.225 L 226.18 111.224 Z M 226.622 110.24 L 226.793 110.001 L 226.787 109.997 L 226.616 110.236 L 226.622 110.24 Z M 226.791 110.002 L 228.28 109.82 L 228.279 109.813 L 226.79 109.996 L 226.791 110.002 Z M 228.278 109.813 L 226.618 110.235 L 226.62 110.242 L 228.28 109.82 L 228.278 109.813 Z" fill="#161616"/>
  <path fill-rule="evenodd" clip-rule="evenodd" d="M 226.794 109.997 L 226.622 110.243 L 226.039 109.926 L 226.794 109.997 Z" fill="#161616" stroke="#161616" stroke-width="0.00675677"/>
</svg>