<?xml version="1.0" encoding="utf-8"?>
<!-- Generator: Adobe Illustrator 19.0.0, SVG Export Plug-In . SVG Version: 6.00 Build 0)  -->
<svg version="1.1" id="Layer_1" xmlns="http://www.w3.org/2000/svg" xmlns:xlink="http://www.w3.org/1999/xlink" x="0px" y="0px"
	 viewBox="0 0 1366 792" style="enable-background:new 0 0 1366 792;" xml:space="preserve">
<style type="text/css">
	.st0{opacity:0.16;}
	.st1{fill:#F7601D;}
	.st2{opacity:0.18;}
	.st3{opacity:0.14;}
	.st4{opacity:0.1;}
	.st5{opacity:0.11;}
</style>
<g id="XMLID_76_" class="st0">
	<path id="XMLID_112_" class="st1" d="M175.1,197.8c-0.6-0.5-1.2-0.9-1.8-1.3c-1.3-0.9-2.6-1.5-4.1-2c-2-0.6-4-0.9-6.1-0.7
		c-1,0.1-2.1,0.3-3,0.8c-0.4,0.2-0.8,0.4-1.2,0.6c-0.4,0.2-0.9,0.2-1.3,0.3c-1.4,0.5-2.6,1.2-3.5,2.4c-1.1,1.3-1.6,2.8-1.6,4.5
		c0,1,0.2,1.9,0.5,2.8c0.7,2.2,2,4.2,3.5,5.9c0.8,1,1.8,1.8,2.8,2.6c0.1,0,0.2,0.1,0.2,0.1c0.3,0.2,0.5,0.5,0.8,0.6
		c0.1,0.1,0.2,0.3,0.4,0.3c0.7,0.4,1.3,0.9,2,1.2c0.6,0.3,1.3,0.8,2,1c0.1,0.1,0.2,0.2,0.4,0.2c0,0,0,0,0,0c0.1,0.1,0.3,0.2,0.5,0.3
		c0.6,0.3,1.3,0.5,1.9,0.8c0.8,0.3,1.6,0.6,2.4,0.7c0.5,0.1,0.9,0.2,1.4,0.2c0.8,0.1,1.7,0.1,2.5-0.1c1.1-0.2,2.2-0.6,3.2-1.2
		c0.3-0.2,0.7-0.4,0.9-0.7c0,0,0,0,0,0c0.1,0,0.2-0.1,0.3-0.1c0.7-0.7,1.5-1.4,2-2.2c0.8-1.2,1.3-2.5,1.5-3.9c0.2-1,0.2-2.1,0.1-3.1
		c-0.1-0.8-0.2-1.5-0.6-2.2c-0.3-1-0.8-1.9-1.3-2.8c-0.2-0.3-0.3-0.6-0.6-0.8c-0.1-0.3-0.3-0.5-0.5-0.7c0,0,0,0,0,0
		c0-0.2-0.2-0.3-0.3-0.4C177.3,199.9,176.3,198.8,175.1,197.8z"/>
	<path id="XMLID_101_" class="st1" d="M98.4,203.1c1.8,0.8,3.6,1.5,5.4,2.1c2,0.7,4,1.3,6,1.9c1.5,0.4,3.1,0.8,4.6,1.2
		c2.4,0.5,4.7,1,7.1,1.3c0.7,0.1,1.4,0.2,2.1,0.2c0.1,0,0.2,0.1,0.2,0.1c1,0.1,2.1,0.1,3.1,0.2c0.1,0,0.3,0,0.5,0
		c0.3,0.1,0.6,0.1,0.9,0c0,0,0,0,0,0c0.7,0,1.3,0,2,0c0.3,0,0.7,0,1-0.1l0,0c0.1,0,0.1,0,0.2,0l0,0c0.2,0.1,0.3,0,0.5-0.1
		c0,0,0,0,0,0l0,0c0,0,0,0,0,0c0,0,0,0,0,0l0,0c0.1,0,0.1,0,0.2,0c0.1,0,0.1,0,0.2,0l0,0c0,0,0,0,0,0c0,0,0,0,0,0c0,0,0,0,0,0
		c0,0,0,0,0,0c0,0,0,0,0,0l0,0c-0.1,0-0.1,0-0.2,0c0,0,0,0,0,0c0.1,0,0.1,0,0.2,0c0.1,0,0.1,0,0.2,0c0.1,0,0.2,0,0.3,0
		c1-0.1,2.1-0.2,3.1-0.4c2.1-0.4,4.2-1,6.2-2.1c0.5-0.3,1-0.5,1.4-0.9c0,0,0,0,0,0c0,0,0.1,0,0.1,0c0.4-0.3,0.8-0.5,1.1-0.9
		c0.2-0.2,0.3-0.3,0.5-0.5c0.3-0.2,0.5-0.4,0.7-0.6c0.4-0.6,1-1.1,1.4-1.7c0.3-0.5,0.7-1,0.9-1.6c0,0,0.1-0.1,0.1-0.1
		c0.1-0.1,0.1-0.2,0.1-0.3c0,0,0,0,0,0c0,0,0.1-0.1,0.1-0.1c0,0,0,0,0,0c0.2-0.2,0.3-0.5,0.4-0.8c0.5-1.3,0.9-2.6,1.1-4
		c0.1-0.5,0.2-1,0.1-1.6c0-0.1,0.1-0.2,0.1-0.3c0-0.7,0.1-1.4,0.1-2.1c0-1,0-1.9-0.1-2.9c0-0.4-0.1-0.8-0.1-1.2c0-0.1,0-0.1,0-0.2
		c0,0,0-0.1,0-0.1c0,0,0,0,0,0c0-0.2,0-0.4,0-0.6c-0.2-2-0.6-3.9-1-5.9c-0.5-2.2-1.1-4.4-1.7-6.6c-0.5-1.9-1.2-3.8-1.8-5.7
		c0-0.1-0.1-0.2-0.2-0.4c-0.1-0.6-0.4-1.2-0.6-1.7c0,0,0,0,0,0c0-0.2-0.1-0.3-0.1-0.5c-0.2-0.6-0.4-1.1-0.6-1.7
		c-0.4-1.1-0.9-2.2-1.4-3.2c-0.5-1.1-1.1-2.1-1.8-3.1c-0.7-1-1.3-1.9-2.2-2.8c-0.2-0.3-0.5-0.5-0.7-0.7c-0.4-0.4-0.8-0.8-1.3-1.2
		c-0.6-0.5-1.2-0.9-1.8-1.3c-0.2-0.1-0.4-0.3-0.6-0.3c-0.2-0.2-0.5-0.3-0.8-0.4l0,0c-0.1,0-0.1-0.1-0.2-0.1c-1.1-0.5-2.3-0.9-3.6-1
		c-0.5-0.1-1-0.2-1.5-0.1c0,0,0,0,0,0c-0.1,0-0.1,0-0.2,0l0,0c-0.4-0.1-0.8,0-1.2,0.1c0,0,0,0,0,0c-0.3,0-0.6-0.1-0.8,0.1
		c0,0,0,0,0,0c-0.5,0-1.1,0.1-1.6,0.3c-0.7,0.2-1.3,0.3-1.9,0.7c0,0,0,0,0,0c-0.8,0.2-1.5,0.6-2.1,1c-0.2,0-0.3,0.2-0.5,0.3
		c0,0,0,0,0,0c-0.1,0-0.2,0.1-0.3,0.1c-0.5,0.4-1,0.7-1.5,1.1c-0.8,0.7-1.7,1.3-2.4,2.1c-1.1,1.1-2.3,2.3-3.4,3.5
		c-1.7,1.8-3.5,3.6-5.3,5.4c-0.2,0.2-0.5,0.5-0.6,0.8c0,0,0,0,0,0c-0.1,0.1-0.1,0.1-0.2,0.2c0,0,0,0,0,0c0,0,0,0,0,0
		c-0.2,0.2-0.5,0.5-0.7,0.7c0,0,0,0,0,0c-0.2,0.2-0.4,0.4-0.6,0.6c0,0,0,0,0,0c-0.2,0.2-0.5,0.5-0.7,0.7c-1.9,1.9-3.8,3.9-5.7,5.9
		c-0.5,0.5-1,1-1.5,1.5c-0.1,0.1-0.2,0.2-0.2,0.4c-0.1,0.1-0.2,0.2-0.3,0.4c0,0,0,0,0,0l0,0c-0.4,0.4-0.8,0.8-1.1,1.3
		c-0.4,0.4-0.7,0.9-1.1,1.3c-0.6,0.8-1.1,1.5-1.6,2.3c-0.2,0.4-0.5,0.7-0.7,1.2c0,0,0,0,0,0c0,0-0.1,0.1-0.1,0.1
		c-0.1,0.1-0.1,0.2-0.1,0.3c0,0,0,0,0,0l0,0l0,0c-0.1,0.1-0.2,0.2-0.2,0.4c0,0,0,0,0,0c-0.3,0.3-0.4,0.7-0.6,1.1
		c-0.2,0.4-0.4,0.8-0.5,1.2l0,0c0,0,0,0,0,0c0,0,0,0,0,0c-0.1,0.1-0.1,0.2-0.1,0.3c0,0,0,0,0,0c0,0,0,0.1-0.1,0.1c0,0,0,0,0,0
		c-0.2,0.5-0.4,1.1-0.5,1.6c-0.3,1.3-0.4,2.6-0.3,4c0.3,2.6,1.4,4.9,3.2,6.9c0.4,0.5,0.8,0.9,1.2,1.4c0.5,0.7,1,1.3,1.6,1.8
		C96.4,202.1,97.3,202.6,98.4,203.1z M127.3,204.4C127.3,204.4,127.3,204.4,127.3,204.4c0-0.1,0-0.1,0-0.1
		C127.3,204.3,127.3,204.4,127.3,204.4z M143.6,194.4C143.6,194.4,143.6,194.3,143.6,194.4C143.6,194.3,143.6,194.3,143.6,194.4
		C143.6,194.3,143.6,194.4,143.6,194.4z M144.1,194c0,0,0-0.1,0.1-0.1C144.2,193.9,144.1,194,144.1,194z M119.1,168.2
		C119.1,168.2,119.1,168.2,119.1,168.2C119.1,168.2,119.1,168.2,119.1,168.2C119.1,168.2,119.1,168.2,119.1,168.2
		C119.1,168.2,119.1,168.2,119.1,168.2z M104.7,171.7c-0.1,0-0.1,0-0.1,0C104.6,171.7,104.6,171.7,104.7,171.7z M102,174.4
		c0,0.1-0.1,0.1-0.1,0.1C102,174.5,102,174.5,102,174.4z M97.3,176.5C97.3,176.5,97.3,176.5,97.3,176.5
		C97.3,176.5,97.3,176.5,97.3,176.5C97.3,176.5,97.3,176.5,97.3,176.5z M95.7,192.7C95.7,192.7,95.7,192.7,95.7,192.7
		C95.7,192.7,95.7,192.7,95.7,192.7C95.7,192.7,95.7,192.7,95.7,192.7z M95.4,195.2C95.4,195.2,95.4,195.2,95.4,195.2
		C95.4,195.2,95.4,195.2,95.4,195.2C95.4,195.2,95.4,195.2,95.4,195.2z"/>
	<polygon id="XMLID_100_" class="st1" points="134.3,223.9 134.3,223.9 134.3,223.9 	"/>
	<path id="XMLID_95_" class="st1" d="M150.4,218.7c-1.4-1-2.8-1.7-4.4-2.1c-0.9-0.2-1.8-0.3-2.6-0.2c-0.1,0-0.3,0-0.4,0c0,0,0,0,0,0
		c-0.8,0-1.6,0.3-2.3,0.6c-1.1,0.1-2.1,0.5-3,1.1c-1.4,0.8-2.3,2-2.9,3.5c-0.3,0.7-0.4,1.4-0.4,2.1c0,0,0,0,0,0l0,0c0,0,0,0,0,0
		c0,0,0,0,0,0c0,0.1,0,0.1,0,0.2c0,0.1,0,0.1,0,0.2c0,0,0,0,0,0c0,0.2-0.1,0.5,0,0.7c0,0,0,0,0,0c0,0,0,0,0,0c-0.1,0.2,0,0.4,0,0.6
		c0.1,2.1,0.6,4.2,1.2,6.3c0.6,1.9,1.4,3.7,2.4,5.3c0.6,1,1.3,2,2.1,2.9c0.8,0.9,1.5,1.9,2.4,2.7c0.4,0.3,0.8,0.6,1.1,1
		c0.4,0.4,0.9,0.7,1.3,1c0.2,0.1,0.3,0.3,0.6,0.4c0,0,0,0,0,0c0.4,0.4,0.9,0.6,1.4,0.8c0,0,0,0,0,0c0,0,0.1,0.1,0.1,0.1
		c0.1,0.1,0.2,0.2,0.4,0.2c1.1,0.7,2.4,1,3.7,1.2c0.4,0.1,0.9,0.2,1.3,0.1c0.4,0.1,0.8,0,1.2-0.1c0.1,0,0.2,0,0.3-0.1
		c0.1,0,0.1,0,0.2,0c1.5-0.2,2.9-0.9,4-1.8c1.2-1,2.1-2.2,2.7-3.6c0.3-0.7,0.5-1.4,0.5-2.1c0.1-0.2,0.1-0.3,0.1-0.5c0,0,0,0,0,0l0,0
		c0.1-0.2,0.1-0.4,0-0.6c0-0.2,0-0.4,0-0.6c0-1.3-0.2-2.7-0.5-4c0-0.1-0.1-0.2-0.2-0.4c0-0.1,0-0.1,0-0.2c0,0,0-0.1-0.1-0.1
		c0-0.1,0-0.1,0-0.2c0,0,0-0.1-0.1-0.1c0-0.1,0-0.1,0-0.2c0,0,0,0,0,0c0,0,0,0,0,0c0,0,0-0.1-0.1-0.1c0,0,0,0,0,0
		c0-0.1,0-0.2-0.1-0.3c-0.6-2-1.5-3.8-2.5-5.6c-0.2-0.3-0.3-0.7-0.6-0.9c-0.1-0.1-0.1-0.1-0.2-0.2c0,0,0,0,0,0
		c0-0.2-0.1-0.3-0.2-0.3c0,0,0,0,0,0c-0.1-0.3-0.3-0.5-0.5-0.7c0-0.1-0.1-0.2-0.2-0.3c-0.3-0.4-0.6-0.8-1-1.2
		c-0.5-0.7-1.1-1.3-1.8-1.9c0,0,0,0,0,0C152.5,220.4,151.5,219.5,150.4,218.7z M154,247.3c-0.1,0-0.1,0-0.2,0c0,0,0,0,0,0
		C153.9,247.3,154,247.3,154,247.3C154,247.3,154,247.3,154,247.3z M153.3,241.1c0,0.1,0,0.1,0,0.2c-0.1,0-0.1,0-0.2,0.1
		c0,0,0.1-0.1,0.1-0.1C153.3,241.1,153.3,241.1,153.3,241.1C153.3,241.1,153.3,241.1,153.3,241.1z M137.8,219.3
		C137.8,219.3,137.8,219.3,137.8,219.3C137.8,219.3,137.8,219.3,137.8,219.3C137.8,219.3,137.8,219.3,137.8,219.3z"/>
	<polygon id="XMLID_94_" class="st1" points="163.6,163.9 163.6,163.9 163.6,163.9 	"/>
	<polygon id="XMLID_93_" class="st1" points="163.7,163.9 163.7,163.9 163.8,163.9 	"/>
	<path id="XMLID_86_" class="st1" d="M153.1,171.2c-0.3,0.5-0.5,1-0.7,1.6c-0.2,0.8-0.3,1.7-0.2,2.5c0.1,1.1,0.3,2.1,1,2.9
		c0.3,0.5,0.6,1,1,1.4c0.4,0.5,0.7,1,1.2,1.4c0,0,0,0,0,0c0.1,0.1,0.2,0.2,0.3,0.3c0,0,0,0,0,0c0.1,0.1,0.1,0.1,0.2,0.2c0,0,0,0,0,0
		c0,0.2,0.2,0.4,0.4,0.5c0.5,0.4,1,0.8,1.4,1.3c0.1,0.1,0.2,0.2,0.3,0.2c0,0,0,0,0,0c0.3,0.4,0.7,0.6,1.1,0.9
		c0.8,0.6,1.6,1.1,2.5,1.4c0.4,0.2,0.8,0.3,1.1,0.5c1.7,0.7,3.5,1.1,5.4,1c0.8-0.1,1.6-0.2,2.4-0.4c0.2-0.1,0.5-0.1,0.7-0.2
		c0,0,0,0,0,0c0.1,0,0.2,0,0.3-0.1c0,0,0,0,0,0c0.6-0.1,1.2-0.4,1.7-0.7c0,0,0,0,0,0c0.1,0,0.2,0,0.2-0.1c1.3-0.7,2.4-1.8,3.2-3
		c1.3-2,1.7-4.2,1.5-6.5c-0.1-1.4-0.5-2.7-1.2-4c-0.3-0.6-0.6-1.3-1.2-1.8l0,0c0,0,0-0.1-0.1-0.1c0,0,0,0,0-0.1
		c-0.1-0.3-0.4-0.5-0.6-0.7c-0.1-0.1-0.1-0.1-0.2-0.2c0,0,0,0,0,0c0-0.1-0.1-0.2-0.1-0.3c-0.9-1-2-1.9-3.2-2.7
		c-0.2-0.1-0.3-0.3-0.6-0.3c-0.1-0.1-0.3-0.3-0.5-0.3c0,0,0,0,0,0c0,0-0.1-0.1-0.1-0.1c0,0,0,0,0,0c-0.8-0.5-1.7-0.9-2.6-1.2
		c-0.4-0.1-0.8-0.3-1.2-0.3c-0.1-0.1-0.2-0.1-0.3-0.1c0,0,0,0,0,0c0,0,0,0,0,0l0,0c-0.1,0-0.1,0-0.2,0c0,0,0,0,0,0
		c0.1,0,0.1,0,0.2,0c-0.1,0-0.1,0-0.2,0c-0.1-0.1-0.3-0.1-0.5-0.1c0,0,0,0,0,0c0,0,0,0,0,0c-0.1,0-0.1,0-0.2,0c0,0,0,0,0,0
		c0,0-0.1,0-0.1,0c-0.1,0-0.1,0-0.2,0c-0.1,0-0.1,0-0.2,0c-0.2-0.1-0.4-0.1-0.6-0.1c-0.1-0.1-0.2-0.1-0.3-0.1c0,0,0,0,0,0
		c0,0,0,0,0,0l0,0c-0.1,0-0.1,0-0.2,0l0,0c-0.1,0-0.1,0-0.2,0c-0.1,0-0.1,0-0.2,0c-0.1,0-0.1,0-0.2,0c0,0,0,0,0,0c0.1,0,0.1,0,0.2,0
		c-0.1,0-0.1,0-0.2,0c0,0,0,0,0,0c0,0,0,0,0,0l0,0c0,0,0,0,0,0c-0.9-0.1-1.7,0-2.6,0.2c0,0,0,0,0,0c-0.1,0-0.2,0-0.3,0.1
		c-0.1,0-0.1,0-0.2,0c-0.1,0-0.2,0-0.3,0.1c-0.1,0-0.1,0-0.2,0c0,0,0.1,0,0.1,0c0,0-0.1,0-0.1,0c0,0-0.1,0-0.1,0.1
		c-0.1,0-0.1,0-0.2,0c-0.6,0.2-1.2,0.3-1.7,0.7c0,0,0,0,0,0c-0.8,0.3-1.5,0.9-2.1,1.4c-0.4,0.3-0.7,0.8-1,1.2
		c-0.6,0.8-1.1,1.7-1.3,2.7C153.4,170.7,153.3,171,153.1,171.2z M165,164.1c0.1,0,0.1,0,0.2,0C165.2,164.1,165.1,164.1,165,164.1
		C165,164.1,165,164.1,165,164.1z M173.2,173.6C173.3,173.6,173.3,173.6,173.2,173.6C173.3,173.6,173.3,173.6,173.2,173.6
		C173.3,173.6,173.3,173.6,173.2,173.6C173.2,173.6,173.2,173.6,173.2,173.6z M171.2,181.3C171.2,181.3,171.2,181.3,171.2,181.3
		c0-0.1,0-0.1,0.1-0.1C171.2,181.2,171.2,181.3,171.2,181.3z M160.3,164.2c0.1,0,0.1,0,0.2,0c0,0,0,0,0,0
		C160.4,164.2,160.4,164.2,160.3,164.2C160.3,164.2,160.3,164.2,160.3,164.2z M162.4,166.8C162.4,166.8,162.4,166.8,162.4,166.8
		C162.4,166.8,162.4,166.8,162.4,166.8C162.4,166.8,162.4,166.8,162.4,166.8z"/>
	<path id="XMLID_80_" class="st1" d="M115.1,242.5c0.2,0.1,0.3,0.3,0.6,0.3l0,0c0.6,0.4,1.2,0.7,1.9,0.8c0.3,0.1,0.6,0.2,0.9,0.2
		c0,0,0,0,0,0c0.3,0.1,0.6,0.2,0.8,0.1c1.1,0.1,2.2-0.1,3.3-0.5c0.9-0.4,1.7-0.9,2.5-1.6c0.1-0.1,0.2-0.2,0.3-0.3
		c0.3-0.5,0.7-0.8,1-1.3c0.5-0.7,0.9-1.5,1.2-2.3c0.5-1.7,0.7-3.5,0.8-5.3c0-1.5-0.2-3-0.5-4.4c-0.1-0.4-0.1-0.9-0.4-1.2
		c0-0.1,0-0.2-0.1-0.3c-0.2-0.5-0.4-1.1-0.6-1.6c-0.4-0.9-0.9-1.8-1.4-2.6c-0.3-0.5-0.6-0.9-0.8-1.5c-0.4-0.9-1-1.7-1.8-2.3
		c-0.3-0.2-0.5-0.5-0.9-0.6c0,0,0,0,0,0c-0.6-0.5-1.3-0.8-2-0.9l0,0c-0.2-0.1-0.4-0.1-0.6-0.2c-0.7-0.1-1.5-0.1-2.2,0.1
		c-0.5,0.1-1,0.2-1.5,0.4c-0.2,0-0.3,0.1-0.5,0.2c-0.9,0.5-1.8,1.1-2.4,2c-0.1,0.1-0.3,0.3-0.4,0.4c-0.3,0.3-0.6,0.6-0.7,1.1
		c0,0,0,0,0,0l0,0c0,0,0,0.1,0,0.1c0,0,0,0,0,0c-0.1,0.1-0.1,0.1-0.2,0.2c-1.1,1.8-1.9,3.8-2.2,5.9c-0.1,0.8-0.2,1.6-0.2,2.4
		c0,1.6,0.3,3.1,0.6,4.6c0.1,0.4,0.2,0.8,0.4,1.2c0,0.1,0,0.2,0.1,0.3c0,0.2,0.1,0.3,0.2,0.4c0,0,0,0,0,0c0.1,0.4,0.2,0.7,0.5,1
		c0,0.2,0.1,0.3,0.2,0.4c0,0.2,0.1,0.3,0.2,0.4l0,0c0,0,0,0.1,0.1,0.1c0,0.2,0.1,0.3,0.2,0.4v0c0.1,0.1,0.1,0.1,0.2,0.2
		c0,0,0,0.1,0,0.1c0.3,0.5,0.7,1,1.1,1.4c0,0,0,0,0,0c0,0.1,0.1,0.2,0.1,0.3C113.3,241.1,114.1,241.9,115.1,242.5z M120.3,221.4
		C120.3,221.4,120.3,221.4,120.3,221.4C120.3,221.4,120.3,221.4,120.3,221.4C120.3,221.4,120.3,221.4,120.3,221.4z M114.3,219.2
		c0,0-0.1,0.1-0.1,0.1C114.2,219.3,114.3,219.2,114.3,219.2z M111.3,221.1C111.4,221.1,111.4,221.1,111.3,221.1
		C111.4,221.1,111.4,221.1,111.3,221.1C111.3,221.1,111.3,221.1,111.3,221.1z M114.1,238.5C114.1,238.5,114.1,238.5,114.1,238.5
		C114.1,238.5,114.1,238.5,114.1,238.5C114.1,238.6,114.1,238.5,114.1,238.5z"/>
	<path id="XMLID_79_" class="st1" d="M131.5,210c-0.1,0-0.1,0-0.2,0C131.4,210.1,131.5,210.1,131.5,210z"/>
	<path id="XMLID_78_" class="st1" d="M163.9,163.9c0.1,0,0.1,0,0.2,0C164.1,163.9,164,163.9,163.9,163.9z"/>
	<path id="XMLID_77_" class="st1" d="M127.9,150.3c0.1,0,0.1,0,0.2,0C128,150.3,128,150.3,127.9,150.3z"/>
</g>
<g id="XMLID_187_" class="st0">
	<path id="XMLID_223_" class="st1" d="M1195.7,621.9c0.5,0.3,1.1,0.5,1.6,0.7c1.1,0.4,2.3,0.7,3.5,0.8c1.6,0.1,3.2,0,4.8-0.5
		c0.8-0.3,1.5-0.6,2.2-1.1c0.3-0.2,0.6-0.4,0.8-0.7c0.3-0.2,0.6-0.3,1-0.5c1-0.6,1.8-1.4,2.3-2.4c0.6-1.2,0.7-2.4,0.5-3.7
		c-0.2-0.8-0.5-1.4-0.9-2.1c-0.9-1.6-2.2-2.9-3.7-4c-0.8-0.6-1.7-1.1-2.6-1.6c-0.1,0-0.1,0-0.2,0c-0.2-0.1-0.5-0.3-0.7-0.3
		c-0.1-0.1-0.2-0.2-0.4-0.2c-0.6-0.2-1.1-0.4-1.7-0.6c-0.6-0.2-1.1-0.4-1.7-0.4c-0.1-0.1-0.2-0.1-0.3-0.1c0,0,0,0,0,0
		c-0.1-0.1-0.3-0.1-0.4-0.1c-0.5-0.1-1-0.2-1.6-0.3c-0.7-0.1-1.3-0.2-2-0.2c-0.4,0-0.8,0-1.1,0.1c-0.6,0.1-1.3,0.2-1.9,0.5
		c-0.8,0.3-1.6,0.8-2.2,1.4c-0.2,0.2-0.5,0.4-0.6,0.7c0,0,0,0,0,0c-0.1,0-0.2,0.1-0.2,0.2c-0.4,0.7-0.9,1.3-1.2,2
		c-0.4,1-0.6,2.1-0.5,3.2c0,0.8,0.2,1.6,0.5,2.4c0.2,0.6,0.4,1.1,0.8,1.6c0.4,0.7,0.9,1.3,1.5,1.9c0.2,0.2,0.4,0.4,0.6,0.5
		c0.1,0.2,0.4,0.3,0.5,0.5c0,0,0,0,0,0c0,0.1,0.2,0.2,0.3,0.3C1193.6,620.7,1194.6,621.4,1195.7,621.9z"/>
	<path id="XMLID_212_" class="st1" d="M1253.9,605.1c-1.5-0.3-3-0.6-4.5-0.7c-1.7-0.2-3.3-0.4-5-0.5c-1.3-0.1-2.5-0.1-3.8-0.1
		c-1.9,0-3.8,0-5.7,0.2c-0.5,0-1.1,0.1-1.6,0.2c-0.1,0-0.1,0-0.2,0c-0.8,0.1-1.6,0.2-2.4,0.4c-0.1,0-0.2,0.1-0.3,0.1
		c-0.2,0-0.5,0-0.7,0.1c0,0,0,0,0,0c-0.5,0.1-1,0.2-1.6,0.3c-0.2,0.1-0.5,0.1-0.7,0.2h0c0,0-0.1,0-0.1,0l0,0c-0.1,0-0.3,0-0.3,0.1
		c0,0,0,0,0,0v0c0,0,0,0,0,0c0,0,0,0,0,0l0,0c-0.1,0-0.1,0-0.1,0c-0.1,0-0.1,0-0.1,0v0c0,0,0,0,0,0c0,0,0,0,0,0c0,0,0,0,0,0
		c0,0,0,0,0,0c0,0,0,0,0,0l0,0c0,0,0.1,0,0.1,0c0,0,0,0,0,0c0,0-0.1,0-0.1,0c0,0-0.1,0-0.1,0c-0.1,0-0.2,0-0.3,0
		c-0.8,0.3-1.6,0.5-2.3,0.9c-1.6,0.7-3.1,1.5-4.4,2.6c-0.3,0.3-0.7,0.5-1,0.9c0,0,0,0,0,0c0,0-0.1,0-0.1,0c-0.2,0.3-0.5,0.5-0.7,0.9
		c-0.1,0.2-0.2,0.3-0.3,0.4c-0.2,0.2-0.3,0.4-0.4,0.6c-0.2,0.5-0.6,1-0.8,1.5c-0.2,0.5-0.4,0.9-0.4,1.4c0,0,0,0,0,0.1
		c-0.1,0.1-0.1,0.2,0,0.2c0,0,0,0,0,0c0,0,0,0,0,0.1c0,0,0,0,0,0c-0.1,0.2-0.1,0.5-0.2,0.7c-0.2,1.1-0.2,2.2-0.2,3.3
		c0,0.4,0,0.8,0.2,1.2c0,0.1,0,0.2,0,0.3c0.1,0.6,0.2,1.1,0.3,1.7c0.2,0.7,0.4,1.5,0.5,2.2c0.1,0.3,0.2,0.6,0.3,0.9c0,0,0,0.1,0,0.1
		c0,0,0,0.1,0,0.1c0,0,0,0,0,0c0,0.1,0.1,0.3,0.1,0.4c0.5,1.5,1.1,2.9,1.7,4.3c0.7,1.6,1.6,3.2,2.4,4.8c0.7,1.4,1.5,2.7,2.3,4
		c0.1,0.1,0.1,0.2,0.2,0.2c0.2,0.5,0.5,0.8,0.8,1.2c0,0,0,0,0,0c0.1,0.1,0.1,0.2,0.2,0.4c0.3,0.4,0.5,0.8,0.8,1.2
		c0.5,0.8,1.1,1.5,1.6,2.2c0.6,0.7,1.2,1.4,1.9,2.1c0.7,0.6,1.3,1.3,2.1,1.8c0.2,0.2,0.5,0.3,0.7,0.5c0.4,0.2,0.8,0.5,1.2,0.7
		c0.5,0.3,1.1,0.5,1.6,0.7c0.2,0.1,0.3,0.1,0.5,0.1c0.2,0.1,0.5,0.2,0.7,0.2l0,0c0.1,0,0.1,0.1,0.2,0.1c1,0.2,1.9,0.3,2.9,0.2
		c0.4,0,0.8,0,1.2-0.2c0,0,0,0,0,0c0,0,0.1,0,0.1,0l0,0c0.3,0,0.6-0.1,0.9-0.3c0,0,0,0,0,0c0.2,0,0.4-0.1,0.6-0.2c0,0,0,0,0,0
		c0.4-0.1,0.8-0.3,1.2-0.5c0.5-0.2,1-0.5,1.4-0.8c0,0,0,0,0,0c0.6-0.3,1-0.7,1.5-1.1c0.2,0,0.2-0.2,0.3-0.3c0,0,0,0,0,0
		c0.1,0,0.1-0.1,0.2-0.1c0.3-0.4,0.7-0.7,1-1.1c0.5-0.7,1.1-1.3,1.5-2c0.7-1.1,1.4-2.1,2-3.2c1-1.7,2.1-3.4,3.2-5
		c0.1-0.2,0.3-0.4,0.3-0.7c0,0,0,0,0,0c0-0.1,0.1-0.1,0.1-0.2c0,0,0,0,0,0s0,0,0,0c0.1-0.2,0.3-0.5,0.4-0.7c0,0,0,0,0,0
		c0.1-0.2,0.2-0.4,0.3-0.5c0,0,0,0,0,0c0.1-0.2,0.3-0.4,0.4-0.6c1.2-1.8,2.3-3.6,3.4-5.5c0.3-0.5,0.6-0.9,0.9-1.4
		c0.1-0.1,0.1-0.2,0.1-0.3c0.1-0.1,0.1-0.2,0.2-0.3c0,0,0,0,0,0l0,0c0.3-0.4,0.4-0.8,0.6-1.2c0.2-0.4,0.4-0.8,0.6-1.2
		c0.3-0.7,0.6-1.4,0.9-2.1c0.1-0.3,0.3-0.7,0.3-1c0,0,0,0,0,0c0,0,0-0.1,0-0.1c0.1-0.1,0.1-0.1,0.1-0.2c0,0,0,0,0,0l0,0l0,0
		c0.1-0.1,0.1-0.2,0.1-0.3c0,0,0,0,0,0c0.2-0.3,0.2-0.6,0.2-0.9c0.1-0.3,0.2-0.7,0.2-1h0c0,0,0,0,0,0c0,0,0,0,0,0
		c0-0.1,0.1-0.2,0-0.2c0,0,0,0,0,0c0,0,0,0,0-0.1c0,0,0,0,0,0c0.1-0.4,0.1-0.9,0.1-1.3c0-1.1-0.1-2.1-0.5-3.1
		c-0.7-2-1.9-3.5-3.6-4.8c-0.4-0.3-0.8-0.6-1.1-0.9c-0.5-0.4-1-0.8-1.6-1.1C1255.6,605.6,1254.8,605.3,1253.9,605.1z M1231.4,608.9
		C1231.4,608.9,1231.4,609,1231.4,608.9C1231.4,609,1231.4,609,1231.4,608.9C1231.4,609,1231.4,609,1231.4,608.9z M1220.6,619.3
		C1220.6,619.4,1220.5,619.4,1220.6,619.3C1220.5,619.4,1220.5,619.4,1220.6,619.3C1220.5,619.4,1220.5,619.4,1220.6,619.3z
		 M1220.2,619.7C1220.2,619.8,1220.2,619.8,1220.2,619.7C1220.1,619.8,1220.2,619.8,1220.2,619.7z M1243.7,635.4
		C1243.7,635.4,1243.7,635.4,1243.7,635.4C1243.7,635.4,1243.7,635.4,1243.7,635.4C1243.7,635.4,1243.7,635.4,1243.7,635.4
		C1243.7,635.4,1243.7,635.4,1243.7,635.4z M1254.2,630.3c0,0,0.1,0,0.1,0C1254.3,630.3,1254.3,630.3,1254.2,630.3z M1255.8,627.8
		c0-0.1,0-0.1,0.1-0.1C1255.9,627.7,1255.9,627.8,1255.8,627.8z M1259.1,625.4C1259.1,625.4,1259.1,625.4,1259.1,625.4
		C1259.1,625.4,1259.1,625.4,1259.1,625.4C1259.1,625.4,1259.1,625.4,1259.1,625.4z M1257.6,612.7
		C1257.6,612.7,1257.6,612.7,1257.6,612.7C1257.6,612.7,1257.6,612.7,1257.6,612.7C1257.6,612.7,1257.6,612.7,1257.6,612.7z
		 M1257.5,610.7C1257.5,610.7,1257.5,610.7,1257.5,610.7C1257.5,610.7,1257.5,610.7,1257.5,610.7
		C1257.5,610.7,1257.5,610.7,1257.5,610.7z"/>
	<polygon id="XMLID_211_" class="st1" points="1222.8,595.1 1222.8,595.1 1222.8,595.1 	"/>
	<path id="XMLID_206_" class="st1" d="M1211.3,601.8c1.2,0.5,2.4,0.9,3.8,0.9c0.7,0,1.4-0.1,2.1-0.3c0.1,0,0.2,0,0.3-0.1
		c0,0,0,0,0,0c0.6-0.2,1.2-0.5,1.7-0.9c0.8-0.3,1.5-0.7,2.2-1.3c0.9-0.9,1.5-1.9,1.7-3.2c0.1-0.6,0.1-1.1-0.1-1.7c0,0,0,0,0,0v0
		c0,0,0,0,0,0c0,0,0,0,0,0c0,0,0-0.1,0-0.1c0,0,0-0.1,0-0.1c0,0,0,0,0,0c0-0.2,0-0.4-0.1-0.6c0,0,0,0,0,0s0,0,0,0
		c0-0.2-0.1-0.3-0.1-0.5c-0.5-1.6-1.1-3.2-2-4.6c-0.8-1.3-1.7-2.6-2.8-3.7c-0.7-0.7-1.3-1.3-2.1-1.9c-0.7-0.6-1.5-1.2-2.3-1.7
		c-0.3-0.2-0.7-0.4-1-0.6c-0.4-0.2-0.8-0.4-1.2-0.6c-0.2-0.1-0.3-0.2-0.5-0.2c0,0,0,0,0,0c-0.4-0.2-0.8-0.4-1.2-0.4c0,0,0,0,0,0
		c0,0-0.1,0-0.1,0c-0.1-0.1-0.2-0.1-0.3-0.1c-1-0.3-2-0.4-3-0.3c-0.3,0-0.7,0-1,0.2c-0.3,0-0.6,0.2-0.9,0.3c-0.1,0-0.2,0-0.2,0.1
		c-0.1,0-0.1,0-0.1,0c-1.1,0.4-2.1,1.1-2.8,2.1c-0.8,1-1.3,2-1.5,3.2c-0.1,0.6-0.1,1.2,0,1.7c0,0.1,0,0.2,0,0.4c0,0,0,0,0,0h0
		c0,0.2,0,0.3,0.1,0.4c0,0.2,0,0.3,0.1,0.5c0.2,1,0.6,2,1.1,3c0,0.1,0.1,0.2,0.2,0.2c0,0,0,0.1,0.1,0.1c0,0,0,0,0.1,0.1
		c0,0,0,0.1,0.1,0.1c0,0,0,0,0.1,0.1c0,0,0,0.1,0.1,0.1c0,0,0,0,0,0c0,0,0,0,0,0c0,0,0,0,0.1,0.1c0,0,0,0,0,0c0,0.1,0.1,0.2,0.1,0.2
		c0.8,1.4,1.8,2.7,2.9,3.9c0.2,0.2,0.4,0.5,0.6,0.6c0.1,0,0.1,0.1,0.2,0.1c0,0,0,0,0,0c0,0.1,0.1,0.2,0.2,0.2c0,0,0,0,0,0
		c0.1,0.2,0.3,0.3,0.5,0.5c0,0.1,0.1,0.2,0.2,0.2c0.3,0.2,0.6,0.5,0.9,0.8c0.5,0.4,1.1,0.8,1.7,1.2c0,0,0,0,0,0
		C1209.3,600.8,1210.3,601.4,1211.3,601.8z M1203.7,580.3c0,0,0.1,0,0.1,0c0,0,0,0,0,0C1203.8,580.3,1203.7,580.3,1203.7,580.3
		C1203.7,580.3,1203.7,580.3,1203.7,580.3z M1205.3,585c0,0,0-0.1-0.1-0.1c0,0,0.1,0,0.1-0.1C1205.3,584.9,1205.3,584.9,1205.3,585
		C1205.3,585,1205.3,585,1205.3,585C1205.3,585.1,1205.3,585,1205.3,585z M1220.8,599.2C1220.8,599.2,1220.8,599.2,1220.8,599.2
		C1220.8,599.2,1220.8,599.2,1220.8,599.2C1220.8,599.2,1220.8,599.2,1220.8,599.2z"/>
	<polygon id="XMLID_205_" class="st1" points="1210.2,646.1 1210.2,646.1 1210.2,646.1 	"/>
	<polygon id="XMLID_204_" class="st1" points="1210.1,646.2 1210.1,646.2 1210.1,646.2 	"/>
	<path id="XMLID_197_" class="st1" d="M1217,638.8c0.2-0.4,0.2-0.9,0.3-1.3c0-0.7-0.1-1.3-0.2-2c-0.2-0.8-0.6-1.5-1.2-2.1
		c-0.3-0.3-0.6-0.7-1-0.9c-0.4-0.3-0.7-0.7-1.2-0.9c0,0,0,0,0,0c-0.1-0.1-0.2-0.1-0.3-0.2c0,0,0,0,0,0c-0.1,0-0.1-0.1-0.2-0.1
		c0,0,0,0,0,0c-0.1-0.2-0.2-0.3-0.4-0.3c-0.5-0.2-0.9-0.5-1.3-0.7c-0.1-0.1-0.2-0.1-0.3-0.1c0,0,0,0,0,0c-0.3-0.2-0.7-0.4-1-0.5
		c-0.7-0.3-1.4-0.6-2.1-0.7c-0.3-0.1-0.6-0.1-1-0.2c-1.5-0.2-2.9-0.3-4.3,0.1c-0.6,0.2-1.2,0.4-1.8,0.7c-0.2,0.1-0.4,0.1-0.5,0.3
		c0,0,0,0,0,0c-0.1,0-0.2,0-0.2,0.1c0,0,0,0,0,0c-0.4,0.2-0.8,0.5-1.2,0.8c0,0,0,0,0,0c-0.1,0-0.1,0.1-0.2,0.1
		c-0.9,0.8-1.5,1.8-1.9,2.9c-0.7,1.7-0.6,3.5-0.1,5.2c0.3,1.1,0.9,2,1.6,2.9c0.3,0.4,0.7,0.9,1.2,1.2l0,0c0,0,0,0,0.1,0.1
		c0,0,0,0,0,0.1c0.1,0.2,0.3,0.3,0.5,0.4c0.1,0,0.1,0.1,0.2,0.1c0,0,0,0,0,0c0,0.1,0.1,0.1,0.2,0.2c0.9,0.6,1.9,1.2,2.9,1.6
		c0.2,0.1,0.3,0.2,0.5,0.2c0.1,0.1,0.2,0.2,0.4,0.1c0,0,0,0,0,0c0,0,0.1,0,0.1,0c0,0,0,0,0,0c0.7,0.3,1.5,0.4,2.2,0.5
		c0.3,0,0.7,0.1,1,0c0.1,0,0.1,0.1,0.2,0c0,0,0,0,0,0c0,0,0,0,0,0l0,0c0,0,0.1,0,0.1,0c0,0,0,0,0,0c0,0-0.1,0-0.1,0
		c0.1,0,0.1,0,0.1,0c0.1,0.1,0.3,0.1,0.4,0c0,0,0,0,0,0c0,0,0,0,0,0c0.1,0,0.1,0,0.2,0c0,0,0,0,0,0c0,0,0,0,0.1,0c0,0,0.1,0,0.1,0
		c0.1,0,0.1,0,0.1,0c0.2,0.1,0.3,0,0.5,0c0.1,0,0.1,0.1,0.2,0c0,0,0,0,0,0s0,0,0,0l0,0c0,0,0.1,0,0.1,0l0,0c0,0,0.1,0,0.1,0
		c0,0,0.1,0,0.1,0c0,0,0.1,0,0.1,0c0,0,0,0,0,0c0,0-0.1,0-0.1,0c0.1,0,0.1,0,0.1,0c0,0,0,0,0,0c0,0,0,0,0,0l0,0c0,0,0,0,0,0
		c0.7-0.1,1.3-0.3,2-0.6c0,0,0,0,0,0c0.1,0,0.2,0,0.2-0.1c0.1,0,0.1,0,0.1,0c0.1,0,0.2,0,0.2-0.1c0.1,0,0.1,0,0.1,0c0,0-0.1,0-0.1,0
		c0,0,0.1,0,0.1,0c0,0,0,0,0.1-0.1c0,0,0.1,0,0.1-0.1c0.4-0.2,0.8-0.5,1.2-0.8c0,0,0,0,0,0c0.6-0.3,1-0.9,1.4-1.4
		c0.3-0.3,0.4-0.7,0.6-1.1c0.3-0.7,0.5-1.5,0.6-2.3C1216.9,639.2,1216.9,639,1217,638.8z M1209.1,646.2c0,0-0.1,0-0.1,0
		C1209,646.2,1209,646.2,1209.1,646.2C1209.1,646.2,1209.1,646.2,1209.1,646.2z M1201.2,640.3
		C1201.2,640.3,1201.1,640.3,1201.2,640.3C1201.1,640.3,1201.1,640.3,1201.2,640.3C1201.1,640.3,1201.2,640.3,1201.2,640.3
		C1201.2,640.3,1201.2,640.3,1201.2,640.3z M1201.5,634C1201.5,634,1201.5,634,1201.5,634c0,0,0,0.1,0,0.1
		C1201.5,634.1,1201.5,634,1201.5,634z M1212.7,645.4c0,0-0.1,0-0.1,0c0,0,0,0,0,0C1212.6,645.4,1212.6,645.4,1212.7,645.4
		C1212.7,645.4,1212.7,645.4,1212.7,645.4z M1210.6,643.7C1210.6,643.7,1210.6,643.7,1210.6,643.7
		C1210.6,643.7,1210.6,643.7,1210.6,643.7C1210.6,643.7,1210.6,643.7,1210.6,643.7z"/>
	<path id="XMLID_191_" class="st1" d="M1234.5,577.6c-0.2-0.1-0.3-0.2-0.5-0.2l0,0c-0.5-0.2-1-0.3-1.6-0.3c-0.2-0.1-0.5-0.1-0.7,0
		c0,0,0,0,0,0c-0.2,0-0.5,0-0.7,0.1c-0.9,0.1-1.7,0.5-2.4,0.9c-0.6,0.4-1.2,1-1.6,1.6c-0.1,0.1-0.2,0.2-0.2,0.3
		c-0.1,0.4-0.4,0.8-0.6,1.2c-0.3,0.6-0.5,1.3-0.5,2c-0.1,1.4,0,2.8,0.3,4.2c0.2,1.1,0.7,2.2,1.1,3.3c0.1,0.3,0.3,0.6,0.5,0.9
		c0,0.1,0.1,0.2,0.1,0.2c0.2,0.4,0.5,0.7,0.8,1.1c0.5,0.6,1,1.3,1.5,1.8c0.3,0.3,0.6,0.6,0.9,1c0.5,0.6,1.1,1.1,1.8,1.5
		c0.2,0.1,0.5,0.3,0.8,0.3c0,0,0,0,0,0c0.5,0.3,1.1,0.4,1.7,0.4l0,0c0.2,0,0.3,0,0.5,0c0.6,0,1.1-0.2,1.7-0.4
		c0.4-0.2,0.8-0.3,1.1-0.6c0.1,0,0.2-0.1,0.4-0.2c0.6-0.5,1.2-1.1,1.5-1.9c0.1-0.1,0.2-0.3,0.2-0.4c0.1-0.3,0.3-0.6,0.4-0.9
		c0,0,0,0,0,0l0,0c0,0,0,0,0,0s0,0,0,0c0-0.1,0.1-0.1,0.1-0.2c0.5-1.6,0.8-3.2,0.7-4.9c-0.1-0.6-0.1-1.3-0.2-1.9
		c-0.2-1.2-0.7-2.3-1.2-3.4c-0.1-0.3-0.3-0.6-0.5-0.8c0-0.1-0.1-0.1-0.1-0.2c0-0.1-0.1-0.2-0.2-0.3c0,0,0,0,0,0
		c-0.1-0.3-0.3-0.5-0.5-0.7c0-0.1-0.1-0.2-0.2-0.3c0-0.1-0.1-0.2-0.2-0.2l0,0c0,0,0,0-0.1-0.1c0-0.1-0.1-0.2-0.2-0.2l0,0
		c-0.1,0-0.1-0.1-0.2-0.1c0,0,0-0.1,0-0.1c-0.3-0.3-0.7-0.6-1.1-0.9c0,0,0,0,0,0c0-0.1-0.1-0.1-0.2-0.2
		C1236,578.3,1235.3,577.9,1234.5,577.6z M1233.9,594.7C1233.9,594.7,1233.9,594.7,1233.9,594.7
		C1233.9,594.7,1233.9,594.7,1233.9,594.7C1233.9,594.7,1233.9,594.7,1233.9,594.7z M1238.9,595.4
		C1238.9,595.4,1238.9,595.3,1238.9,595.4C1239,595.3,1239,595.4,1238.9,595.4z M1240.9,593.4
		C1240.9,593.4,1240.8,593.4,1240.9,593.4C1240.8,593.4,1240.9,593.4,1240.9,593.4C1240.9,593.4,1240.9,593.4,1240.9,593.4z
		 M1235.8,580.5C1235.8,580.5,1235.8,580.5,1235.8,580.5C1235.8,580.5,1235.8,580.5,1235.8,580.5
		C1235.8,580.5,1235.8,580.5,1235.8,580.5z"/>
	<path id="XMLID_190_" class="st1" d="M1227.2,605.3c0,0,0.1,0,0.1,0C1227.3,605.3,1227.2,605.3,1227.2,605.3z"/>
	<path id="XMLID_189_" class="st1" d="M1209.9,646.2c0,0-0.1,0-0.1,0C1209.9,646.2,1209.9,646.2,1209.9,646.2z"/>
	<path id="XMLID_188_" class="st1" d="M1239.9,650.7c0,0-0.1,0-0.1,0C1239.8,650.7,1239.9,650.7,1239.9,650.7z"/>
</g>
<g id="XMLID_150_" class="st2">
	<path id="XMLID_186_" class="st1" d="M1225.4,526.5c0,0.2-0.1,0.4-0.1,0.7c-0.1,0.5,0,0.9,0,1.4c0.1,0.6,0.3,1.2,0.7,1.7
		c0.2,0.3,0.4,0.5,0.6,0.7c0.1,0.1,0.2,0.2,0.3,0.2c0.1,0.1,0.2,0.2,0.3,0.3c0.3,0.3,0.7,0.5,1.1,0.6c0.5,0.1,1,0,1.4-0.2
		c0.3-0.1,0.5-0.3,0.7-0.5c0.5-0.5,0.9-1.1,1.1-1.8c0.2-0.4,0.3-0.7,0.3-1.1c0,0,0-0.1,0-0.1c0-0.1,0.1-0.2,0.1-0.3
		c0-0.1,0-0.1,0-0.2c0-0.2,0.1-0.5,0.1-0.7c0-0.2,0-0.5,0-0.7c0,0,0-0.1,0-0.1c0,0,0,0,0,0c0-0.1,0-0.1,0-0.2c0-0.2,0-0.4-0.1-0.6
		c0-0.3-0.1-0.5-0.1-0.8c0-0.1-0.1-0.3-0.1-0.4c-0.1-0.2-0.2-0.5-0.4-0.7c-0.2-0.3-0.5-0.5-0.8-0.7c-0.1-0.1-0.2-0.1-0.3-0.2
		c0,0,0,0,0,0c0,0,0,0-0.1-0.1c-0.3-0.1-0.6-0.2-0.9-0.2c-0.4,0-0.9,0-1.3,0.1c-0.3,0.1-0.6,0.2-0.9,0.4c-0.2,0.1-0.4,0.3-0.5,0.5
		c-0.2,0.2-0.4,0.5-0.6,0.8c-0.1,0.1-0.1,0.2-0.1,0.3c-0.1,0.1-0.1,0.2-0.1,0.3c0,0,0,0,0,0c-0.1,0-0.1,0.1-0.1,0.1
		C1225.7,525.6,1225.5,526,1225.4,526.5z"/>
	<path id="XMLID_175_" class="st1" d="M1237.7,546.7c0-0.6-0.1-1.2-0.2-1.8c-0.1-0.6-0.2-1.3-0.3-1.9c-0.1-0.5-0.2-1-0.3-1.4
		c-0.2-0.7-0.4-1.4-0.7-2.1c-0.1-0.2-0.1-0.4-0.2-0.6c0,0,0-0.1,0-0.1c-0.1-0.3-0.3-0.6-0.4-0.9c0,0,0-0.1-0.1-0.1
		c0-0.1-0.1-0.2-0.1-0.2c0,0,0,0,0,0c-0.1-0.2-0.2-0.4-0.3-0.6c0-0.1-0.1-0.2-0.2-0.3l0,0c0,0,0,0,0,0l0,0c0-0.1,0-0.1-0.1-0.1
		c0,0,0,0,0,0v0c0,0,0,0,0,0c0,0,0,0,0,0l0,0c0,0,0,0,0-0.1c0,0,0,0,0-0.1v0c0,0,0,0,0,0s0,0,0,0s0,0,0,0c0,0,0,0,0,0c0,0,0,0,0,0
		l0,0c0,0,0,0,0,0c0,0,0,0,0,0c0,0,0,0,0,0c0,0,0,0,0-0.1c0,0,0-0.1,0-0.1c-0.2-0.3-0.4-0.5-0.6-0.8c-0.4-0.5-0.9-1-1.4-1.4
		c-0.1-0.1-0.3-0.2-0.4-0.3c0,0,0,0,0,0c0,0,0,0,0,0c-0.1-0.1-0.3-0.1-0.4-0.2c-0.1,0-0.1,0-0.2-0.1c-0.1,0-0.2-0.1-0.3-0.1
		c-0.2,0-0.4-0.1-0.7-0.1c-0.2,0-0.4-0.1-0.6,0c0,0,0,0,0,0c0,0-0.1,0-0.1,0c0,0,0,0,0,0c0,0,0,0,0,0c0,0,0,0,0,0
		c-0.1,0-0.2,0-0.3,0c-0.4,0-0.8,0.1-1.3,0.3c-0.2,0.1-0.3,0.1-0.4,0.2c0,0-0.1,0-0.1,0c-0.2,0.1-0.4,0.2-0.6,0.3
		c-0.3,0.1-0.5,0.3-0.8,0.4c-0.1,0.1-0.2,0.1-0.3,0.2c0,0,0,0,0,0c0,0,0,0,0,0c0,0,0,0,0,0c-0.1,0-0.1,0.1-0.2,0.1
		c-0.5,0.3-1,0.7-1.5,1.1c-0.5,0.4-1.1,0.9-1.6,1.4c-0.4,0.4-0.9,0.9-1.3,1.3c0,0,0,0.1-0.1,0.1c-0.2,0.1-0.3,0.3-0.4,0.4
		c0,0,0,0,0,0c0,0-0.1,0.1-0.1,0.1c-0.1,0.1-0.3,0.3-0.4,0.4c-0.2,0.3-0.5,0.6-0.7,0.8c-0.2,0.3-0.4,0.6-0.6,0.9
		c-0.2,0.3-0.3,0.6-0.5,1c0,0.1-0.1,0.2-0.1,0.3c-0.1,0.2-0.1,0.3-0.1,0.5c0,0.2-0.1,0.4-0.1,0.7c0,0.1,0,0.1,0,0.2
		c0,0.1,0,0.2,0,0.3l0,0c0,0,0,0.1,0,0.1c0,0.4,0.1,0.8,0.2,1.1c0.1,0.1,0.1,0.3,0.2,0.4c0,0,0,0,0,0c0,0,0,0,0,0l0,0
		c0,0.1,0.1,0.2,0.2,0.3c0,0,0,0,0,0c0,0.1,0.1,0.2,0.1,0.2c0,0,0,0,0,0c0.1,0.2,0.2,0.3,0.3,0.4c0.1,0.2,0.3,0.3,0.5,0.4
		c0,0,0,0,0,0c0.2,0.2,0.4,0.3,0.6,0.4c0,0.1,0.1,0.1,0.1,0.1c0,0,0,0,0,0c0,0,0,0,0.1,0.1c0.2,0.1,0.3,0.2,0.5,0.3
		c0.3,0.1,0.6,0.3,0.9,0.4c0.5,0.1,0.9,0.3,1.4,0.4c0.7,0.2,1.5,0.5,2.2,0.7c0.1,0,0.2,0.1,0.3,0.1c0,0,0,0,0,0c0,0,0.1,0,0.1,0
		c0,0,0,0,0,0s0,0,0,0c0.1,0,0.2,0.1,0.3,0.1c0,0,0,0,0,0c0.1,0,0.2,0,0.2,0.1c0,0,0,0,0,0c0.1,0,0.2,0.1,0.3,0.1
		c0.8,0.3,1.6,0.5,2.4,0.7c0.2,0.1,0.4,0.1,0.6,0.2c0,0,0.1,0,0.1,0c0,0,0.1,0,0.1,0c0,0,0,0,0,0l0,0c0.2,0.1,0.3,0.1,0.5,0.1
		c0.2,0,0.3,0.1,0.5,0.1c0.3,0,0.6,0.1,0.9,0.1c0.1,0,0.3,0,0.4,0c0,0,0,0,0,0c0,0,0,0,0,0c0,0,0.1,0,0.1,0c0,0,0,0,0,0l0,0l0,0
		c0,0,0.1,0,0.1,0c0,0,0,0,0,0c0.1,0,0.3,0,0.4,0c0.1,0,0.3,0,0.4,0l0,0c0,0,0,0,0,0c0,0,0,0,0,0c0,0,0.1,0,0.1,0c0,0,0,0,0,0
		c0,0,0,0,0,0c0,0,0,0,0,0c0.2,0,0.3-0.1,0.5-0.1c0.4-0.1,0.8-0.3,1.1-0.5c0.7-0.5,1.1-1.1,1.4-1.8c0.1-0.2,0.1-0.4,0.2-0.5
		c0.1-0.2,0.2-0.5,0.3-0.7C1237.7,547.4,1237.7,547,1237.7,546.7z M1234,538.6C1234,538.6,1234,538.6,1234,538.6
		C1234,538.6,1234,538.6,1234,538.6C1234,538.6,1234,538.6,1234,538.6z M1228.9,535.6C1228.9,535.6,1228.9,535.6,1228.9,535.6
		C1228.9,535.6,1228.9,535.6,1228.9,535.6C1228.9,535.6,1228.9,535.6,1228.9,535.6z M1228.8,535.5
		C1228.7,535.5,1228.7,535.5,1228.8,535.5C1228.7,535.5,1228.8,535.5,1228.8,535.5z M1225.2,546C1225.2,546,1225.3,546,1225.2,546
		C1225.3,546,1225.3,546,1225.2,546C1225.3,546,1225.3,546,1225.2,546C1225.3,546,1225.3,546,1225.2,546z M1228.2,549.4
		C1228.3,549.4,1228.3,549.4,1228.2,549.4C1228.3,549.4,1228.3,549.4,1228.2,549.4z M1229.4,549.7
		C1229.4,549.7,1229.4,549.7,1229.4,549.7C1229.4,549.7,1229.4,549.7,1229.4,549.7z M1230.6,550.7
		C1230.6,550.7,1230.6,550.7,1230.6,550.7C1230.6,550.7,1230.6,550.7,1230.6,550.7C1230.6,550.7,1230.6,550.7,1230.6,550.7z
		 M1235.2,548.9C1235.2,548.9,1235.3,548.9,1235.2,548.9C1235.3,548.9,1235.3,548.9,1235.2,548.9
		C1235.3,548.9,1235.2,548.9,1235.2,548.9z M1236,548.6C1236,548.6,1236,548.6,1236,548.6C1236,548.6,1236,548.6,1236,548.6
		C1236,548.6,1236,548.6,1236,548.6z"/>
	<polygon id="XMLID_174_" class="st1" points="1238.3,533.9 1238.3,533.9 1238.3,533.9 	"/>
	<path id="XMLID_169_" class="st1" d="M1234.6,530.3c-0.1,0.5-0.1,1,0.1,1.5c0.1,0.3,0.2,0.5,0.3,0.7c0,0,0,0.1,0.1,0.1c0,0,0,0,0,0
		c0.1,0.2,0.3,0.4,0.5,0.5c0.2,0.3,0.4,0.5,0.7,0.7c0.4,0.3,0.9,0.4,1.4,0.3c0.2,0,0.4-0.1,0.6-0.2c0,0,0,0,0,0h0c0,0,0,0,0,0
		c0,0,0,0,0,0c0,0,0,0,0.1,0c0,0,0,0,0.1,0c0,0,0,0,0,0c0.1,0,0.1-0.1,0.2-0.1c0,0,0,0,0,0s0,0,0,0c0.1,0,0.1-0.1,0.2-0.1
		c0.6-0.3,1.1-0.7,1.5-1.2c0.4-0.4,0.8-0.9,1.1-1.4c0.2-0.3,0.4-0.6,0.5-1c0.2-0.3,0.3-0.7,0.4-1c0-0.1,0.1-0.3,0.1-0.4
		c0-0.2,0.1-0.3,0.1-0.5c0-0.1,0-0.1,0-0.2c0,0,0,0,0,0c0-0.2,0.1-0.3,0-0.5c0,0,0,0,0,0c0,0,0,0,0,0c0,0,0-0.1,0-0.1
		c0-0.4,0-0.8-0.2-1.2c0-0.1-0.1-0.3-0.2-0.4c0-0.1-0.1-0.2-0.2-0.3c0,0,0-0.1-0.1-0.1c0,0,0,0,0,0c-0.3-0.4-0.6-0.7-1.1-0.8
		c-0.4-0.2-0.9-0.3-1.4-0.2c-0.2,0-0.4,0.1-0.7,0.2c0,0-0.1,0-0.1,0c0,0,0,0,0,0l0,0c-0.1,0-0.1,0-0.2,0.1c-0.1,0-0.1,0-0.2,0.1
		c-0.4,0.2-0.7,0.4-1,0.7c0,0-0.1,0.1-0.1,0.1c0,0,0,0,0,0c0,0,0,0,0,0c0,0,0,0,0,0c0,0,0,0,0,0c0,0,0,0,0,0c0,0,0,0,0,0s0,0,0,0
		c0,0,0,0,0,0c0,0,0,0,0,0c0,0-0.1,0-0.1,0.1c-0.4,0.5-0.8,0.9-1.2,1.5c-0.1,0.1-0.1,0.2-0.2,0.3c0,0,0,0,0,0.1c0,0,0,0,0,0
		c0,0-0.1,0.1-0.1,0.1c0,0,0,0,0,0c-0.1,0.1-0.1,0.2-0.1,0.3c0,0-0.1,0.1-0.1,0.1c-0.1,0.1-0.1,0.3-0.2,0.4
		c-0.1,0.2-0.2,0.5-0.3,0.7c0,0,0,0,0,0C1234.8,529.5,1234.7,529.9,1234.6,530.3z M1241.9,525.3
		C1241.9,525.3,1241.9,525.3,1241.9,525.3C1241.9,525.3,1241.9,525.3,1241.9,525.3C1241.9,525.3,1241.9,525.3,1241.9,525.3
		C1241.9,525.3,1241.9,525.3,1241.9,525.3z M1240.3,526.3C1240.3,526.3,1240.3,526.3,1240.3,526.3
		C1240.4,526.3,1240.4,526.3,1240.3,526.3C1240.4,526.3,1240.4,526.3,1240.3,526.3C1240.3,526.3,1240.3,526.3,1240.3,526.3
		C1240.3,526.3,1240.3,526.3,1240.3,526.3z M1236.6,533.6C1236.6,533.6,1236.6,533.6,1236.6,533.6
		C1236.6,533.6,1236.6,533.6,1236.6,533.6C1236.6,533.6,1236.6,533.6,1236.6,533.6z"/>
	<polygon id="XMLID_168_" class="st1" points="1217.8,534.4 1217.8,534.4 1217.8,534.4 	"/>
	<polygon id="XMLID_167_" class="st1" points="1217.8,534.4 1217.8,534.4 1217.8,534.4 	"/>
	<path id="XMLID_160_" class="st1" d="M1221.3,536.2c0.2,0,0.3,0,0.5,0c0.3-0.1,0.5-0.2,0.7-0.3c0.3-0.2,0.5-0.4,0.7-0.7
		c0.1-0.2,0.2-0.3,0.3-0.5c0.1-0.2,0.2-0.3,0.2-0.5c0,0,0,0,0,0c0,0,0-0.1,0-0.1c0,0,0,0,0,0c0,0,0,0,0-0.1c0,0,0,0,0,0
		c0.1,0,0.1-0.1,0.1-0.2c0-0.2,0.1-0.4,0.1-0.6c0,0,0-0.1,0-0.1c0,0,0,0,0,0c0.1-0.1,0.1-0.3,0.1-0.4c0-0.3,0.1-0.6,0-0.9
		c0-0.1,0-0.3,0-0.4c-0.1-0.6-0.2-1.1-0.5-1.6c-0.1-0.2-0.3-0.4-0.4-0.6c0-0.1-0.1-0.1-0.2-0.2c0,0,0,0,0,0c0,0,0-0.1-0.1-0.1
		c0,0,0,0,0,0c-0.1-0.1-0.3-0.3-0.4-0.3c0,0,0,0,0,0c0,0,0,0-0.1-0.1c-0.4-0.3-0.8-0.4-1.3-0.4c-0.7-0.1-1.4,0.1-2,0.5
		c-0.4,0.2-0.7,0.5-0.9,0.9c-0.1,0.2-0.3,0.4-0.3,0.6l0,0c0,0,0,0,0,0c0,0,0,0,0,0c-0.1,0.1-0.1,0.2-0.1,0.2c0,0,0,0,0,0.1
		c0,0,0,0,0,0c0,0,0,0-0.1,0.1c-0.2,0.4-0.2,0.8-0.3,1.2c0,0.1,0,0.1,0,0.2c0,0.1,0,0.1,0,0.2c0,0,0,0,0,0c0,0,0,0,0,0c0,0,0,0,0,0
		c0,0.3,0,0.6,0,0.9c0,0.1,0,0.3,0.1,0.4c0,0,0,0.1,0,0.1c0,0,0,0,0,0s0,0,0,0l0,0c0,0,0,0,0,0.1c0,0,0,0,0,0c0,0,0,0,0-0.1
		c0,0,0,0,0,0.1c0,0.1,0,0.1,0,0.1c0,0,0,0,0,0c0,0,0,0,0,0c0,0,0,0,0,0.1c0,0,0,0,0,0c0,0,0,0,0,0c0,0,0,0,0,0c0,0,0,0,0,0.1
		c0,0.1,0,0.1,0.1,0.2c0,0,0,0.1,0,0.1c0,0,0,0,0,0s0,0,0,0l0,0c0,0,0,0,0,0l0,0c0,0,0,0,0,0.1c0,0,0,0,0,0.1c0,0,0,0,0,0.1
		c0,0,0,0,0,0c0,0,0,0,0-0.1c0,0,0,0,0,0.1c0,0,0,0,0,0c0,0,0,0,0,0l0,0c0,0,0,0,0,0c0.1,0.3,0.2,0.5,0.4,0.7c0,0,0,0,0,0
		c0,0,0,0.1,0.1,0.1c0,0,0,0,0,0c0,0,0,0.1,0.1,0.1c0,0,0,0,0,0c0,0,0,0,0,0c0,0,0,0,0,0c0,0,0,0,0,0c0,0,0,0,0,0
		c0.1,0.1,0.3,0.3,0.4,0.4c0,0,0,0,0,0c0.2,0.2,0.4,0.3,0.7,0.4c0.1,0.1,0.3,0.1,0.5,0.1c0.3,0.1,0.6,0.1,0.9,0
		C1221.1,536.2,1221.2,536.2,1221.3,536.2z M1217.6,534C1217.6,534,1217.6,534,1217.6,534C1217.6,534,1217.6,534,1217.6,534
		C1217.7,534,1217.6,534,1217.6,534z M1219.1,530.4C1219.1,530.4,1219.1,530.4,1219.1,530.4C1219.1,530.4,1219.1,530.4,1219.1,530.4
		C1219.1,530.4,1219.1,530.4,1219.1,530.4C1219.1,530.4,1219.1,530.4,1219.1,530.4z M1221.5,529.9
		C1221.5,529.9,1221.5,529.9,1221.5,529.9C1221.5,529.9,1221.5,529.9,1221.5,529.9C1221.5,529.9,1221.5,529.9,1221.5,529.9z
		 M1218.3,535.3C1218.3,535.3,1218.3,535.2,1218.3,535.3C1218.3,535.2,1218.3,535.2,1218.3,535.3
		C1218.3,535.2,1218.3,535.3,1218.3,535.3C1218.3,535.3,1218.3,535.3,1218.3,535.3z M1218.7,534.3
		C1218.7,534.3,1218.7,534.3,1218.7,534.3C1218.8,534.3,1218.8,534.3,1218.7,534.3C1218.8,534.3,1218.8,534.3,1218.7,534.3z"/>
	<path id="XMLID_154_" class="st1" d="M1246.1,536.6c0-0.1,0-0.1,0-0.2l0,0c0-0.2,0-0.4-0.1-0.6c0-0.1,0-0.2-0.1-0.3c0,0,0,0,0,0
		c0-0.1,0-0.2-0.1-0.2c-0.1-0.3-0.3-0.6-0.6-0.8c-0.2-0.2-0.5-0.3-0.8-0.5c0,0-0.1,0-0.1,0c-0.2,0-0.3-0.1-0.5-0.1
		c-0.3,0-0.5,0-0.8,0c-0.5,0.1-1.1,0.3-1.5,0.5c-0.4,0.2-0.8,0.5-1.1,0.8c-0.1,0.1-0.2,0.2-0.3,0.3c0,0-0.1,0-0.1,0.1
		c-0.1,0.1-0.2,0.3-0.3,0.4c-0.2,0.2-0.4,0.5-0.5,0.8c-0.1,0.2-0.2,0.3-0.3,0.4c-0.2,0.2-0.3,0.5-0.4,0.8c0,0.1-0.1,0.2,0,0.3
		c0,0,0,0,0,0c0,0.2,0,0.5,0,0.7l0,0c0,0.1,0,0.1,0,0.2c0.1,0.2,0.2,0.4,0.3,0.6c0.1,0.1,0.2,0.3,0.3,0.3c0,0.1,0.1,0.1,0.1,0.1
		c0.3,0.2,0.5,0.3,0.9,0.4c0.1,0,0.1,0,0.2,0.1c0.1,0,0.3,0.1,0.4,0c0,0,0,0,0,0l0,0c0,0,0,0,0,0s0,0,0,0c0,0,0.1,0,0.1,0
		c0.7,0,1.3,0,1.9-0.2c0.2-0.1,0.5-0.2,0.7-0.3c0.4-0.2,0.8-0.5,1.2-0.8c0.1-0.1,0.2-0.2,0.3-0.3c0,0,0.1,0,0.1-0.1
		c0,0,0.1-0.1,0.1-0.1c0,0,0,0,0,0c0.1-0.1,0.2-0.2,0.2-0.3c0,0,0.1-0.1,0.1-0.1c0,0,0.1-0.1,0.1-0.1l0,0c0,0,0,0,0,0
		c0,0,0.1-0.1,0.1-0.1l0,0c0,0,0,0,0-0.1c0,0,0,0,0,0c0.1-0.2,0.2-0.3,0.2-0.5c0,0,0,0,0,0c0,0,0,0,0.1-0.1
		C1246,537.2,1246.1,536.9,1246.1,536.6z M1239.6,538.1C1239.6,538.1,1239.6,538.1,1239.6,538.1
		C1239.6,538.1,1239.6,538.1,1239.6,538.1C1239.6,538.1,1239.6,538.1,1239.6,538.1z M1239.8,540.1
		C1239.9,540.1,1239.9,540.1,1239.8,540.1C1239.9,540.1,1239.9,540.1,1239.8,540.1z M1240.8,540.6
		C1240.8,540.6,1240.8,540.6,1240.8,540.6C1240.8,540.6,1240.8,540.6,1240.8,540.6C1240.8,540.6,1240.8,540.6,1240.8,540.6z
		 M1245.2,537.4C1245.2,537.4,1245.2,537.4,1245.2,537.4C1245.2,537.4,1245.2,537.4,1245.2,537.4
		C1245.2,537.4,1245.2,537.4,1245.2,537.4z"/>
	<path id="XMLID_153_" class="st1" d="M1234.9,536.7C1234.9,536.7,1234.9,536.7,1234.9,536.7
		C1234.9,536.7,1234.9,536.7,1234.9,536.7z"/>
	<path id="XMLID_152_" class="st1" d="M1217.8,534.3C1217.8,534.3,1217.7,534.3,1217.8,534.3
		C1217.7,534.3,1217.7,534.3,1217.8,534.3z"/>
	<path id="XMLID_151_" class="st1" d="M1219.1,546.1C1219.1,546.1,1219.1,546,1219.1,546.1C1219.1,546.1,1219.1,546.1,1219.1,546.1z
		"/>
</g>
<g id="XMLID_113_" class="st3">
	<path id="XMLID_149_" class="st1" d="M1230.9,680.4c-0.1,0.2-0.3,0.4-0.4,0.6c-0.3,0.4-0.5,0.8-0.6,1.3c-0.2,0.6-0.3,1.2-0.2,1.9
		c0,0.3,0.1,0.6,0.2,0.9c0.1,0.1,0.1,0.3,0.2,0.4c0.1,0.1,0.1,0.3,0.1,0.4c0.2,0.4,0.4,0.8,0.8,1.1c0.4,0.3,0.9,0.5,1.4,0.5
		c0.3,0,0.6-0.1,0.9-0.2c0.7-0.2,1.3-0.6,1.8-1.1c0.3-0.3,0.6-0.6,0.8-0.9c0,0,0,0,0-0.1c0.1-0.1,0.2-0.1,0.2-0.3
		c0,0,0.1-0.1,0.1-0.1c0.1-0.2,0.3-0.4,0.4-0.6c0.1-0.2,0.2-0.4,0.3-0.6c0,0,0.1-0.1,0-0.1c0,0,0,0,0,0c0,0,0.1-0.1,0.1-0.1
		c0.1-0.2,0.2-0.4,0.2-0.6c0.1-0.2,0.2-0.5,0.2-0.8c0-0.1,0-0.3,0.1-0.4c0-0.3,0-0.5,0-0.8c-0.1-0.3-0.2-0.7-0.4-1
		c-0.1-0.1-0.1-0.2-0.2-0.3c0,0,0,0,0,0c0,0,0-0.1,0-0.1c-0.2-0.2-0.4-0.4-0.7-0.6c-0.4-0.2-0.8-0.4-1.2-0.5c-0.3,0-0.6-0.1-1,0
		c-0.2,0-0.5,0.1-0.7,0.2c-0.3,0.1-0.6,0.3-0.9,0.4c-0.1,0.1-0.2,0.1-0.3,0.2c-0.1,0-0.2,0.1-0.2,0.2c0,0,0,0,0,0
		c-0.1,0-0.1,0-0.1,0.1C1231.5,679.7,1231.2,680,1230.9,680.4z"/>
	<path id="XMLID_138_" class="st1" d="M1232.8,703.9c0.2-0.5,0.4-1.1,0.6-1.7c0.2-0.6,0.4-1.2,0.6-1.9c0.1-0.5,0.2-0.9,0.3-1.4
		c0.2-0.7,0.3-1.5,0.4-2.2c0-0.2,0.1-0.4,0.1-0.6c0,0,0-0.1,0-0.1c0-0.3,0-0.6,0.1-1c0,0,0-0.1,0-0.1c0-0.1,0-0.2,0-0.3c0,0,0,0,0,0
		c0-0.2,0-0.4,0-0.6c0-0.1,0-0.2,0-0.3l0,0c0,0,0,0,0-0.1l0,0c0-0.1,0-0.1,0-0.1c0,0,0,0,0,0l0,0c0,0,0,0,0,0c0,0,0,0,0,0l0,0
		c0,0,0,0,0-0.1c0,0,0,0,0-0.1l0,0c0,0,0,0,0,0s0,0,0,0s0,0,0,0c0,0,0,0,0,0c0,0,0,0,0,0v0c0,0,0,0,0,0.1c0,0,0,0,0,0c0,0,0,0,0-0.1
		c0,0,0,0,0-0.1c0,0,0-0.1,0-0.1c0-0.3-0.1-0.6-0.2-1c-0.1-0.7-0.3-1.3-0.7-1.9c-0.1-0.2-0.1-0.3-0.3-0.4c0,0,0,0,0,0c0,0,0,0,0,0
		c-0.1-0.1-0.2-0.2-0.3-0.3c-0.1-0.1-0.1-0.1-0.1-0.2c-0.1-0.1-0.1-0.1-0.2-0.2c-0.2-0.1-0.3-0.3-0.5-0.4c-0.2-0.1-0.3-0.2-0.5-0.3
		c0,0,0,0,0,0c0,0-0.1,0-0.1,0c0,0,0,0,0,0c0,0,0,0,0,0c0,0,0,0,0,0c-0.1-0.1-0.2-0.1-0.3-0.1c-0.4-0.1-0.8-0.3-1.2-0.3
		c-0.2,0-0.3-0.1-0.5,0c0,0-0.1,0-0.1,0c-0.2,0-0.4,0-0.7,0c-0.3,0-0.6,0-0.9,0c-0.1,0-0.2,0-0.4,0c0,0,0,0,0,0c0,0,0,0,0,0
		c0,0,0,0,0,0c-0.1,0-0.1,0-0.2,0c-0.6,0.1-1.2,0.2-1.8,0.3c-0.7,0.2-1.4,0.3-2,0.6c-0.6,0.2-1.2,0.4-1.7,0.6c0,0-0.1,0-0.1,0.1
		c-0.2,0-0.4,0.1-0.5,0.2c0,0,0,0,0,0c-0.1,0-0.1,0-0.2,0c-0.2,0.1-0.3,0.1-0.5,0.2c-0.3,0.1-0.7,0.3-1,0.5
		c-0.3,0.2-0.6,0.4-0.9,0.6c-0.3,0.2-0.6,0.4-0.8,0.7c-0.1,0.1-0.2,0.2-0.2,0.2c-0.1,0.1-0.3,0.3-0.4,0.4c-0.1,0.2-0.3,0.4-0.4,0.6
		c0,0.1-0.1,0.1-0.1,0.2c-0.1,0.1-0.1,0.2-0.1,0.3l0,0c0,0,0,0,0,0.1c-0.2,0.4-0.3,0.7-0.3,1.1c0,0.2-0.1,0.3,0,0.5c0,0,0,0,0,0
		c0,0,0,0,0,0.1l0,0c0,0.1,0,0.3,0,0.4c0,0,0,0,0,0c0,0.1,0,0.2,0,0.3c0,0,0,0,0,0c0,0.2,0.1,0.3,0.1,0.5c0.1,0.2,0.1,0.4,0.2,0.6
		c0,0,0,0,0,0c0.1,0.2,0.2,0.4,0.3,0.6c0,0.1,0,0.1,0.1,0.1c0,0,0,0,0,0c0,0,0,0.1,0,0.1c0.1,0.2,0.2,0.3,0.3,0.5
		c0.2,0.3,0.4,0.5,0.7,0.7c0.4,0.3,0.7,0.7,1.1,1c0.6,0.5,1.1,1.1,1.7,1.6c0.1,0.1,0.1,0.1,0.2,0.2c0,0,0,0,0,0c0,0,0,0,0.1,0.1
		c0,0,0,0,0,0s0,0,0,0c0.1,0.1,0.2,0.1,0.2,0.2c0,0,0,0,0,0c0.1,0.1,0.1,0.1,0.2,0.2c0,0,0,0,0,0c0.1,0.1,0.1,0.1,0.2,0.2
		c0.6,0.6,1.2,1.2,1.8,1.7c0.2,0.1,0.3,0.3,0.5,0.4c0,0,0.1,0.1,0.1,0.1c0,0,0.1,0.1,0.1,0.1c0,0,0,0,0,0l0,0
		c0.1,0.1,0.3,0.2,0.4,0.3c0.1,0.1,0.3,0.2,0.4,0.3c0.2,0.2,0.5,0.3,0.7,0.5c0.1,0.1,0.2,0.2,0.4,0.2c0,0,0,0,0,0c0,0,0,0,0,0
		c0,0,0.1,0,0.1,0c0,0,0,0,0,0l0,0l0,0c0,0,0.1,0.1,0.1,0.1c0,0,0,0,0,0c0.1,0.1,0.2,0.1,0.3,0.2c0.1,0.1,0.2,0.1,0.4,0.1l0,0
		c0,0,0,0,0,0c0,0,0,0,0,0c0,0,0.1,0,0.1,0c0,0,0,0,0,0c0,0,0,0,0,0c0,0,0,0,0,0c0.2,0.1,0.3,0.1,0.5,0.1c0.4,0.1,0.8,0.1,1.2,0.1
		c0.8-0.1,1.5-0.5,2.1-1c0.1-0.1,0.3-0.3,0.4-0.4c0.2-0.2,0.4-0.3,0.6-0.5C1232.5,704.5,1232.7,704.2,1232.8,703.9z M1233.1,695
		C1233.1,695,1233.1,695,1233.1,695C1233.1,695,1233.1,695,1233.1,695C1233.1,695,1233.1,695,1233.1,695z M1230,690.1
		C1229.9,690.1,1229.9,690.1,1230,690.1C1229.9,690,1229.9,690,1230,690.1C1229.9,690,1229.9,690.1,1230,690.1z M1229.8,689.9
		C1229.8,689.9,1229.8,689.9,1229.8,689.9C1229.8,689.9,1229.8,689.9,1229.8,689.9z M1222,697.7C1222,697.7,1222,697.7,1222,697.7
		C1222,697.7,1222,697.7,1222,697.7C1222,697.7,1222,697.7,1222,697.7C1222,697.7,1222,697.7,1222,697.7z M1223.2,702.1
		C1223.2,702.1,1223.2,702.1,1223.2,702.1C1223.1,702.1,1223.1,702.1,1223.2,702.1z M1224,702.9C1224,702.9,1224,702.9,1224,702.9
		C1224,702.9,1224,702.9,1224,702.9z M1224.7,704.4C1224.7,704.4,1224.7,704.4,1224.7,704.4C1224.7,704.4,1224.7,704.4,1224.7,704.4
		C1224.7,704.4,1224.7,704.4,1224.7,704.4z M1229.7,704.8C1229.7,704.8,1229.7,704.8,1229.7,704.8
		C1229.7,704.8,1229.7,704.8,1229.7,704.8C1229.7,704.8,1229.7,704.8,1229.7,704.8z M1230.4,704.8
		C1230.4,704.8,1230.4,704.8,1230.4,704.8C1230.4,704.8,1230.4,704.8,1230.4,704.8C1230.4,704.8,1230.4,704.8,1230.4,704.8z"/>
	<polygon id="XMLID_137_" class="st1" points="1239.1,692.8 1239.1,692.8 1239.1,692.8 	"/>
	<path id="XMLID_132_" class="st1" d="M1237.4,687.9c-0.3,0.4-0.5,0.9-0.6,1.4c-0.1,0.3-0.1,0.5,0,0.8c0,0,0,0.1,0,0.1c0,0,0,0,0,0
		c0,0.2,0.1,0.5,0.2,0.7c0,0.3,0.2,0.6,0.3,0.9c0.3,0.4,0.6,0.7,1.1,0.9c0.2,0.1,0.4,0.1,0.6,0.1c0,0,0,0,0,0l0,0c0,0,0,0,0,0
		c0,0,0,0,0,0c0,0,0,0,0.1,0c0,0,0,0,0.1,0c0,0,0,0,0,0c0.1,0,0.2,0,0.2,0c0,0,0,0,0,0s0,0,0,0c0.1,0,0.1,0,0.2,0
		c0.7-0.1,1.3-0.2,1.9-0.4c0.6-0.2,1.1-0.4,1.6-0.8c0.3-0.2,0.6-0.4,0.9-0.6c0.3-0.2,0.6-0.5,0.8-0.8c0.1-0.1,0.2-0.2,0.3-0.4
		c0.1-0.1,0.2-0.3,0.3-0.4c0-0.1,0.1-0.1,0.1-0.2c0,0,0,0,0,0c0.1-0.1,0.2-0.3,0.2-0.4c0,0,0,0,0,0c0,0,0,0,0,0c0,0,0.1-0.1,0.1-0.1
		c0.2-0.4,0.3-0.7,0.4-1.1c0-0.1,0.1-0.3,0-0.4c0-0.1,0-0.2,0-0.4c0,0,0-0.1,0-0.1c0,0,0,0,0-0.1c-0.1-0.5-0.3-0.9-0.6-1.2
		c-0.3-0.4-0.7-0.6-1.1-0.8c-0.2-0.1-0.4-0.1-0.7-0.1c0,0-0.1,0-0.1,0c0,0,0,0,0,0h0c-0.1,0-0.1,0-0.2,0c-0.1,0-0.1,0-0.2,0
		c-0.4,0-0.8,0.1-1.2,0.2c0,0-0.1,0-0.1,0c0,0,0,0-0.1,0c0,0,0,0,0,0c0,0,0,0-0.1,0c0,0,0,0,0,0c0,0,0,0-0.1,0c0,0,0,0,0,0
		c0,0,0,0,0,0c0,0,0,0,0,0c0,0,0,0,0,0c0,0-0.1,0-0.1,0c-0.6,0.2-1.2,0.5-1.7,0.8c-0.1,0.1-0.2,0.1-0.3,0.2c0,0,0,0-0.1,0
		c0,0,0,0,0,0c-0.1,0-0.1,0-0.1,0.1c0,0,0,0,0,0c-0.1,0-0.2,0.1-0.2,0.2c0,0-0.1,0-0.1,0.1c-0.1,0.1-0.2,0.2-0.4,0.3
		c-0.2,0.2-0.4,0.4-0.6,0.5c0,0,0,0,0,0C1237.9,687.2,1237.6,687.5,1237.4,687.9z M1246.2,686.6
		C1246.2,686.6,1246.2,686.6,1246.2,686.6C1246.2,686.7,1246.2,686.7,1246.2,686.6C1246.2,686.6,1246.2,686.6,1246.2,686.6
		C1246.2,686.6,1246.2,686.6,1246.2,686.6z M1244.3,686.9C1244.3,686.8,1244.3,686.8,1244.3,686.9
		C1244.3,686.9,1244.3,686.9,1244.3,686.9C1244.3,686.9,1244.3,686.9,1244.3,686.9C1244.3,686.9,1244.3,686.9,1244.3,686.9
		C1244.3,686.9,1244.3,686.9,1244.3,686.9z M1237.6,691.7C1237.6,691.7,1237.6,691.7,1237.6,691.7
		C1237.6,691.7,1237.6,691.7,1237.6,691.7C1237.6,691.7,1237.6,691.7,1237.6,691.7z"/>
	<polygon id="XMLID_131_" class="st1" points="1220.5,684 1220.5,684 1220.5,684.1 	"/>
	<polygon id="XMLID_130_" class="st1" points="1220.5,684 1220.5,684 1220.5,684 	"/>
	<path id="XMLID_123_" class="st1" d="M1222.8,687.2c0.1,0.1,0.3,0.2,0.5,0.2c0.3,0.1,0.5,0.1,0.8,0.1c0.3,0,0.6-0.1,0.9-0.3
		c0.1-0.1,0.3-0.2,0.4-0.3c0.1-0.1,0.3-0.2,0.4-0.4c0,0,0,0,0,0c0,0,0.1-0.1,0.1-0.1c0,0,0,0,0,0c0,0,0,0,0.1-0.1c0,0,0,0,0,0
		c0.1,0,0.1-0.1,0.2-0.1c0.1-0.2,0.3-0.3,0.4-0.4c0,0,0.1-0.1,0.1-0.1c0,0,0,0,0,0c0.1-0.1,0.2-0.2,0.3-0.3c0.2-0.2,0.3-0.5,0.4-0.8
		c0-0.1,0.1-0.2,0.1-0.4c0.2-0.5,0.3-1.1,0.3-1.7c0-0.3-0.1-0.5-0.1-0.7c0-0.1,0-0.1-0.1-0.2c0,0,0,0,0,0c0,0,0-0.1,0-0.1
		c0,0,0,0,0,0c0-0.2-0.1-0.4-0.2-0.5c0,0,0,0,0,0c0,0,0-0.1,0-0.1c-0.2-0.4-0.6-0.7-0.9-1c-0.6-0.4-1.3-0.5-2-0.4
		c-0.4,0-0.8,0.2-1.2,0.4c-0.2,0.1-0.4,0.2-0.5,0.4l0,0c0,0,0,0,0,0c0,0,0,0,0,0c-0.1,0-0.1,0.1-0.2,0.2c0,0,0,0-0.1,0.1
		c0,0,0,0,0,0c0,0-0.1,0-0.1,0c-0.3,0.3-0.6,0.6-0.8,1c0,0.1-0.1,0.1-0.1,0.2c0,0-0.1,0.1-0.1,0.1c0,0,0,0,0,0c0,0,0,0,0,0
		c0,0,0,0,0,0c-0.2,0.3-0.3,0.5-0.4,0.8c0,0.1-0.1,0.2-0.1,0.4c0,0,0,0.1,0,0.1c0,0,0,0,0,0s0,0,0,0l0,0c0,0,0,0,0,0.1c0,0,0,0,0,0
		c0,0,0,0,0-0.1c0,0,0,0,0,0.1c0,0,0,0.1,0,0.1c0,0,0,0,0,0c0,0,0,0,0,0c0,0,0,0,0,0.1c0,0,0,0,0,0c0,0,0,0,0,0c0,0,0,0,0,0.1
		c0,0,0,0,0,0.1c0,0.1,0,0.1,0,0.2c0,0,0,0.1,0,0.1c0,0,0,0,0,0s0,0,0,0l0,0c0,0,0,0,0,0.1v0c0,0,0,0,0,0.1c0,0,0,0,0,0.1
		c0,0,0,0,0,0.1c0,0,0,0,0,0c0,0,0,0,0-0.1c0,0,0,0,0,0.1c0,0,0,0,0,0c0,0,0,0,0,0h0c0,0,0,0,0,0c0,0.3,0,0.5,0.1,0.8c0,0,0,0,0,0
		c0,0,0,0.1,0,0.1c0,0,0,0,0,0.1c0,0,0,0.1,0,0.1c0,0,0,0,0,0.1c0,0,0,0,0,0c0,0,0,0,0,0c0,0,0,0,0,0c0,0,0,0,0,0.1
		c0.1,0.2,0.1,0.4,0.2,0.5c0,0,0,0,0,0c0.1,0.3,0.3,0.4,0.4,0.6c0.1,0.1,0.2,0.2,0.4,0.3c0.3,0.2,0.5,0.3,0.8,0.4
		C1222.6,687.1,1222.7,687.2,1222.8,687.2z M1220.6,683.6C1220.6,683.6,1220.6,683.6,1220.6,683.6
		C1220.6,683.6,1220.6,683.6,1220.6,683.6C1220.6,683.6,1220.6,683.6,1220.6,683.6z M1223.4,681C1223.4,681,1223.4,681,1223.4,681
		C1223.4,681,1223.4,681,1223.4,681C1223.4,681,1223.4,681,1223.4,681C1223.4,681,1223.4,681,1223.4,681z M1225.8,681.6
		C1225.8,681.6,1225.8,681.6,1225.8,681.6C1225.8,681.6,1225.8,681.6,1225.8,681.6C1225.8,681.6,1225.8,681.6,1225.8,681.6z
		 M1220.6,685C1220.6,685,1220.6,685,1220.6,685C1220.6,685,1220.6,685,1220.6,685C1220.6,685,1220.6,685,1220.6,685
		C1220.6,685,1220.6,685,1220.6,685z M1221.4,684.4C1221.4,684.4,1221.4,684.4,1221.4,684.4C1221.4,684.4,1221.4,684.4,1221.4,684.4
		C1221.4,684.4,1221.4,684.4,1221.4,684.4z"/>
	<path id="XMLID_117_" class="st1" d="M1244.9,698.6c0-0.1,0.1-0.1,0.1-0.2l0,0c0.1-0.2,0.2-0.4,0.2-0.6c0-0.1,0.1-0.2,0-0.3
		c0,0,0,0,0,0c0-0.1,0-0.2,0-0.3c0-0.3,0-0.7-0.2-1c-0.1-0.3-0.3-0.5-0.5-0.8c0,0-0.1-0.1-0.1-0.1c-0.1-0.1-0.3-0.2-0.4-0.3
		c-0.2-0.2-0.5-0.3-0.7-0.3c-0.5-0.1-1.1-0.2-1.6-0.2c-0.5,0-0.9,0.1-1.4,0.2c-0.1,0-0.3,0-0.4,0.1c0,0-0.1,0-0.1,0
		c-0.2,0.1-0.3,0.1-0.5,0.2c-0.3,0.1-0.6,0.3-0.8,0.5c-0.1,0.1-0.3,0.2-0.4,0.3c-0.3,0.1-0.5,0.3-0.7,0.6c-0.1,0.1-0.1,0.2-0.2,0.3
		c0,0,0,0,0,0c-0.1,0.2-0.2,0.4-0.3,0.6l0,0c0,0.1,0,0.1,0,0.2c0,0.2,0,0.5,0,0.7c0,0.2,0.1,0.3,0.1,0.5c0,0.1,0,0.1,0,0.2
		c0.2,0.3,0.3,0.5,0.6,0.7c0,0,0.1,0.1,0.1,0.1c0.1,0.1,0.2,0.2,0.3,0.2c0,0,0,0,0,0l0,0c0,0,0,0,0,0s0,0,0,0c0,0,0,0,0.1,0.1
		c0.6,0.3,1.2,0.6,1.8,0.6c0.2,0,0.5,0.1,0.7,0.1c0.5,0,0.9-0.1,1.4-0.2c0.1,0,0.2-0.1,0.4-0.1c0,0,0.1,0,0.1,0c0.1,0,0.1,0,0.1-0.1
		c0,0,0,0,0,0c0.1,0,0.2-0.1,0.3-0.1c0.1,0,0.1,0,0.1-0.1c0.1,0,0.1,0,0.1-0.1l0,0c0,0,0,0,0,0c0.1,0,0.1,0,0.1-0.1l0,0
		c0,0,0,0,0.1,0c0,0,0,0,0,0c0.1-0.1,0.3-0.2,0.4-0.3c0,0,0,0,0,0c0,0,0.1,0,0.1,0C1244.4,699.1,1244.7,698.9,1244.9,698.6z
		 M1238.4,697.1C1238.4,697.1,1238.4,697.1,1238.4,697.1C1238.4,697.1,1238.4,697.1,1238.4,697.1
		C1238.4,697.1,1238.4,697.1,1238.4,697.1z M1237.7,698.9C1237.7,698.9,1237.7,699,1237.7,698.9
		C1237.7,699,1237.7,698.9,1237.7,698.9z M1238.3,699.8C1238.3,699.8,1238.3,699.8,1238.3,699.8
		C1238.3,699.8,1238.3,699.8,1238.3,699.8C1238.3,699.8,1238.3,699.8,1238.3,699.8z M1243.6,698.9
		C1243.6,698.9,1243.6,698.9,1243.6,698.9C1243.6,698.9,1243.6,698.9,1243.6,698.9C1243.6,698.9,1243.6,698.9,1243.6,698.9z"/>
	<path id="XMLID_116_" class="st1" d="M1234.8,693.7C1234.8,693.7,1234.8,693.7,1234.8,693.7
		C1234.8,693.7,1234.8,693.7,1234.8,693.7z"/>
	<path id="XMLID_115_" class="st1" d="M1220.5,683.9C1220.5,683.9,1220.5,683.9,1220.5,683.9
		C1220.5,683.9,1220.5,683.9,1220.5,683.9z"/>
	<path id="XMLID_114_" class="st1" d="M1216.5,695.1C1216.5,695,1216.5,695,1216.5,695.1C1216.5,695,1216.5,695,1216.5,695.1z"/>
</g>
<g id="XMLID_39_" class="st4">
	<path id="XMLID_75_" class="st1" d="M140.1,100.5c-0.1,0.4-0.1,0.7-0.2,1.1c-0.1,0.7,0,1.5,0.1,2.2c0.2,1,0.5,1.9,1.1,2.7
		c0.3,0.4,0.6,0.8,1,1.1c0.2,0.1,0.4,0.3,0.5,0.4c0.2,0.1,0.3,0.3,0.4,0.5c0.5,0.5,1.1,0.8,1.8,0.9c0.8,0.1,1.5,0,2.3-0.3
		c0.4-0.2,0.8-0.5,1.1-0.9c0.8-0.8,1.3-1.8,1.7-2.8c0.2-0.6,0.4-1.2,0.5-1.8c0,0,0-0.1,0-0.1c0-0.2,0.1-0.3,0.1-0.5
		c0-0.1,0.1-0.2,0.1-0.2c0-0.4,0.1-0.8,0.1-1.1c0-0.4,0-0.7,0-1.1c0-0.1,0-0.1,0-0.2c0,0,0,0,0,0c0-0.1,0-0.2,0-0.3
		c0-0.3-0.1-0.6-0.1-1c0-0.4-0.1-0.8-0.2-1.2c-0.1-0.2-0.1-0.4-0.2-0.7c-0.2-0.4-0.3-0.7-0.6-1c-0.3-0.4-0.8-0.8-1.2-1.1
		c-0.2-0.1-0.3-0.2-0.5-0.2c0,0,0,0,0,0c0,0-0.1-0.1-0.1-0.1c-0.5-0.1-0.9-0.3-1.4-0.4c-0.7-0.1-1.3,0-2,0.2
		c-0.5,0.2-0.9,0.4-1.3,0.7c-0.3,0.2-0.6,0.4-0.8,0.8c-0.4,0.3-0.6,0.8-0.9,1.2c-0.1,0.1-0.2,0.3-0.2,0.4c-0.1,0.1-0.1,0.3-0.2,0.4
		c0,0,0,0,0,0c-0.1,0-0.1,0.1-0.1,0.2C140.5,99.1,140.2,99.8,140.1,100.5z"/>
	<path id="XMLID_64_" class="st1" d="M159.8,132c-0.1-0.9-0.2-1.9-0.3-2.8c-0.2-1-0.3-2-0.6-3c-0.2-0.8-0.3-1.5-0.6-2.2
		c-0.3-1.1-0.7-2.2-1.1-3.3c-0.1-0.3-0.2-0.6-0.4-0.9c0,0,0-0.1,0-0.1c-0.2-0.5-0.4-0.9-0.6-1.4c0-0.1-0.1-0.1-0.1-0.2
		c0-0.1-0.1-0.3-0.2-0.4c0,0,0,0,0,0c-0.1-0.3-0.3-0.6-0.4-0.9c-0.1-0.1-0.1-0.3-0.2-0.4l0,0c0,0,0-0.1,0-0.1l0,0
		c0-0.1-0.1-0.1-0.1-0.2c0,0,0,0,0,0l0,0c0,0,0,0,0,0c0,0,0,0,0,0l0,0c0,0,0-0.1,0-0.1c0,0,0-0.1,0-0.1l0,0c0,0,0,0,0,0c0,0,0,0,0,0
		c0,0,0,0,0,0c0,0,0,0,0,0c0,0,0,0,0,0l0,0c0,0,0,0.1,0,0.1c0,0,0,0,0,0c0,0,0,0,0-0.1c0,0,0-0.1,0-0.1c0,0,0-0.1-0.1-0.1
		c-0.3-0.4-0.6-0.8-0.9-1.2c-0.7-0.8-1.4-1.6-2.3-2.1c-0.2-0.1-0.4-0.3-0.7-0.4c0,0,0,0,0,0c0,0,0,0,0,0c-0.2-0.1-0.4-0.2-0.6-0.3
		c-0.1,0-0.2-0.1-0.3-0.1c-0.1-0.1-0.3-0.1-0.4-0.1c-0.4,0-0.7-0.2-1-0.2c-0.3,0-0.6-0.1-0.9,0c0,0,0,0-0.1,0c-0.1,0-0.1,0-0.1,0
		c0,0,0,0,0,0c0,0,0,0-0.1,0c0,0,0,0,0,0c-0.1,0-0.3,0-0.4,0c-0.7,0.1-1.3,0.2-2,0.5c-0.2,0.1-0.5,0.1-0.7,0.3c-0.1,0-0.1,0-0.2,0
		c-0.3,0.1-0.6,0.3-0.9,0.5c-0.4,0.2-0.8,0.5-1.2,0.7c-0.2,0.1-0.3,0.2-0.5,0.3c0,0,0,0-0.1,0c0,0,0,0,0,0c0,0,0,0,0,0
		c-0.1,0-0.2,0.1-0.2,0.1c-0.8,0.5-1.5,1.1-2.3,1.8c-0.8,0.7-1.7,1.5-2.4,2.2c-0.7,0.7-1.3,1.4-2,2.1c0,0-0.1,0.1-0.1,0.2
		c-0.2,0.2-0.4,0.4-0.6,0.7c0,0,0,0,0,0c-0.1,0.1-0.1,0.1-0.2,0.2c-0.2,0.2-0.4,0.4-0.6,0.7c-0.4,0.4-0.7,0.9-1,1.3
		c-0.3,0.5-0.6,1-0.9,1.5c-0.3,0.5-0.5,1-0.7,1.6c-0.1,0.2-0.1,0.3-0.2,0.5c-0.1,0.3-0.2,0.5-0.2,0.8c-0.1,0.4-0.1,0.7-0.1,1.1
		c0,0.1,0,0.2,0,0.3c0,0.2,0,0.3,0,0.4h0c0,0,0,0.1,0,0.1c0,0.6,0.2,1.2,0.4,1.7c0.1,0.2,0.1,0.5,0.3,0.7c0,0,0,0,0,0
		c0,0,0,0.1,0,0.1l0,0c0.1,0.2,0.2,0.4,0.3,0.5c0,0,0,0,0,0c0,0.1,0.1,0.2,0.2,0.3c0,0,0,0,0,0c0.1,0.2,0.3,0.4,0.5,0.6
		c0.2,0.2,0.5,0.5,0.7,0.7c0,0,0,0,0,0c0.3,0.3,0.6,0.5,0.9,0.7c0,0.1,0.1,0.1,0.2,0.1c0,0,0,0,0,0c0,0,0.1,0.1,0.1,0.1
		c0.3,0.1,0.5,0.3,0.8,0.4c0.5,0.2,0.9,0.4,1.4,0.5c0.7,0.2,1.5,0.4,2.2,0.6c1.2,0.3,2.3,0.7,3.5,1c0.2,0,0.3,0.1,0.5,0.1
		c0,0,0,0,0,0c0,0,0.1,0,0.1,0c0,0,0,0,0,0c0,0,0,0,0,0c0.2,0,0.3,0.1,0.5,0.1c0,0,0,0,0,0c0.1,0,0.2,0.1,0.4,0.1c0,0,0,0,0,0
		c0.2,0,0.3,0.1,0.5,0.1c1.3,0.4,2.5,0.7,3.8,1.1c0.3,0.1,0.6,0.2,1,0.3c0.1,0,0.1,0,0.2,0c0.1,0,0.2,0,0.2,0.1c0,0,0,0,0,0v0
		c0.3,0.1,0.5,0.1,0.8,0.2c0.3,0.1,0.5,0.1,0.8,0.2c0.5,0.1,0.9,0.1,1.4,0.2c0.2,0,0.4,0.1,0.7,0c0,0,0,0,0,0c0,0,0,0,0.1,0
		c0.1,0,0.1,0,0.1,0c0,0,0,0,0,0l0,0l0,0c0.1,0,0.1,0,0.2,0c0,0,0,0,0,0c0.2,0,0.4,0,0.6,0c0.2,0,0.4,0,0.6-0.1h0c0,0,0,0,0,0
		c0,0,0,0,0,0c0.1,0,0.1,0,0.2,0c0,0,0,0,0,0c0,0,0,0,0,0c0,0,0,0,0,0c0.3,0,0.5-0.1,0.8-0.2c0.6-0.2,1.2-0.4,1.8-0.8
		c1.1-0.7,1.8-1.7,2.2-2.9c0.1-0.3,0.2-0.6,0.3-0.8c0.2-0.4,0.3-0.7,0.4-1.1C159.9,133.1,159.9,132.5,159.8,132z M153.8,119.4
		C153.8,119.4,153.8,119.4,153.8,119.4C153.8,119.4,153.8,119.4,153.8,119.4C153.8,119.4,153.8,119.4,153.8,119.4z M145.8,114.7
		C145.8,114.7,145.8,114.7,145.8,114.7C145.8,114.7,145.8,114.7,145.8,114.7C145.8,114.7,145.8,114.7,145.8,114.7z M145.5,114.6
		C145.5,114.6,145.5,114.6,145.5,114.6C145.5,114.6,145.5,114.6,145.5,114.6z M140.2,131.1C140.2,131.1,140.2,131.1,140.2,131.1
		C140.2,131.1,140.2,131.1,140.2,131.1C140.2,131.1,140.2,131.1,140.2,131.1C140.2,131.1,140.2,131.1,140.2,131.1z M145,136.5
		C145,136.5,145,136.5,145,136.5C145,136.5,145,136.5,145,136.5z M146.8,137C146.8,137,146.9,137,146.8,137
		C146.8,137,146.8,137,146.8,137z M148.8,138.5C148.8,138.5,148.8,138.5,148.8,138.5C148.8,138.5,148.8,138.5,148.8,138.5
		C148.8,138.5,148.8,138.5,148.8,138.5z M156,135.5C156,135.5,156,135.5,156,135.5C156,135.5,156,135.5,156,135.5
		C156,135.5,156,135.5,156,135.5z M157.2,135.1C157.2,135,157.2,135,157.2,135.1C157.2,135,157.2,135,157.2,135.1
		C157.2,135,157.2,135,157.2,135.1z"/>
	<polygon id="XMLID_63_" class="st1" points="160.5,111.9 160.5,111.9 160.5,111.9 	"/>
	<path id="XMLID_58_" class="st1" d="M154.6,106.3c-0.1,0.8-0.1,1.6,0.1,2.4c0.1,0.4,0.3,0.8,0.5,1.2c0,0.1,0,0.1,0.1,0.2
		c0,0,0,0,0,0c0.2,0.3,0.5,0.6,0.8,0.8c0.3,0.4,0.7,0.8,1.2,1c0.7,0.4,1.4,0.5,2.2,0.4c0.3,0,0.7-0.1,1-0.3c0,0,0,0,0,0l0,0
		c0,0,0,0,0,0c0,0,0,0,0,0c0,0,0,0,0.1,0c0,0,0.1,0,0.1,0c0,0,0,0,0,0c0.1,0,0.2-0.1,0.3-0.2c0,0,0,0,0,0c0,0,0,0,0,0
		c0.1,0,0.2-0.1,0.3-0.2c0.9-0.5,1.7-1.2,2.4-1.9c0.7-0.7,1.2-1.4,1.7-2.3c0.3-0.5,0.6-1,0.8-1.5c0.2-0.5,0.5-1.1,0.6-1.7
		c0.1-0.2,0.1-0.5,0.2-0.7c0.1-0.3,0.1-0.5,0.1-0.8c0-0.1,0.1-0.2,0-0.3c0,0,0,0,0,0c0.1-0.3,0.1-0.5,0-0.8c0,0,0,0,0,0
		c0,0,0,0,0-0.1c0-0.1,0-0.1,0-0.2c0-0.6-0.1-1.2-0.3-1.8c-0.1-0.2-0.1-0.4-0.3-0.6c-0.1-0.2-0.2-0.3-0.3-0.5c0-0.1,0-0.1-0.1-0.1
		c0,0,0-0.1,0-0.1c-0.4-0.6-1-1-1.7-1.3c-0.7-0.3-1.4-0.4-2.2-0.3c-0.4,0-0.7,0.1-1,0.3c-0.1,0-0.2,0-0.2,0.1c0,0,0,0,0,0l0,0
		c-0.1,0-0.2,0.1-0.2,0.1c-0.1,0-0.2,0.1-0.3,0.1c-0.6,0.3-1.1,0.7-1.6,1.1c0,0-0.1,0.1-0.1,0.1c0,0,0,0-0.1,0.1c0,0,0,0,0,0
		c0,0,0,0-0.1,0.1c0,0,0,0,0,0c0,0,0,0-0.1,0.1c0,0,0,0,0,0c0,0,0,0,0,0c0,0,0,0,0,0c0,0,0,0,0,0c0,0-0.1,0.1-0.1,0.1
		c-0.7,0.7-1.3,1.5-1.8,2.4c-0.1,0.2-0.2,0.3-0.3,0.5c0,0,0,0.1-0.1,0.1c0,0,0,0,0,0c-0.1,0-0.1,0.1-0.1,0.2c0,0,0,0,0,0
		c-0.1,0.1-0.2,0.3-0.2,0.4c-0.1,0-0.1,0.1-0.1,0.1c-0.1,0.2-0.2,0.5-0.3,0.7c-0.2,0.4-0.3,0.8-0.4,1.2c0,0,0,0,0,0
		C154.9,105,154.7,105.6,154.6,106.3z M166,98.2C166,98.2,166,98.2,166,98.2C166,98.2,166,98.2,166,98.2C166,98.2,166,98.2,166,98.2
		C166,98.2,166,98.2,166,98.2z M163.5,99.9C163.5,99.9,163.5,99.8,163.5,99.9c0.1,0,0.1,0,0.1,0C163.6,99.9,163.6,99.9,163.5,99.9
		C163.5,99.9,163.5,99.9,163.5,99.9C163.5,99.9,163.5,99.9,163.5,99.9z M157.8,111.5C157.8,111.5,157.8,111.5,157.8,111.5
		C157.8,111.5,157.7,111.5,157.8,111.5C157.7,111.5,157.8,111.5,157.8,111.5z"/>
	<polygon id="XMLID_57_" class="st1" points="128.3,113.2 128.3,113.1 128.3,113.2 	"/>
	<polygon id="XMLID_56_" class="st1" points="128.2,113.1 128.2,113.1 128.2,113.1 	"/>
	<path id="XMLID_49_" class="st1" d="M133.8,115.9c0.3,0,0.5,0,0.8-0.1c0.4-0.1,0.8-0.3,1.1-0.5c0.4-0.3,0.8-0.6,1-1.1
		c0.1-0.3,0.3-0.5,0.4-0.8c0.1-0.3,0.3-0.5,0.3-0.8c0,0,0,0,0,0c0-0.1,0-0.1,0.1-0.2c0,0,0,0,0,0c0,0,0-0.1,0-0.1c0,0,0,0,0,0
		c0.1-0.1,0.1-0.2,0.1-0.3c0-0.3,0.1-0.6,0.2-0.9c0-0.1,0-0.1,0-0.2c0,0,0,0,0,0c0.1-0.2,0.1-0.4,0.1-0.7c0.1-0.5,0.1-0.9,0.1-1.4
		c0-0.2,0-0.4-0.1-0.6c-0.1-0.9-0.3-1.8-0.8-2.5c-0.2-0.3-0.4-0.7-0.7-1c-0.1-0.1-0.1-0.2-0.2-0.2c0,0,0,0,0,0
		c0-0.1-0.1-0.1-0.1-0.1c0,0,0,0,0,0c-0.2-0.2-0.4-0.4-0.7-0.5c0,0,0,0,0,0c0,0-0.1-0.1-0.1-0.1c-0.6-0.4-1.3-0.6-2-0.7
		c-1.1-0.1-2.2,0.2-3.1,0.8c-0.6,0.4-1,0.9-1.4,1.4c-0.2,0.3-0.4,0.6-0.5,0.9l0,0c0,0,0,0,0,0.1c0,0,0,0,0,0
		c-0.1,0.1-0.1,0.3-0.2,0.4c0,0,0,0.1,0,0.1c0,0,0,0,0,0c0,0-0.1,0.1-0.1,0.1c-0.2,0.6-0.4,1.3-0.4,2c0,0.1-0.1,0.2,0,0.3
		c0,0.1-0.1,0.2,0,0.3c0,0,0,0,0,0c0,0,0,0,0,0.1c0,0,0,0,0,0c0,0.5,0,0.9,0.1,1.4c0,0.2,0.1,0.4,0.2,0.6c0,0,0,0.1,0,0.1
		c0,0,0,0,0,0c0,0,0,0,0,0l0,0c0,0,0,0.1,0,0.1c0,0,0,0,0,0c0,0,0-0.1,0-0.1c0,0,0,0.1,0,0.1c0,0.1,0,0.2,0.1,0.2c0,0,0,0,0,0
		c0,0,0,0,0,0c0,0,0,0.1,0,0.1c0,0,0,0,0,0c0,0,0,0,0,0.1c0,0,0,0,0,0.1c0,0,0,0.1,0,0.1c0,0.1,0,0.2,0.1,0.3c0,0,0,0.1,0,0.1
		c0,0,0,0,0,0c0,0,0,0,0,0l0,0c0,0,0,0.1,0,0.1l0,0c0,0,0,0.1,0,0.1c0,0,0,0.1,0,0.1c0,0,0,0,0,0.1c0,0,0,0,0,0c0,0,0-0.1,0-0.1
		c0,0,0,0.1,0,0.1c0,0,0,0,0,0c0,0,0,0,0,0l0,0c0,0,0,0,0,0c0.2,0.4,0.4,0.8,0.7,1.1c0,0,0,0,0,0c0,0.1,0,0.1,0.1,0.1
		c0,0,0,0.1,0,0.1c0,0.1,0.1,0.1,0.1,0.1c0,0,0,0.1,0,0.1c0,0,0,0,0,0c0,0,0,0,0,0c0,0,0,0,0,0c0,0,0,0,0.1,0.1
		c0.2,0.2,0.4,0.4,0.7,0.5c0,0,0,0,0,0c0.3,0.3,0.7,0.4,1.1,0.6c0.2,0.1,0.5,0.1,0.7,0.2c0.5,0.1,1,0.1,1.4-0.1
		C133.4,115.9,133.6,115.9,133.8,115.9z M128,112.5C128,112.4,128,112.4,128,112.5C128,112.4,128,112.4,128,112.5
		C128,112.5,128,112.5,128,112.5z M130.2,106.8C130.2,106.8,130.2,106.8,130.2,106.8C130.2,106.8,130.2,106.8,130.2,106.8
		C130.2,106.8,130.2,106.8,130.2,106.8C130.2,106.8,130.2,106.8,130.2,106.8z M133.9,105.9C133.9,105.9,133.9,105.9,133.9,105.9
		C133.9,105.9,133.9,105.9,133.9,105.9C133.9,105.9,133.9,105.9,133.9,105.9z M129.1,114.5C129.1,114.4,129.1,114.4,129.1,114.5
		C129.1,114.4,129.1,114.4,129.1,114.5C129.1,114.4,129.1,114.4,129.1,114.5C129.1,114.5,129.1,114.5,129.1,114.5z M129.7,113
		C129.7,113,129.7,113,129.7,113C129.7,113,129.8,113,129.7,113C129.8,113,129.7,113,129.7,113z"/>
	<path id="XMLID_43_" class="st1" d="M172.8,115.9c0-0.1,0.1-0.2,0-0.3h0c0-0.3,0-0.7-0.1-1c0-0.2,0-0.3-0.1-0.4c0,0,0,0,0,0
		c0-0.1-0.1-0.3-0.2-0.4c-0.2-0.5-0.6-0.9-1-1.3c-0.4-0.3-0.8-0.5-1.2-0.7c-0.1,0-0.1-0.1-0.2-0.1c-0.3,0-0.5-0.1-0.8-0.1
		c-0.4-0.1-0.8-0.1-1.3,0c-0.8,0.2-1.7,0.5-2.4,0.9c-0.6,0.3-1.2,0.8-1.8,1.2c-0.2,0.1-0.3,0.3-0.4,0.4c0,0-0.1,0.1-0.1,0.1
		c-0.2,0.2-0.4,0.4-0.5,0.6c-0.3,0.4-0.6,0.8-0.8,1.2c-0.1,0.2-0.3,0.5-0.4,0.7c-0.3,0.4-0.5,0.8-0.6,1.3c0,0.2-0.1,0.3,0,0.5
		c0,0,0,0,0,0c-0.1,0.4,0,0.7,0.1,1.1l0,0c0,0.1,0,0.2,0.1,0.3c0.1,0.3,0.3,0.6,0.5,0.9c0.2,0.2,0.3,0.4,0.5,0.5
		c0,0.1,0.1,0.1,0.2,0.2c0.4,0.3,0.9,0.5,1.4,0.6c0.1,0,0.2,0.1,0.3,0.1c0.2,0,0.4,0.1,0.6,0.1c0,0,0,0,0,0l0,0c0,0,0,0,0,0
		c0,0,0,0,0,0c0,0,0.1,0,0.1,0c1,0,2-0.1,3-0.4c0.4-0.1,0.7-0.3,1.1-0.5c0.7-0.4,1.3-0.8,1.8-1.3c0.1-0.1,0.3-0.3,0.4-0.4
		c0.1,0,0.1-0.1,0.1-0.1c0.1,0,0.1-0.1,0.1-0.2c0,0,0,0,0,0c0.1-0.1,0.2-0.3,0.3-0.4c0.1,0,0.1-0.1,0.1-0.2c0.1,0,0.1-0.1,0.1-0.2
		l0,0c0,0,0,0,0,0c0.1,0,0.1-0.1,0.1-0.2l0,0c0,0,0-0.1,0-0.1c0,0,0,0,0,0c0.1-0.3,0.3-0.5,0.3-0.8c0,0,0,0,0,0c0,0,0.1-0.1,0.1-0.1
		C172.7,116.9,172.8,116.4,172.8,115.9z M162.6,118.5C162.6,118.5,162.6,118.4,162.6,118.5C162.6,118.4,162.6,118.4,162.6,118.5
		C162.6,118.4,162.6,118.5,162.6,118.5z M163.1,121.5C163.1,121.5,163.1,121.5,163.1,121.5C163.1,121.5,163.1,121.5,163.1,121.5z
		 M164.6,122.3C164.6,122.3,164.5,122.3,164.6,122.3C164.5,122.3,164.6,122.3,164.6,122.3C164.6,122.3,164.6,122.3,164.6,122.3z
		 M171.4,117.2C171.4,117.2,171.4,117.2,171.4,117.2C171.4,117.2,171.4,117.2,171.4,117.2C171.4,117.2,171.4,117.2,171.4,117.2z"/>
	<path id="XMLID_42_" class="st1" d="M155.2,116.3C155.2,116.3,155.3,116.3,155.2,116.3C155.3,116.3,155.3,116.3,155.2,116.3z"/>
	<path id="XMLID_41_" class="st1" d="M128.2,113C128.2,113,128.2,112.9,128.2,113C128.1,112.9,128.1,113,128.2,113z"/>
	<path id="XMLID_40_" class="st1" d="M130.6,131.4C130.6,131.4,130.6,131.4,130.6,131.4C130.6,131.4,130.6,131.4,130.6,131.4z"/>
</g>
<g id="XMLID_2_" class="st5">
	<path id="XMLID_38_" class="st1" d="M155.6,274.9c-0.3-0.1-0.7-0.2-1-0.3c-0.7-0.2-1.4-0.3-2.2-0.3c-1,0-2,0.2-2.9,0.6
		c-0.5,0.2-0.9,0.5-1.3,0.8c-0.2,0.1-0.3,0.3-0.5,0.5c-0.2,0.2-0.4,0.2-0.6,0.4c-0.6,0.4-1,1-1.2,1.6c-0.3,0.8-0.3,1.5-0.1,2.3
		c0.1,0.5,0.4,0.8,0.7,1.2c0.7,0.9,1.5,1.6,2.5,2.2c0.5,0.3,1.1,0.6,1.7,0.8c0,0,0.1,0,0.1,0c0.2,0.1,0.3,0.2,0.5,0.2
		c0.1,0,0.2,0.1,0.2,0.1c0.4,0.1,0.7,0.2,1.1,0.3c0.3,0.1,0.7,0.2,1.1,0.1c0.1,0,0.1,0.1,0.2,0c0,0,0,0,0,0c0.1,0,0.2,0,0.2,0
		c0.3,0,0.7,0,1,0.1c0.4,0,0.8,0,1.2,0c0.2,0,0.5-0.1,0.7-0.1c0.4-0.1,0.8-0.2,1.1-0.4c0.5-0.3,0.9-0.6,1.3-1
		c0.1-0.1,0.3-0.3,0.3-0.5c0,0,0,0,0,0c0.1,0,0.1-0.1,0.1-0.1c0.2-0.4,0.5-0.8,0.6-1.3c0.2-0.7,0.2-1.3,0.1-2
		c-0.1-0.5-0.2-1-0.4-1.4c-0.2-0.3-0.3-0.7-0.6-0.9c-0.3-0.4-0.7-0.8-1-1.1c-0.1-0.1-0.2-0.2-0.4-0.3c-0.1-0.1-0.2-0.2-0.4-0.3
		c0,0,0,0,0,0c0-0.1-0.1-0.1-0.2-0.2C156.9,275.5,156.3,275.2,155.6,274.9z"/>
	<path id="XMLID_27_" class="st1" d="M121.1,288.9c0.9,0.1,1.9,0.1,2.8,0.2c1,0,2,0,3.1,0c0.8,0,1.5-0.1,2.3-0.2
		c1.2-0.1,2.3-0.3,3.5-0.5c0.3-0.1,0.7-0.1,1-0.2c0,0,0.1,0,0.1,0c0.5-0.1,1-0.2,1.5-0.4c0.1,0,0.1-0.1,0.2-0.1
		c0.1,0,0.3-0.1,0.4-0.1c0,0,0,0,0,0c0.3-0.1,0.6-0.2,0.9-0.3c0.1-0.1,0.3-0.1,0.4-0.2l0,0c0,0,0.1,0,0.1,0l0,0c0.1,0,0.2,0,0.2-0.1
		c0,0,0,0,0,0l0,0c0,0,0,0,0,0c0,0,0,0,0,0l0,0c0,0,0.1,0,0.1,0c0,0,0.1,0,0.1,0l0,0c0,0,0,0,0,0c0,0,0,0,0,0c0,0,0,0,0,0
		c0,0,0,0,0,0c0,0,0,0,0,0l0,0c0,0-0.1,0-0.1,0c0,0,0,0,0,0c0,0,0.1,0,0.1,0c0,0,0.1,0,0.1,0c0.1,0,0.1,0,0.2,0
		c0.5-0.2,0.9-0.4,1.4-0.7c0.9-0.5,1.8-1.1,2.5-1.9c0.2-0.2,0.4-0.4,0.5-0.6c0,0,0,0,0,0c0,0,0,0,0.1,0c0.1-0.2,0.3-0.4,0.4-0.6
		c0.1-0.1,0.1-0.2,0.2-0.3c0.1-0.1,0.2-0.2,0.2-0.4c0.1-0.3,0.3-0.6,0.4-1c0.1-0.3,0.2-0.6,0.2-0.9c0,0,0,0,0,0c0,0,0-0.1,0-0.1
		c0,0,0,0,0,0c0,0,0,0,0,0c0,0,0,0,0,0c0-0.1,0.1-0.3,0.1-0.4c0-0.7,0-1.3-0.1-2c0-0.2-0.1-0.5-0.2-0.7c0-0.1,0-0.1,0-0.2
		c-0.1-0.3-0.2-0.7-0.3-1c-0.1-0.4-0.3-0.9-0.5-1.3c-0.1-0.2-0.2-0.3-0.2-0.5c0,0,0,0,0-0.1c0,0,0,0,0,0c0,0,0,0,0,0
		c0-0.1-0.1-0.2-0.1-0.3c-0.4-0.9-0.8-1.7-1.3-2.5c-0.6-1-1.2-1.9-1.8-2.8c-0.5-0.8-1.1-1.6-1.7-2.3c0,0-0.1-0.1-0.1-0.1
		c-0.1-0.3-0.4-0.5-0.6-0.7c0,0,0,0,0,0c0-0.1-0.1-0.1-0.1-0.2c-0.2-0.2-0.4-0.5-0.5-0.7c-0.4-0.4-0.7-0.9-1.1-1.3
		c-0.4-0.4-0.8-0.8-1.3-1.1c-0.5-0.3-0.9-0.7-1.4-1c-0.1-0.1-0.3-0.2-0.4-0.2c-0.3-0.1-0.5-0.3-0.8-0.4c-0.3-0.1-0.7-0.2-1-0.3
		c-0.1,0-0.2-0.1-0.3,0c-0.1-0.1-0.3-0.1-0.4-0.1h0c0,0-0.1,0-0.1,0c-0.6-0.1-1.2,0-1.8,0.1c-0.2,0-0.5,0.1-0.7,0.2c0,0,0,0,0,0
		c0,0-0.1,0-0.1,0l0,0c-0.2,0-0.4,0.1-0.5,0.2c0,0,0,0,0,0c-0.1,0-0.3,0.1-0.4,0.2c0,0,0,0,0,0c-0.3,0.1-0.5,0.2-0.7,0.4
		c-0.3,0.2-0.6,0.4-0.8,0.6c0,0,0,0,0,0c-0.3,0.2-0.6,0.5-0.8,0.8c-0.1,0-0.1,0.1-0.2,0.2c0,0,0,0,0,0c-0.1,0-0.1,0.1-0.1,0.1
		c-0.2,0.2-0.4,0.5-0.5,0.7c-0.3,0.4-0.6,0.9-0.8,1.3c-0.3,0.7-0.7,1.4-1,2.1c-0.5,1.1-1.1,2.2-1.6,3.3c-0.1,0.1-0.1,0.3-0.2,0.4
		c0,0,0,0,0,0c0,0,0,0.1-0.1,0.1c0,0,0,0,0,0s0,0,0,0c-0.1,0.2-0.2,0.3-0.2,0.5c0,0,0,0,0,0c-0.1,0.1-0.1,0.2-0.2,0.3c0,0,0,0,0,0
		c-0.1,0.1-0.1,0.3-0.2,0.4c-0.6,1.2-1.2,2.4-1.7,3.6c-0.1,0.3-0.3,0.6-0.4,0.9c0,0.1-0.1,0.1,0,0.2c0,0.1-0.1,0.1-0.1,0.2
		c0,0,0,0,0,0l0,0c-0.1,0.2-0.2,0.5-0.3,0.8c-0.1,0.3-0.2,0.5-0.3,0.8c-0.1,0.4-0.3,0.9-0.4,1.3c-0.1,0.2-0.1,0.4-0.1,0.6
		c0,0,0,0,0,0c0,0,0,0,0,0.1c0,0,0,0.1,0,0.1c0,0,0,0,0,0l0,0l0,0c0,0.1-0.1,0.1,0,0.2c0,0,0,0,0,0c-0.1,0.2-0.1,0.4-0.1,0.6
		c-0.1,0.2-0.1,0.4,0,0.6l0,0c0,0,0,0,0,0c0,0,0,0,0,0c0,0,0,0.1,0,0.2c0,0,0,0,0,0c0,0,0,0,0,0c0,0,0,0,0,0c0,0.3,0,0.5,0,0.8
		c0.1,0.6,0.2,1.3,0.5,1.9c0.5,1.2,1.4,2,2.5,2.7c0.3,0.1,0.5,0.3,0.8,0.5c0.3,0.2,0.7,0.4,1,0.6C120,288.8,120.5,288.9,121.1,288.9
		z M134.6,285.2C134.6,285.1,134.6,285.1,134.6,285.2C134.6,285.1,134.6,285.1,134.6,285.2C134.6,285.1,134.6,285.1,134.6,285.2z
		 M140.5,278.1C140.5,278.1,140.5,278.1,140.5,278.1C140.6,278.1,140.6,278,140.5,278.1C140.6,278.1,140.5,278.1,140.5,278.1z
		 M140.7,277.8C140.7,277.8,140.7,277.8,140.7,277.8C140.8,277.8,140.7,277.8,140.7,277.8z M125.4,269.7
		C125.4,269.7,125.4,269.7,125.4,269.7C125.4,269.8,125.4,269.8,125.4,269.7C125.4,269.8,125.4,269.8,125.4,269.7
		C125.4,269.8,125.4,269.8,125.4,269.7z M119.3,273.5C119.2,273.6,119.2,273.6,119.3,273.5C119.2,273.5,119.2,273.5,119.3,273.5z
		 M118.4,275.2C118.4,275.2,118.4,275.3,118.4,275.2C118.4,275.3,118.4,275.2,118.4,275.2z M116.6,276.9
		C116.6,276.9,116.6,276.9,116.6,276.9C116.6,276.9,116.6,276.9,116.6,276.9C116.6,276.9,116.6,276.9,116.6,276.9z M118.3,284.6
		C118.3,284.6,118.3,284.6,118.3,284.6C118.3,284.6,118.3,284.6,118.3,284.6C118.3,284.6,118.3,284.6,118.3,284.6z M118.6,285.8
		C118.6,285.8,118.6,285.8,118.6,285.8C118.6,285.8,118.6,285.8,118.6,285.8C118.6,285.8,118.6,285.8,118.6,285.8z"/>
	<polygon id="XMLID_26_" class="st1" points="140.8,293.1 140.8,293.1 140.8,293.1 	"/>
	<path id="XMLID_21_" class="st1" d="M147.3,288.2c-0.8-0.2-1.5-0.4-2.4-0.3c-0.4,0-0.8,0.1-1.2,0.3c-0.1,0-0.1,0-0.2,0.1
		c0,0,0,0,0,0c-0.4,0.1-0.7,0.4-1,0.6c-0.5,0.2-0.9,0.5-1.2,1c-0.5,0.6-0.8,1.3-0.8,2c0,0.3,0,0.7,0.2,1c0,0,0,0,0,0v0c0,0,0,0,0,0
		c0,0,0,0,0,0c0,0,0,0.1,0,0.1c0,0,0,0.1,0,0.1c0,0,0,0,0,0c0,0.1,0,0.2,0.1,0.3c0,0,0,0,0,0c0,0,0,0,0,0c0,0.1,0.1,0.2,0.1,0.3
		c0.4,1,0.9,1.9,1.5,2.7c0.6,0.8,1.2,1.5,1.9,2.1c0.4,0.4,0.9,0.7,1.4,1c0.5,0.3,1,0.6,1.5,0.9c0.2,0.1,0.4,0.2,0.7,0.3
		c0.3,0.1,0.5,0.2,0.8,0.3c0.1,0,0.2,0.1,0.3,0.1c0,0,0,0,0,0c0.2,0.1,0.5,0.2,0.8,0.2c0,0,0,0,0,0c0,0,0,0,0.1,0
		c0.1,0,0.1,0.1,0.2,0c0.6,0.1,1.2,0.1,1.9,0c0.2,0,0.4-0.1,0.6-0.2c0.2,0,0.4-0.1,0.5-0.2c0.1,0,0.1,0,0.1-0.1c0,0,0.1,0,0.1,0
		c0.7-0.3,1.2-0.8,1.6-1.5c0.4-0.6,0.6-1.3,0.7-2.1c0-0.4,0-0.7-0.1-1.1c0-0.1,0-0.2,0-0.2c0,0,0,0,0,0l0,0c0-0.1,0-0.2-0.1-0.3
		c0-0.1,0-0.2-0.1-0.3c-0.2-0.6-0.5-1.2-0.8-1.7c0-0.1-0.1-0.1-0.1-0.1c0,0,0-0.1,0-0.1c0,0,0,0,0,0c0,0,0-0.1,0-0.1c0,0,0,0,0,0
		c0,0,0-0.1,0-0.1c0,0,0,0,0,0c0,0,0,0,0,0c0,0,0,0,0,0c0,0,0,0,0,0c0,0,0-0.1-0.1-0.1c-0.6-0.8-1.3-1.5-2-2.2
		c-0.1-0.1-0.3-0.3-0.4-0.3c0,0-0.1,0-0.1-0.1c0,0,0,0,0,0c0-0.1-0.1-0.1-0.2-0.1c0,0,0,0,0,0c-0.1-0.1-0.2-0.2-0.4-0.3
		c0-0.1-0.1-0.1-0.1-0.1c-0.2-0.1-0.4-0.3-0.6-0.4c-0.3-0.2-0.7-0.4-1.1-0.6c0,0,0,0,0,0C148.6,288.7,148,288.4,147.3,288.2z
		 M153.4,300.8C153.3,300.9,153.3,300.9,153.4,300.8C153.3,300.9,153.3,300.9,153.4,300.8C153.3,300.9,153.3,300.8,153.4,300.8
		C153.4,300.8,153.4,300.8,153.4,300.8z M152.1,298.1C152.1,298.1,152.1,298.1,152.1,298.1c0,0.1,0,0.1,0,0.1
		C152.1,298.2,152.1,298.1,152.1,298.1C152.1,298.1,152.1,298.1,152.1,298.1C152.1,298.1,152.1,298.1,152.1,298.1z M141.7,290.4
		C141.7,290.4,141.7,290.4,141.7,290.4C141.7,290.4,141.7,290.4,141.7,290.4C141.7,290.4,141.7,290.4,141.7,290.4z"/>
	<polygon id="XMLID_20_" class="st1" points="145.1,261.1 145.1,261.1 145.1,261.1 	"/>
	<polygon id="XMLID_19_" class="st1" points="145.2,261 145.2,261 145.2,261 	"/>
	<path id="XMLID_12_" class="st1" d="M141.4,266c-0.1,0.3-0.1,0.5-0.1,0.8c0,0.4,0.1,0.8,0.3,1.2c0.2,0.5,0.5,0.9,0.9,1.2
		c0.2,0.2,0.4,0.4,0.7,0.5c0.3,0.2,0.5,0.4,0.8,0.5c0,0,0,0,0,0c0.1,0,0.1,0.1,0.2,0.1c0,0,0,0,0,0c0,0,0.1,0,0.1,0.1c0,0,0,0,0,0
		c0,0.1,0.2,0.1,0.2,0.2c0.3,0.1,0.6,0.2,0.9,0.4c0.1,0,0.1,0.1,0.2,0c0,0,0,0,0,0c0.2,0.1,0.4,0.2,0.6,0.3c0.4,0.1,0.9,0.3,1.4,0.3
		c0.2,0,0.4,0,0.6,0c0.9,0,1.8,0,2.6-0.4c0.4-0.1,0.7-0.3,1.1-0.5c0.1-0.1,0.2-0.1,0.3-0.2c0,0,0,0,0,0c0.1,0,0.1,0,0.1-0.1
		c0,0,0,0,0,0c0.3-0.2,0.5-0.3,0.7-0.6c0,0,0,0,0,0c0,0,0.1,0,0.1-0.1c0.5-0.5,0.8-1.2,1-1.9c0.3-1.1,0.2-2.2-0.3-3.2
		c-0.3-0.6-0.7-1.2-1.1-1.7c-0.2-0.2-0.5-0.5-0.8-0.6l0,0c0,0,0,0,0,0c0,0,0,0,0,0c-0.1-0.1-0.2-0.2-0.4-0.2c0,0-0.1,0-0.1-0.1
		c0,0,0,0,0,0c0-0.1-0.1-0.1-0.1-0.1c-0.6-0.3-1.2-0.6-1.9-0.8c-0.1,0-0.2-0.1-0.3-0.1c-0.1,0-0.2-0.1-0.3-0.1c0,0,0,0,0,0
		c0,0,0,0-0.1,0c0,0,0,0,0,0c-0.5-0.1-0.9-0.1-1.4-0.2c-0.2,0-0.4,0-0.6,0c0,0-0.1,0-0.1,0c0,0,0,0,0,0s0,0,0,0l0,0c0,0-0.1,0-0.1,0
		c0,0,0,0,0,0c0,0,0.1,0,0.1,0c0,0-0.1,0-0.1,0c-0.1,0-0.2,0-0.2,0c0,0,0,0,0,0c0,0,0,0,0,0c0,0-0.1,0-0.1,0c0,0,0,0,0,0
		c0,0,0,0,0,0c0,0-0.1,0-0.1,0c0,0-0.1,0-0.1,0c-0.1,0-0.2,0-0.3,0.1c0,0-0.1,0-0.1,0c0,0,0,0,0,0c0,0,0,0,0,0l0,0c0,0-0.1,0-0.1,0
		l0,0c0,0-0.1,0-0.1,0c0,0-0.1,0-0.1,0c0,0-0.1,0-0.1,0c0,0,0,0,0,0c0,0,0.1,0,0.1,0c0,0-0.1,0-0.1,0c0,0,0,0,0,0c0,0,0,0,0,0l0,0
		c0,0,0,0,0,0c-0.4,0.1-0.8,0.2-1.2,0.5c0,0,0,0,0,0c-0.1,0-0.1,0-0.1,0.1c0,0-0.1,0-0.1,0c-0.1,0-0.1,0-0.1,0.1c0,0-0.1,0-0.1,0
		c0,0,0,0,0,0c0,0,0,0,0,0c0,0,0,0,0,0c0,0-0.1,0-0.1,0c-0.2,0.2-0.5,0.3-0.7,0.6c0,0,0,0,0,0c-0.3,0.2-0.5,0.6-0.8,1
		c-0.1,0.2-0.2,0.5-0.3,0.7c-0.2,0.5-0.2,0.9-0.2,1.4C141.5,265.7,141.5,265.9,141.4,266z M145.8,260.9
		C145.9,260.9,145.9,260.9,145.8,260.9C145.9,260.9,145.9,260.9,145.8,260.9C145.8,260.9,145.8,260.9,145.8,260.9z M151,264.1
		C151,264.1,151.1,264.1,151,264.1C151.1,264.1,151.1,264.1,151,264.1C151.1,264.1,151,264.1,151,264.1
		C151,264.1,151,264.1,151,264.1z M151.2,267.9C151.2,267.9,151.2,267.9,151.2,267.9C151.2,267.9,151.2,267.9,151.2,267.9
		C151.3,267.9,151.2,267.9,151.2,267.9z M143.7,261.7C143.7,261.7,143.7,261.7,143.7,261.7C143.8,261.7,143.8,261.7,143.7,261.7
		C143.7,261.7,143.7,261.7,143.7,261.7C143.7,261.7,143.7,261.7,143.7,261.7z M145,262.6C145,262.6,145,262.6,145,262.6
		C145,262.6,145,262.6,145,262.6C145,262.6,145,262.6,145,262.6z"/>
	<path id="XMLID_6_" class="st1" d="M134.7,304.5c0.1,0,0.2,0.1,0.3,0.1h0c0.3,0.1,0.6,0.1,1,0.1c0.2,0,0.3,0,0.4-0.1c0,0,0,0,0,0
		c0.1,0,0.3,0,0.4-0.1c0.5-0.1,1-0.4,1.4-0.7c0.4-0.3,0.6-0.7,0.9-1.1c0-0.1,0.1-0.1,0.1-0.2c0.1-0.3,0.2-0.5,0.3-0.7
		c0.1-0.4,0.2-0.8,0.2-1.2c0-0.9-0.2-1.7-0.5-2.5c-0.2-0.7-0.5-1.3-0.9-1.9c-0.1-0.2-0.2-0.4-0.4-0.5c0,0,0-0.1-0.1-0.1
		c-0.2-0.2-0.3-0.4-0.5-0.6c-0.3-0.4-0.7-0.7-1.1-1c-0.2-0.2-0.4-0.3-0.6-0.5c-0.3-0.4-0.7-0.6-1.2-0.8c-0.2-0.1-0.3-0.1-0.5-0.1
		c0,0,0,0,0,0c-0.4-0.1-0.7-0.2-1.1-0.1l0,0c-0.1,0-0.2,0-0.3,0c-0.4,0-0.7,0.2-1,0.4c-0.2,0.1-0.5,0.2-0.6,0.4
		c-0.1,0-0.1,0.1-0.2,0.1c-0.4,0.4-0.7,0.8-0.8,1.3c0,0.1-0.1,0.2-0.1,0.3c-0.1,0.2-0.2,0.4-0.2,0.6c0,0,0,0,0,0l0,0c0,0,0,0,0,0
		s0,0,0,0c0,0,0,0.1,0,0.1c-0.2,1-0.3,2-0.1,3c0.1,0.4,0.1,0.8,0.3,1.1c0.2,0.7,0.6,1.4,1,2c0.1,0.2,0.2,0.3,0.4,0.5
		c0,0.1,0,0.1,0.1,0.1c0,0.1,0.1,0.1,0.1,0.2c0,0,0,0,0,0c0.1,0.2,0.2,0.3,0.4,0.4c0,0.1,0.1,0.1,0.1,0.1c0,0.1,0.1,0.1,0.1,0.1l0,0
		c0,0,0,0,0,0c0,0.1,0.1,0.1,0.2,0.1v0c0,0,0.1,0,0.1,0.1c0,0,0,0,0,0.1c0.2,0.2,0.4,0.3,0.7,0.5c0,0,0,0,0,0c0,0.1,0.1,0.1,0.1,0.1
		C133.7,304.1,134.2,304.4,134.7,304.5z M134,294C134,294,134,294,134,294C134,294,134,294,134,294C134,294,134,294,134,294z
		 M130.9,293.9C130.9,293.9,130.8,294,130.9,293.9C130.8,294,130.8,293.9,130.9,293.9z M129.8,295.3
		C129.8,295.2,129.8,295.2,129.8,295.3C129.8,295.2,129.8,295.2,129.8,295.3C129.8,295.3,129.8,295.3,129.8,295.3z M133.7,302.8
		C133.7,302.8,133.7,302.8,133.7,302.8C133.7,302.8,133.7,302.8,133.7,302.8C133.7,302.8,133.7,302.8,133.7,302.8z"/>
	<path id="XMLID_5_" class="st1" d="M137.4,287.1C137.3,287.1,137.3,287.1,137.4,287.1C137.3,287.1,137.4,287.1,137.4,287.1z"/>
	<path id="XMLID_4_" class="st1" d="M145.3,261C145.3,261,145.4,261,145.3,261C145.3,261,145.3,261,145.3,261z"/>
	<path id="XMLID_3_" class="st1" d="M126.7,260.2C126.7,260.2,126.8,260.2,126.7,260.2C126.7,260.2,126.7,260.2,126.7,260.2z"/>
</g>
</svg>
