<svg width="76" height="185" viewBox="0 0 76 185" fill="none" xmlns="http://www.w3.org/2000/svg">
<path opacity="0.16" d="M7.69992 99.9C8.19992 100.2 8.80002 100.4 9.30002 100.6C10.4 101 11.6 101.3 12.8 101.4C14.4 101.5 15.9999 101.4 17.5999 100.9C18.3999 100.6 19.1 100.3 19.8 99.8C20.1 99.6 20.3999 99.4 20.5999 99.1C20.8999 98.9 21.1999 98.8 21.5999 98.6C22.5999 98 23.4 97.2 23.9 96.2C24.5 95 24.6 93.8 24.4 92.5C24.2 91.7 23.9 91.1 23.5 90.4C22.6 88.8 21.3 87.5 19.8 86.4C19 85.8 18.0999 85.3 17.1999 84.8C17.0999 84.8 17.1 84.8 17 84.8C16.8 84.7 16.5 84.5 16.3 84.5C16.2 84.4 16.1 84.3 15.9 84.3C15.3 84.1 14.7999 83.9 14.1999 83.7C13.5999 83.5 13.1 83.3 12.5 83.3C12.4 83.2 12.2999 83.2 12.1999 83.2C12.0999 83.1 11.9 83.1 11.8 83.1C11.3 83 10.7999 82.9 10.1999 82.8C9.49992 82.7 8.89992 82.6 8.19992 82.6C7.79992 82.6 7.39995 82.6 7.09995 82.7C6.49995 82.8 5.79992 82.9 5.19992 83.2C4.39992 83.5 3.59997 84 2.99997 84.6C2.79997 84.8 2.5 85 2.4 85.3C2.3 85.3 2.19992 85.4 2.19992 85.5C1.79992 86.2 1.29997 86.8 0.999971 87.5C0.599971 88.5 0.399971 89.6 0.499971 90.7C0.499971 91.5 0.699971 92.3 0.999971 93.1C1.19997 93.7 1.40002 94.2 1.80002 94.7C2.20002 95.4 2.70002 96 3.30002 96.6C3.50002 96.8 3.7 97 3.9 97.1C4 97.3 4.3 97.4 4.4 97.6C4.4 97.7 4.59992 97.8 4.69992 97.9C5.59992 98.7 6.59992 99.4 7.69992 99.9Z" fill="#F7601D"/>
<path opacity="0.16" d="M65.9 83.1C64.4 82.8 62.9 82.5 61.4 82.4C59.7 82.2 58.1 82 56.4 81.9C55.1 81.8 53.9 81.8 52.6 81.8C50.7 81.8 48.8 81.8 46.9 82C46.4 82 45.8 82.1 45.3 82.2C45.2 82.2 45.2 82.2 45.1 82.2C44.3 82.3 43.5 82.4 42.7 82.6C42.6 82.6 42.5 82.7 42.4 82.7C42.2 82.7 41.9 82.7 41.7 82.8C41.2 82.9 40.7 83 40.1 83.1C39.9 83.2 39.6 83.2 39.4 83.3H39.3C39.2 83.3 39 83.3 39 83.4C38.9 83.4 38.9 83.4 38.9 83.4C38.8 83.4 38.8 83.4 38.8 83.4H38.9H38.8H38.7C38.6 83.4 38.5 83.4 38.4 83.4C37.6 83.7 36.8 83.9 36.1 84.3C34.5 85 33 85.8 31.7 86.9C31.4 87.2 31 87.4 30.7 87.8H30.6C30.4 88.1 30.1 88.3 29.9 88.7C29.8 88.9 29.7 89 29.6 89.1C29.4 89.3 29.3 89.5 29.2 89.7C29 90.2 28.6 90.7 28.4 91.2C28.2 91.7 28 92.1 28 92.6C28 92.6 28 92.6 28 92.7C27.9 92.8 27.9 92.9 28 92.9C28 92.9 28 92.9 28 93C27.9 93.2 27.9 93.5 27.8 93.7C27.6 94.8 27.6 95.9 27.6 97C27.6 97.4 27.6 97.8 27.8 98.2C27.8 98.3 27.8 98.4 27.8 98.5C27.9 99.1 28 99.6 28.1 100.2C28.3 100.9 28.5 101.7 28.6 102.4C28.7 102.7 28.8 103 28.9 103.3V103.4V103.5C28.9 103.6 29 103.8 29 103.9C29.5 105.4 30.1 106.8 30.7 108.2C31.4 109.8 32.3 111.4 33.1 113C33.8 114.4 34.6 115.7 35.4 117C35.5 117.1 35.5 117.2 35.6 117.2C35.8 117.7 36.1 118 36.4 118.4C36.5 118.5 36.5 118.6 36.6 118.8C36.9 119.2 37.1 119.6 37.4 120C37.9 120.8 38.5 121.5 39 122.2C39.6 122.9 40.2 123.6 40.9 124.3C41.6 124.9 42.2 125.6 43 126.1C43.2 126.3 43.5 126.4 43.7 126.6C44.1 126.8 44.5 127.1 44.9 127.3C45.4 127.6 46 127.8 46.5 128C46.7 128.1 46.8 128.1 47 128.1C47.2 128.2 47.5 128.3 47.7 128.3C47.8 128.3 47.8 128.4 47.9 128.4C48.9 128.6 49.8 128.7 50.8 128.6C51.2 128.6 51.6 128.6 52 128.4H52.1C52.4 128.4 52.7 128.3 53 128.1C53.2 128.1 53.4 128 53.6 127.9C54 127.8 54.4 127.6 54.8 127.4C55.3 127.2 55.8 126.9 56.2 126.6C56.8 126.3 57.2 125.9 57.7 125.5C57.9 125.5 57.9 125.3 58 125.2C58.1 125.2 58.1 125.1 58.2 125.1C58.5 124.7 58.9 124.4 59.2 124C59.7 123.3 60.3 122.7 60.7 122C61.4 120.9 62.1 119.9 62.7 118.8C63.7 117.1 64.8 115.4 65.9 113.8C66 113.6 66.2 113.4 66.2 113.1C66.2 113 66.3 113 66.3 112.9C66.4 112.7 66.6 112.4 66.7 112.2C66.8 112 66.9 111.8 67 111.7C67.1 111.5 67.3 111.3 67.4 111.1C68.6 109.3 69.7 107.5 70.8 105.6C71.1 105.1 71.4 104.7 71.7 104.2C71.8 104.1 71.8 104 71.8 103.9C71.9 103.8 71.9 103.7 72 103.6C72.3 103.2 72.4 102.8 72.6 102.4C72.8 102 73 101.6 73.2 101.2C73.5 100.5 73.8 99.8 74.1 99.1C74.2 98.8 74.4 98.4 74.4 98.1V98C74.5 97.9 74.5 97.9 74.5 97.8C74.6 97.7 74.6 97.6 74.6 97.5C74.8 97.2 74.8 96.9 74.8 96.6C74.9 96.3 75 95.9 75 95.6C75 95.5 75.1 95.4 75 95.4C75 95.4 75 95.4 75 95.3C75.1 94.9 75.1 94.4 75.1 94C75.1 92.9 75 91.9 74.6 90.9C73.9 88.9 72.7 87.4 71 86.1C70.6 85.8 70.2 85.5 69.9 85.2C69.4 84.8 68.9 84.4 68.3 84.1C67.6 83.6 66.8 83.3 65.9 83.1ZM43.4 86.9C43.4 86.9 43.4 87 43.4 86.9C43.4 87 43.4 87 43.4 86.9C43.4 87 43.4 87 43.4 86.9ZM32.6 97.3C32.6 97.4 32.5 97.4 32.6 97.3C32.5 97.4 32.5 97.4 32.6 97.3C32.5 97.4 32.5 97.4 32.6 97.3ZM32.2 97.7C32.2 97.8 32.2 97.8 32.2 97.7C32.1 97.8 32.2 97.8 32.2 97.7ZM66.2 108.3H66.3C66.3 108.3 66.3 108.3 66.2 108.3ZM67.8 105.8C67.8 105.7 67.8 105.7 67.9 105.7C67.9 105.7 67.9 105.8 67.8 105.8Z" fill="#F7601D"/>
<path opacity="0.16" d="M23.3001 79.8C24.5001 80.3 25.7 80.7 27.1 80.7C27.8 80.7 28.5 80.6001 29.2 80.4001C29.3 80.4001 29.4 80.4 29.5 80.3C30.1 80.1 30.7 79.8001 31.2 79.4001C32 79.1001 32.7001 78.7 33.4001 78.1C34.3001 77.2 34.9 76.2001 35.1 74.9001C35.2 74.3001 35.2 73.8 35 73.2V73.1V73C35 72.8 35.0001 72.6001 34.9001 72.4001C34.9001 72.2001 34.8001 72.1001 34.8001 71.9001C34.3001 70.3001 33.7001 68.7 32.8001 67.3C32.0001 66 31.1 64.7 30 63.6C29.3 62.9 28.7001 62.3 27.9001 61.7C27.2001 61.1 26.4 60.5 25.6 60C25.3 59.8 24.9 59.6001 24.6 59.4001C24.2 59.2001 23.8001 59 23.4001 58.8C23.2001 58.7 23.1001 58.6 22.9001 58.6C22.5001 58.4 22.1 58.2 21.7 58.2H21.6C21.5 58.1 21.4001 58.1 21.3001 58.1C20.3001 57.8 19.3001 57.7 18.3001 57.8C18.0001 57.8 17.6001 57.8 17.3001 58C17.0001 58 16.7001 58.2 16.4001 58.3C16.3001 58.3 16.2 58.3001 16.2 58.4001C16.1 58.4001 16.1 58.4001 16.1 58.4001C15 58.8001 14.0001 59.5 13.3001 60.5C12.5001 61.5 12.0001 62.5 11.8001 63.7C11.7001 64.3 11.7001 64.9001 11.8001 65.4001C11.8001 65.5001 11.8001 65.6 11.8001 65.8C11.8001 66 11.8001 66.1 11.9001 66.2C11.9001 66.4 11.9 66.5 12 66.7C12.2 67.7 12.6 68.7 13.1 69.7C13.1 69.8 13.2001 69.9001 13.3001 69.9001C13.3001 69.9001 13.3001 70 13.4001 70C13.4001 70 13.4 70 13.5 70.1C13.5 70.1 13.5 70.2 13.6 70.2C13.6 70.2 13.6 70.2 13.7 70.3C13.7 70.3 13.7001 70.4001 13.8001 70.4001C13.8001 70.4001 13.8001 70.4 13.9001 70.5C13.9001 70.6 14 70.7 14 70.7C14.8 72.1 15.8001 73.4 16.9001 74.6C17.1001 74.8 17.3 75.1 17.5 75.2C17.6 75.2 17.6 75.3 17.7 75.3C17.7 75.4 17.8001 75.5 17.9001 75.5C18.0001 75.7 18.2001 75.8 18.4001 76C18.4001 76.1 18.5 76.2 18.6 76.2C18.9 76.4 19.2 76.7 19.5 77C20 77.4 20.6 77.8 21.2 78.2C21.3 78.8 22.3001 79.4 23.3001 79.8ZM15.7 58.3H15.8001H15.7ZM17.3001 63C17.3001 63 17.3 62.9001 17.2 62.9001C17.2 62.9001 17.3001 62.9 17.3001 62.8C17.3001 62.9 17.3001 62.9 17.3001 63C17.3001 63 17.3001 63.1 17.3001 63Z" fill="#F7601D"/>
<path opacity="0.16" d="M29 116.8C29.2 116.4 29.2 115.9 29.3 115.5C29.3 114.8 29.2 114.2 29.1 113.5C28.9 112.7 28.5 112 27.9 111.4C27.6 111.1 27.3 110.7 26.9 110.5C26.5 110.2 26.1999 109.8 25.6999 109.6C25.5999 109.5 25.5 109.5 25.4 109.4C25.3 109.4 25.2999 109.3 25.1999 109.3C25.0999 109.1 25 109 24.8 109C24.3 108.8 23.9 108.5 23.5 108.3C23.4 108.2 23.2999 108.2 23.1999 108.2C22.8999 108 22.4999 107.8 22.1999 107.7C21.4999 107.4 20.8 107.1 20.1 107C19.8 106.9 19.5 106.9 19.1 106.8C17.6 106.6 16.2 106.5 14.8 106.9C14.2 107.1 13.6 107.3 13 107.6C12.8 107.7 12.6 107.7 12.5 107.9C12.4 107.9 12.3 107.9 12.3 108C11.9 108.2 11.5 108.5 11.1 108.8C11 108.8 11 108.9 10.9 108.9C10 109.7 9.39999 110.7 8.99999 111.8C8.29999 113.5 8.40001 115.3 8.90001 117C9.20001 118.1 9.79999 119 10.5 119.9C10.8 120.3 11.1999 120.8 11.6999 121.1C11.6999 121.1 11.7 121.1 11.8 121.2C11.8 121.2 11.8 121.2 11.8 121.3C11.9 121.5 12.1 121.6 12.3 121.7C12.4 121.7 12.4 121.8 12.5 121.8C12.5 121.9 12.5999 121.9 12.6999 122C13.5999 122.6 14.6 123.2 15.6 123.6C15.8 123.7 15.9 123.8 16.1 123.8C16.2 123.9 16.3 124 16.5 123.9H16.6C17.3 124.2 18.1 124.3 18.8 124.4C19.1 124.4 19.5 124.5 19.8 124.4C19.9 124.4 19.9 124.5 20 124.4H20.1H20C20.1 124.4 20.1 124.4 20.1 124.4C20.2 124.5 20.4 124.5 20.5 124.4C20.6 124.4 20.5999 124.4 20.6999 124.4C20.6999 124.4 20.7 124.4 20.8 124.4H20.9C21 124.4 21 124.4 21 124.4C21.2 124.5 21.3 124.4 21.5 124.4C21.6 124.4 21.5999 124.5 21.6999 124.4H21.8H21.9H22H22.1H22C22.1 124.4 22.1 124.4 22.1 124.4C22.8 124.3 23.4 124.1 24.1 123.8C24.2 123.8 24.3 123.8 24.3 123.7C24.4 123.7 24.4 123.7 24.4 123.7C24.5 123.7 24.6 123.7 24.6 123.6C24.7 123.6 24.6999 123.6 24.6999 123.6H24.6H24.6999C24.6999 123.6 24.7 123.6 24.8 123.5C24.8 123.5 24.9 123.5 24.9 123.4C25.3 123.2 25.7 122.9 26.1 122.6C26.7 122.3 27.1 121.7 27.5 121.2C27.8 120.9 27.9 120.5 28.1 120.1C28.4 119.4 28.5999 118.6 28.6999 117.8C28.8999 117.2 28.9 117 29 116.8ZM21.1 124.2H21C21 124.2 21 124.2 21.1 124.2ZM13.1999 118.3C13.1999 118.3 13.0999 118.3 13.1999 118.3C13.0999 118.3 13.0999 118.3 13.1999 118.3C13.1999 118.3 13.0999 118.3 13.1999 118.3ZM13.5 112V112.1V112ZM24.6999 123.4H24.6C24.6 123.4 24.5999 123.4 24.6999 123.4Z" fill="#F7601D"/>
<path opacity="0.16" d="M46.5 55.6C46.3 55.5 46.2 55.4 46 55.4C45.5 55.2 45 55.1 44.4 55.1C44.2 55 43.9 55 43.7 55.1C43.5 55.1 43.2 55.1 43 55.2C42.1 55.3 41.3 55.7 40.6 56.1C40 56.5 39.4 57.1 39 57.7C38.9 57.8 38.8001 57.9 38.8001 58C38.7001 58.4 38.4 58.8 38.2 59.2C37.9 59.8 37.7 60.5 37.7 61.2C37.6 62.6 37.7 64 38 65.4C38.2 66.5 38.7 67.6 39.1 68.7C39.2 69 39.4 69.3 39.6 69.6C39.6 69.7 39.7 69.8 39.7 69.8C39.9 70.2 40.2 70.5 40.5 70.9C41 71.5 41.5 72.2 42 72.7C42.3 73 42.6 73.3 42.9 73.7C43.4 74.3 44 74.8 44.7 75.2C44.9 75.3 45.2 75.5 45.5 75.5C46 75.8 46.6 75.9 47.2 75.9C47.4 75.9 47.5 75.9 47.7 75.9C48.3 75.9 48.8 75.7 49.4 75.5C49.8 75.3 50.2 75.2 50.5 74.9C50.6 74.9 50.7 74.8 50.9 74.7C51.5 74.2 52.1 73.6 52.4 72.8C52.5 72.7 52.6 72.5 52.6 72.4C52.7 72.1 52.9 71.8 53 71.5C53 71.4 53.1 71.4 53.1 71.3C53.6 69.7 53.9001 68.1 53.8001 66.4C53.7001 65.8 53.7 65.1 53.6 64.5C53.4 63.3 52.9 62.2 52.4 61.1C52.3 60.8 52.1 60.5 51.9 60.3C51.9 60.2 51.8001 60.2 51.8001 60.1C51.8001 60 51.7 59.9 51.6 59.8C51.5 59.5 51.3 59.3 51.1 59.1C51.1 59 51 58.9 50.9 58.8C50.9 58.7 50.8 58.6 50.7 58.6C50.7 58.6 50.7 58.6 50.6 58.5C50.6 58.4 50.5 58.3 50.4 58.3C50.3 58.3 50.3 58.2 50.2 58.2V58.1C49.9 57.8 49.5 57.5 49.1 57.2C49.1 57.1 49 57.1 48.9 57C48 56.3 47.3 55.9 46.5 55.6ZM50.9 73.4C50.9 73.4 50.9 73.3 50.9 73.4C51 73.3 51 73.4 50.9 73.4ZM52.9 71.4C52.9 71.4 52.8 71.4 52.9 71.4C52.8 71.4 52.9 71.4 52.9 71.4Z" fill="#F7601D"/>
<path opacity="0.18" d="M37.4 4.5C37.4 4.7 37.3001 4.90001 37.3001 5.20001C37.2001 5.70001 37.3001 6.09998 37.3001 6.59998C37.4001 7.19998 37.6 7.79999 38 8.29999C38.2 8.59999 38.4 8.8 38.6 9C38.7 9.1 38.8 9.20001 38.9 9.20001C39 9.30001 39.1 9.4 39.2 9.5C39.5 9.8 39.9001 9.99998 40.3001 10.1C40.8001 10.2 41.3 10.1 41.7 9.90002C42 9.80002 42.2 9.60002 42.4 9.40002C42.9 8.90002 43.3 8.29998 43.5 7.59998C43.7 7.19998 43.8001 6.9 43.8001 6.5V6.40002C43.8001 6.30002 43.9 6.19998 43.9 6.09998C43.9 5.99998 43.9 6.00002 43.9 5.90002C43.9 5.70002 44 5.40001 44 5.20001C44 5.00001 44 4.7 44 4.5V4.40002C44 4.30002 44 4.30001 44 4.20001C44 4.00001 44 3.79998 43.9 3.59998C43.9 3.29998 43.8001 3.09999 43.8001 2.79999C43.8001 2.69999 43.7 2.50002 43.7 2.40002C43.6 2.20002 43.5001 1.90001 43.3001 1.70001C43.1001 1.40001 42.8 1.2 42.5 1C42.4 0.9 42.3 0.899988 42.2 0.799988C42.2 0.799988 42.2 0.800012 42.1 0.700012C41.8 0.600012 41.5 0.5 41.2 0.5C40.8 0.5 40.3 0.499976 39.9 0.599976C39.6 0.699976 39.3 0.8 39 1C38.8 1.1 38.6 1.3 38.5 1.5C38.3 1.7 38.1 1.99999 37.9 2.29999C37.8 2.39999 37.8001 2.49998 37.8001 2.59998C37.7001 2.69998 37.7 2.80002 37.7 2.90002C37.6 2.90002 37.6 3 37.6 3C37.7 3.6 37.5 4 37.4 4.5Z" fill="#F7601D"/>
<path opacity="0.18" d="M49.7 24.7C49.7 24.1 49.6 23.5 49.5 22.9C49.4 22.3 49.3 21.6 49.2 21C49.1 20.5 49 20 48.9 19.6C48.7 18.9 48.5 18.2 48.2 17.5C48.1 17.3 48.1 17.1 48 16.9V16.8C47.9 16.5 47.7 16.2 47.6 15.9C47.6 15.9 47.6 15.8 47.5 15.8C47.5 15.7 47.4 15.6 47.4 15.6C47.3 15.4 47.2 15.2 47.1 15C47.1 14.9 47 14.8 46.9 14.7C46.9 14.6 46.9 14.6 46.8 14.6C46.8 14.6 46.8 14.6 46.8 14.5C46.8 14.5 46.8 14.5 46.8 14.4C46.8 14.4 46.8 14.4 46.8 14.3V14.2C46.6 13.9 46.4 13.7 46.2 13.4C45.8 12.9 45.3 12.4 44.8 12C44.7 11.9 44.5 11.8 44.4 11.7C44.3 11.6 44.1 11.6 44 11.5C43.9 11.5 43.9 11.5 43.8 11.4C43.7 11.4 43.6 11.3 43.5 11.3C43.3 11.3 43.1 11.2 42.8 11.2C42.6 11.2 42.4 11.1 42.2 11.2H42.1C42 11.2 41.9 11.2 41.8 11.2C41.4 11.2 41 11.3 40.5 11.5C40.3 11.6 40.2 11.6 40.1 11.7H40C39.8 11.8 39.6 11.9 39.4 12C39.1 12.1 38.9 12.3 38.6 12.4C38.5 12.5 38.4 12.5 38.3 12.6C38.2 12.6 38.2 12.7 38.1 12.7C37.6 13 37.1 13.4 36.6 13.8C36.1 14.2 35.5 14.7 35 15.2C34.6 15.6 34.1 16.1 33.7 16.5C33.7 16.5 33.7 16.6 33.6 16.6C33.4 16.7 33.3 16.9 33.2 17L33.1 17.1C33 17.2 32.8 17.4 32.7 17.5C32.5 17.8 32.2 18.1 32 18.3C31.8 18.6 31.6 18.9 31.4 19.2C31.2 19.5 31.1 19.8 30.9 20.2C30.9 20.3 30.8 20.4 30.8 20.5C30.7 20.7 30.7 20.8 30.7 21C30.7 21.2 30.6 21.4 30.6 21.7C30.6 21.8 30.6 21.8 30.6 21.9C30.6 22 30.6 22.1 30.6 22.2V22.3C30.6 22.7 30.7 23.1 30.8 23.4C30.9 23.5 30.9 23.7 31 23.8C31 23.9 31.1 24 31.2 24.1C31.2 24.2 31.3 24.3 31.3 24.3C31.4 24.5 31.5 24.6 31.6 24.7C31.7 24.9 31.9 25 32.1 25.1C32.3 25.3 32.5 25.4 32.7 25.5C32.7 25.6 32.8 25.6 32.8 25.6C32.8 25.6 32.8 25.6 32.9 25.7C33.1 25.8 33.2 25.9 33.4 26C33.7 26.1 34 26.3 34.3 26.4C34.8 26.5 35.2 26.7 35.7 26.8C36.4 27 37.2 27.3 37.9 27.5C38 27.5 38.1 27.6 38.2 27.6H38.3C38.4 27.6 38.5 27.7 38.6 27.7C38.7 27.7 38.8 27.7 38.8 27.8C38.9 27.8 39 27.9 39.1 27.9C39.9 28.2 40.7 28.4 41.5 28.6C41.7 28.7 41.9 28.7 42.1 28.8H42.2H42.3C42.5 28.9 42.6 28.9 42.8 28.9C43 28.9 43.1 29 43.3 29C43.6 29 43.9 29.1 44.2 29.1C44.3 29.1 44.5 29.1 44.6 29.1H44.7H44.8C44.9 29.1 45.1 29.1 45.2 29.1C45.3 29.1 45.5 29.1 45.6 29.1H45.7C45.9 29.1 46 29 46.2 29C46.6 28.9 47 28.7 47.3 28.5C48 28 48.4 27.4 48.7 26.7C48.8 26.5 48.8 26.3 48.9 26.2C49 26 49.1 25.7 49.2 25.5C49.7 25.4 49.7 25 49.7 24.7ZM40.8 13.5C40.7 13.5 40.7 13.5 40.8 13.5C40.7 13.5 40.8 13.5 40.8 13.5ZM37.2 24C37.2 24 37.3 24 37.2 24C37.3 24 37.3 24 37.2 24C37.3 24 37.3 24 37.2 24C37.3 24 37.3 24 37.2 24ZM40.2 27.4C40.3 27.4 40.3 27.4 40.2 27.4C40.3 27.4 40.3 27.4 40.2 27.4ZM47.2 26.9C47.2 26.9 47.3 26.9 47.2 26.9C47.3 26.9 47.3 26.9 47.2 26.9C47.2 26.9 47.3 26.9 47.2 26.9Z" fill="#F7601D"/>
<path opacity="0.18" d="M46.6 8.29998C46.5 8.79998 46.5 9.29998 46.7 9.79998C46.8 10.1 46.9 10.3 47 10.5C47 10.5 47 10.6 47.1 10.6C47.2 10.8 47.4 11 47.6 11.1C47.8 11.4 48.0001 11.6 48.3001 11.8C48.7001 12.1 49.2 12.2 49.7 12.1C49.9 12.1 50.1001 12 50.3001 11.9C50.3001 11.9 50.3 11.9 50.4 11.9C50.4 11.9 50.4 11.9 50.5 11.9C50.6 11.9 50.6 11.8 50.7 11.8C50.8 11.8 50.8 11.7 50.9 11.7C51.5 11.4 52 11 52.4 10.5C52.8 10.1 53.2 9.59997 53.5 9.09997C53.7 8.79997 53.9 8.49997 54 8.09997C54.2 7.79997 54.3 7.39997 54.4 7.09997C54.4 6.99997 54.5 6.80001 54.5 6.70001C54.5 6.50001 54.6 6.40001 54.6 6.20001C54.6 6.10001 54.6 6.09999 54.6 5.99999C54.6 5.79999 54.7 5.69999 54.6 5.49999V5.40002C54.6 5.00002 54.6 4.60001 54.4 4.20001C54.4 4.10001 54.3 3.89998 54.2 3.79998C54.2 3.69998 54.1 3.59999 54 3.49999C54 3.49999 54 3.40002 53.9 3.40002C53.6 3.00002 53.3001 2.69997 52.8001 2.59997C52.4001 2.39997 51.9 2.30002 51.4 2.40002C51.2 2.40002 51 2.49997 50.7 2.59997H50.6C50.5 2.59997 50.5 2.60001 50.4 2.70001C50.3 2.70001 50.3 2.69998 50.2 2.79998C49.8 2.99998 49.5 3.19999 49.2 3.49999L49.1 3.59997C49.1 3.59997 49 3.60001 49 3.70001C48.6 4.20001 48.2001 4.60001 47.8001 5.20001C47.7001 5.30001 47.7 5.39999 47.6 5.49999C47.6 5.49999 47.6 5.49997 47.6 5.59997L47.5 5.70001C47.4 5.80001 47.4 5.89999 47.4 5.99999L47.3001 6.09997C47.2001 6.19997 47.2 6.39999 47.1 6.49999C47 6.69999 46.9001 7.00001 46.8001 7.20001C46.8001 7.50001 46.7 7.89998 46.6 8.29998ZM52.3001 4.29998C52.4001 4.29998 52.4001 4.29998 52.3001 4.29998C52.4001 4.29998 52.4001 4.29998 52.3001 4.29998Z" fill="#F7601D"/>
<path opacity="0.18" d="M33.3 14.2C33.5 14.2 33.6 14.2 33.8 14.2C34.1 14.1 34.3 14 34.5 13.9C34.8 13.7 35 13.5 35.2 13.2C35.3 13 35.4 12.9 35.5 12.7C35.6 12.5 35.7 12.4 35.7 12.2V12.0999C35.7 12.0999 35.7 12.1 35.7 12C35.8 12 35.8 11.9 35.8 11.8C35.8 11.6 35.9 11.4 35.9 11.2V11.0999C36 10.9999 36 10.8 36 10.7C36 10.4 36.1 10.1 36 9.79996C36 9.69996 36 9.5 36 9.4C35.9 8.8 35.8 8.29996 35.5 7.79996C35.4 7.59996 35.2 7.39998 35.1 7.19998C35.1 7.09998 35 7.09997 34.9 6.99997C34.9 6.99997 34.9 6.9 34.8 6.9C34.7 6.8 34.5 6.59995 34.4 6.59995C34.4 6.59995 34.4 6.59997 34.3 6.49997C33.9 6.19997 33.5 6.09995 33 6.09995C32.3 5.99995 31.6 6.19995 31 6.59995C30.6 6.79995 30.3 7.09997 30.1 7.49997C30 7.69997 29.8 7.89995 29.8 8.09995C29.7 8.19995 29.7 8.29996 29.7 8.29996C29.7 8.29996 29.7 8.3 29.7 8.4C29.7 8.4 29.7 8.39997 29.6 8.49997C29.4 8.89997 29.4 9.29998 29.3 9.69998C29.3 9.79998 29.3 9.8 29.3 9.9C29.3 10 29.3 9.99995 29.3 10.0999C29.3 10.3999 29.3 10.7 29.3 11C29.3 11.1 29.3 11.3 29.4 11.4V11.5C29.4 11.5 29.4 11.4999 29.4 11.5999C29.4 11.5999 29.4 11.6 29.4 11.5C29.4 11.5 29.4 11.4999 29.4 11.5999C29.4 11.6999 29.4 11.7 29.4 11.7C29.4 11.7 29.4 11.7 29.4 11.8C29.4 11.8 29.4 11.8 29.4 11.9C29.4 12 29.4 11.9999 29.5 12.0999V12.2C29.5 12.2 29.5 12.2 29.5 12.3C29.5 12.3 29.5 12.3 29.5 12.4C29.5 12.4 29.5 12.4 29.5 12.5C29.5 12.5 29.5 12.5 29.5 12.4C29.5 12.4 29.5 12.4 29.5 12.5C29.6 12.8 29.7 13 29.9 13.2C29.9 13.2 29.9 13.3 30 13.3C30 13.3 30 13.4 30.1 13.4C30.2 13.5 30.4 13.7 30.5 13.8C30.7 14 30.9 14.1 31.2 14.2C31.3 14.3 31.5 14.3 31.7 14.3C32 14.4 32.3 14.4 32.6 14.3C33.1 14.2 33.2 14.2 33.3 14.2ZM29.6 12C29.7 12 29.6 12 29.6 12V12ZM30.3 13.3C30.3 13.3 30.3 13.2 30.3 13.3C30.3 13.2 30.3 13.2 30.3 13.3C30.3 13.3 30.3 13.2 30.3 13.3ZM30.7 12.3C30.8 12.3 30.8 12.3 30.7 12.3C30.8 12.3 30.8 12.3 30.7 12.3Z" fill="#F7601D"/>
<path opacity="0.18" d="M58.1 14.6C58.1 14.5 58.1 14.5 58.1 14.4C58.1 14.2 58.1 14 58 13.8C58 13.7 58 13.6 57.9 13.5C57.9 13.4 57.9001 13.3 57.8001 13.3C57.7001 13 57.5 12.7 57.2 12.5C57 12.3 56.7 12.2 56.4 12H56.3001C56.1001 12 56.0001 11.9 55.8001 11.9C55.5001 11.9 55.3 11.9 55 11.9C54.5 12 53.9 12.2 53.5 12.4C53.1 12.6 52.7 12.9 52.4 13.2C52.3 13.3 52.2 13.4 52.1 13.5C52.1 13.5 52 13.5 52 13.6C51.9 13.7 51.8 13.9 51.7 14C51.5 14.2 51.3 14.5 51.2 14.8C51.1 15 51 15.1 50.9 15.2C50.7 15.4 50.6 15.7 50.5 16C50.5 16.1 50.4 16.2 50.5 16.3C50.5 16.5 50.5 16.8 50.5 17C50.5 17.1 50.5 17.1 50.5 17.2C50.6 17.4 50.7001 17.6 50.8001 17.8C50.9001 17.9 51 18.1 51.1 18.1C51.1 18.2 51.2 18.2 51.2 18.2C51.5 18.4 51.7 18.5 52.1 18.6C52.2 18.6 52.2001 18.6 52.3001 18.7C52.4001 18.7 52.6 18.8 52.7 18.7H52.8001C53.5001 18.7 54.1 18.7 54.7 18.5C54.9 18.4 55.2 18.3 55.4 18.2C55.8 18 56.2 17.7 56.6 17.4C56.7 17.3 56.8 17.2 56.9 17.1C56.9 17.1 57 17.1 57 17L57.1 16.9C57.2 16.8 57.3001 16.7 57.3001 16.6L57.4 16.5L57.5 16.4L57.6 16.3C57.6 16.3 57.6 16.3 57.6 16.2C57.7 16 57.8001 15.9 57.8001 15.7C57.8001 15.7 57.8 15.7 57.9 15.6C58 15.2 58.1 14.9 58.1 14.6ZM51.8001 18.1C51.9001 18.1 51.9001 18.1 51.8001 18.1C51.9001 18.1 51.9001 18.1 51.8001 18.1Z" fill="#F7601D"/>
<path opacity="0.14" d="M42.9001 158.4C42.8001 158.6 42.6 158.8 42.5 159C42.2 159.4 42.0001 159.8 41.9001 160.3C41.7001 160.9 41.6 161.5 41.7 162.2C41.7 162.5 41.8001 162.8 41.9001 163.1C42.0001 163.2 42 163.4 42.1 163.5C42.2 163.6 42.2 163.8 42.2 163.9C42.4 164.3 42.6 164.7 43 165C43.4 165.3 43.9001 165.5 44.4001 165.5C44.7001 165.5 45.0001 165.4 45.3001 165.3C46.0001 165.1 46.6 164.7 47.1 164.2C47.4 163.9 47.7001 163.6 47.9001 163.3C47.9001 163.3 47.9001 163.3 47.9001 163.2C48.0001 163.1 48.1 163.1 48.1 162.9L48.2 162.8C48.3 162.6 48.5 162.4 48.6 162.2C48.7 162 48.8001 161.8 48.9001 161.6C48.9001 161.6 49.0001 161.5 48.9001 161.5L49 161.4C49.1 161.2 49.2 161 49.2 160.8C49.3 160.6 49.4001 160.3 49.4001 160C49.4001 159.9 49.4 159.7 49.5 159.6C49.5 159.3 49.5 159.1 49.5 158.8C49.4 158.5 49.3 158.1 49.1 157.8C49 157.7 49.0001 157.6 48.9001 157.5V157.4C48.7001 157.2 48.5 157 48.2 156.8C47.8 156.6 47.4 156.4 47 156.3C46.7 156.3 46.4 156.2 46 156.3C45.8 156.3 45.5001 156.4 45.3001 156.5C45.0001 156.6 44.7001 156.8 44.4001 156.9C44.3001 157 44.2 157 44.1 157.1C44 157.1 43.9001 157.2 43.9001 157.3C43.8001 157.3 43.8001 157.3 43.8001 157.4C43.5001 157.7 43.2001 158 42.9001 158.4Z" fill="#F7601D"/>
<path opacity="0.14" d="M44.8001 181.9C45.0001 181.4 45.2 180.8 45.4 180.2C45.6 179.6 45.8 179 46 178.3C46.1 177.8 46.2001 177.4 46.3001 176.9C46.5001 176.2 46.6 175.4 46.7 174.7C46.7 174.5 46.8001 174.3 46.8001 174.1V174C46.8001 173.7 46.8 173.4 46.9 173V172.9C46.9 172.8 46.9 172.7 46.9 172.6C46.9 172.4 46.9 172.2 46.9 172C46.9 171.9 46.9 171.8 46.9 171.7C46.9 171.7 46.9 171.7 46.9 171.6C46.9 171.5 46.9 171.5 46.9 171.5C46.9 171.5 46.9 171.5 46.9 171.4C46.9 171.4 46.9 171.4 46.9 171.3C46.9 171.3 46.9 171.3 46.9 171.4C46.9 171.4 46.9 171.4 46.9 171.3C46.9 171.3 46.9 171.3 46.9 171.2V171.1C46.9 170.8 46.8 170.5 46.7 170.1C46.6 169.4 46.4 168.8 46 168.2C45.9 168 45.9 167.9 45.7 167.8C45.6 167.7 45.5 167.6 45.4 167.5C45.3 167.4 45.3001 167.4 45.3001 167.3C45.2001 167.2 45.2 167.2 45.1 167.1C44.9 167 44.8 166.8 44.6 166.7C44.4 166.6 44.3 166.5 44.1 166.4H44C43.9 166.3 43.8 166.3 43.7 166.3C43.3 166.2 42.9 166 42.5 166C42.3 166 42.2 165.9 42 166H41.9C41.7 166 41.5 166 41.2 166C40.9 166 40.6001 166 40.3001 166C40.2001 166 40.1 166 39.9 166C39.8 166 39.8 166 39.7 166C39.1 166.1 38.5 166.2 37.9 166.3C37.2 166.5 36.5 166.6 35.9 166.9C35.3 167.1 34.7 167.3 34.2 167.5C34.2 167.5 34.1 167.5 34.1 167.6C33.9 167.6 33.7 167.7 33.6 167.8C33.5 167.8 33.5 167.8 33.4 167.8C33.2 167.9 33.1 167.9 32.9 168C32.6 168.1 32.2 168.3 31.9 168.5C31.6 168.7 31.3 168.9 31 169.1C30.7 169.3 30.4 169.5 30.2 169.8C30.1 169.9 30 170 30 170C29.9 170.1 29.7 170.3 29.6 170.4C29.5 170.6 29.3 170.8 29.2 171C29.2 171.1 29.1 171.1 29.1 171.2C29 171.3 29 171.4 29 171.5C29 171.5 29 171.5 29 171.6C28.8 172 28.7 172.3 28.7 172.7C28.7 172.9 28.6 173 28.7 173.2C28.7 173.2 28.7 173.2 28.7 173.3C28.7 173.4 28.7 173.6 28.7 173.7C28.7 173.8 28.7 173.9 28.7 174C28.7 174.2 28.8001 174.3 28.8001 174.5C28.9001 174.7 28.9 174.9 29 175.1C29.1 175.3 29.2001 175.5 29.3001 175.7C29.3001 175.8 29.3 175.8 29.4 175.8V175.9C29.5 176.1 29.6 176.2 29.7 176.4C29.9 176.7 30.1 176.9 30.4 177.1C30.8 177.4 31.1 177.8 31.5 178.1C32.1 178.6 32.6 179.2 33.2 179.7C33.3 179.8 33.3 179.8 33.4 179.9C33.4 179.9 33.4 179.9 33.5 180C33.6 180.1 33.7 180.1 33.7 180.2C33.8 180.3 33.8 180.3 33.9 180.4C34 180.5 34 180.5 34.1 180.6C34.7 181.2 35.3 181.8 35.9 182.3C36.1 182.4 36.2 182.6 36.4 182.7L36.5 182.8L36.6 182.9C36.7 183 36.9 183.1 37 183.2C37.1 183.3 37.3 183.4 37.4 183.5C37.6 183.7 37.9 183.8 38.1 184C38.2 184.1 38.3 184.2 38.5 184.2H38.6L38.7 184.3C38.8 184.4 38.9 184.4 39 184.5C39.1 184.6 39.2 184.6 39.4 184.6H39.5C39.7 184.7 39.8 184.7 40 184.7C40.4 184.8 40.8 184.8 41.2 184.8C42 184.7 42.7001 184.3 43.3001 183.8C43.4001 183.7 43.6 183.5 43.7 183.4C43.9 183.2 44.1001 183.1 44.3001 182.9C44.5001 182.5 44.7001 182.2 44.8001 181.9ZM42 168.1C41.9 168.1 41.9 168.1 42 168.1C41.9 168 41.9 168 42 168.1C41.9 168.1 41.9 168 42 168.1ZM35.2 180.1C35.1 180.1 35.1 180.1 35.2 180.1V180.1Z" fill="#F7601D"/>
<path opacity="0.14" d="M49.4001 165.9C49.1001 166.3 48.9001 166.8 48.8001 167.3C48.7001 167.6 48.7001 167.8 48.8001 168.1V168.2C48.8001 168.4 48.9 168.7 49 168.9C49 169.2 49.2001 169.5 49.3001 169.8C49.6001 170.2 49.9001 170.5 50.4001 170.7C50.6001 170.8 50.8 170.8 51 170.8C51 170.8 51 170.8 51.1 170.8C51.1 170.8 51.1 170.8 51.2 170.8C51.3 170.8 51.4001 170.8 51.4001 170.8C51.5001 170.8 51.5 170.8 51.6 170.8C52.3 170.7 52.9 170.6 53.5 170.4C54.1 170.2 54.6 170 55.1 169.6C55.4 169.4 55.7 169.2 56 169C56.3 168.8 56.6001 168.5 56.8001 168.2C56.9001 168.1 57 168 57.1 167.8C57.2 167.7 57.3001 167.5 57.4001 167.4C57.4001 167.3 57.5 167.3 57.5 167.2C57.6 167.1 57.7 166.9 57.7 166.8L57.8001 166.7C58.0001 166.3 58.1 166 58.2 165.6C58.2 165.5 58.3 165.3 58.2 165.2C58.2 165.1 58.2 165 58.2 164.8V164.7C58.2 164.7 58.2 164.7 58.2 164.6C58.1 164.1 57.9 163.7 57.6 163.4C57.3 163 56.9 162.8 56.5 162.6C56.3 162.5 56.1001 162.5 55.8001 162.5H55.7C55.6 162.5 55.6 162.5 55.5 162.5C55.4 162.5 55.4001 162.5 55.3001 162.5C54.9001 162.5 54.5 162.6 54.1 162.7H54C54 162.7 54.0001 162.7 53.9001 162.7C53.9001 162.7 53.9001 162.7 53.8001 162.7C53.8001 162.7 53.8 162.7 53.7 162.7H53.6C53 162.9 52.4001 163.2 51.9001 163.5C51.8001 163.6 51.7 163.6 51.6 163.7C51.6 163.7 51.6 163.7 51.5 163.7C51.4 163.7 51.4001 163.7 51.4001 163.8C51.3001 163.8 51.2 163.9 51.2 164C51.2 164 51.1 164 51.1 164.1C51 164.2 50.9 164.3 50.7 164.4C50.5 164.6 50.3 164.8 50.1 164.9C49.9 165.2 49.6001 165.5 49.4001 165.9ZM58.2 164.6C58.2 164.7 58.2 164.7 58.2 164.6V164.6ZM56.3001 164.9C56.3001 164.8 56.3001 164.8 56.3001 164.9V164.9Z" fill="#F7601D"/>
<path opacity="0.14" d="M34.8 165.2C34.9 165.3 35.1 165.4 35.3 165.4C35.6 165.5 35.8 165.5 36.1 165.5C36.4 165.5 36.7 165.4 37 165.2C37.1 165.1 37.3 165 37.4 164.9C37.5 164.8 37.7 164.7 37.8 164.5L37.9 164.4C37.9 164.4 37.9 164.4 38 164.3C38.1 164.3 38.1 164.2 38.2 164.2C38.3 164 38.5 163.9 38.6 163.8L38.7 163.7C38.8 163.6 38.9 163.5 39 163.4C39.2 163.2 39.3 162.9 39.4 162.6C39.4 162.5 39.5 162.4 39.5 162.2C39.7 161.7 39.8 161.1 39.8 160.5C39.8 160.2 39.7 160 39.7 159.8C39.7 159.7 39.7 159.7 39.6 159.6V159.5C39.6 159.3 39.5 159.1 39.4 159V158.9C39.2 158.5 38.8 158.2 38.5 157.9C37.9 157.5 37.2 157.4 36.5 157.5C36.1 157.5 35.7 157.7 35.3 157.9C35.1 158 34.9 158.1 34.8 158.3C34.7 158.3 34.7 158.4 34.6 158.5C34.6 158.5 34.6 158.5 34.5 158.6H34.4C34.1 158.9 33.8 159.2 33.6 159.6C33.6 159.7 33.5 159.7 33.5 159.8L33.4 159.9C33.2 160.2 33.1 160.4 33 160.7C33 160.8 32.9 160.9 32.9 161.1V161.2C32.9 161.2 32.9 161.2 32.9 161.3C32.9 161.3 32.9 161.3 32.9 161.2C32.9 161.2 32.9 161.2 32.9 161.3V161.4C32.9 161.4 32.9 161.4 32.9 161.5C32.9 161.5 32.9 161.5 32.9 161.6C32.9 161.6 32.9 161.6 32.9 161.7C32.9 161.8 32.9 161.8 32.9 161.9V162C32.9 162 32.9 162 32.9 162.1C32.9 162.1 32.9 162.1 32.9 162.2C32.9 162.2 32.9 162.2 32.9 162.3C32.9 162.3 32.9 162.3 32.9 162.4C32.9 162.4 32.9 162.4 32.9 162.3C32.9 162.3 32.9 162.3 32.9 162.4C32.9 162.7 32.9 162.9 33 163.2V163.3C33 163.3 33 163.3 33 163.4V163.5C33 163.5 33 163.5 33 163.6C33 163.6 33 163.6 33 163.7C33.1 163.9 33.1 164.1 33.2 164.2C33.3 164.5 33.5 164.6 33.6 164.8C33.7 164.9 33.8 165 34 165.1C34.3 165.3 34.5 165.4 34.8 165.5C34.6 165.1 34.7 165.2 34.8 165.2Z" fill="#F7601D"/>
<path opacity="0.14" d="M56.9 176.6C56.9 176.5 57 176.5 57 176.4C57.1 176.2 57.2 176 57.2 175.8C57.2 175.7 57.3 175.6 57.2 175.5C57.2 175.4 57.2 175.3 57.2 175.2C57.2 174.9 57.2 174.5 57 174.2C56.9 173.9 56.7 173.7 56.5 173.4L56.4 173.3C56.3 173.2 56.1 173.1 56 173C55.8 172.8 55.5 172.7 55.3 172.7C54.8 172.6 54.2 172.5 53.7 172.5C53.2 172.5 52.8 172.6 52.3 172.7C52.2 172.7 52 172.7 51.9 172.8H51.8C51.6 172.9 51.5 172.9 51.3 173C51 173.1 50.7 173.3 50.5 173.5C50.4 173.6 50.2 173.7 50.1 173.8C49.8 173.9 49.6 174.1 49.4 174.4C49.3 174.5 49.3 174.6 49.2 174.7C49.1 174.9 49 175.1 48.9 175.3C48.9 175.4 48.9 175.4 48.9 175.5C48.9 175.7 48.9 176 48.9 176.2C48.9 176.4 49 176.5 49 176.7C49 176.8 49 176.8 49 176.9C49.2 177.2 49.3 177.4 49.6 177.6L49.7 177.7C49.8 177.8 49.9 177.9 50 177.9C50 177.9 50 177.9 50.1 178C50.7 178.3 51.3 178.6 51.9 178.6C52.1 178.6 52.4 178.7 52.6 178.7C53.1 178.7 53.5 178.6 54 178.5C54.1 178.5 54.2 178.4 54.4 178.4H54.5C54.6 178.4 54.6 178.4 54.6 178.3C54.7 178.3 54.8 178.2 54.9 178.2C55 178.2 55 178.2 55 178.1C55.1 178.1 55.1 178.1 55.1 178C55.2 178 55.2 178 55.2 177.9C55.2 177.9 55.2 177.9 55.3 177.9C55.4 177.8 55.6 177.7 55.7 177.6H55.8C56.4 177.1 56.7 176.9 56.9 176.6ZM49.7 176.9C49.7 176.9 49.7 177 49.7 176.9C49.7 177 49.7 176.9 49.7 176.9Z" fill="#F7601D"/>
</svg>
